Jost-700-BoldItalic.ufo
<glyph name="exclam" format="1">
  <advance width="324"/>
  <unicode hex="0021"/>
  <outline>
    <contour>
      <point x="256" y="700" type="line"/>
      <point x="440" y="700" type="line"/>
      <point x="251" y="233" type="line"/>
      <point x="126" y="233" type="line"/>
    </contour>
    <contour>
      <point x="36" y="63" type="curve" smooth="yes"/>
      <point x="36" y="114"/>
      <point x="76" y="150"/>
      <point x="132" y="150" type="curve" smooth="yes"/>
      <point x="188" y="150"/>
      <point x="228" y="114"/>
      <point x="228" y="63" type="curve" smooth="yes"/>
      <point x="228" y="12"/>
      <point x="188" y="-25"/>
      <point x="132" y="-25" type="curve" smooth="yes"/>
      <point x="76" y="-25"/>
      <point x="36" y="12"/>
    </contour>
  </outline>
</glyph>
<glyph name="quotedbl" format="1">
  <advance width="489"/>
  <unicode hex="0022"/>
  <outline>
    <contour>
      <point x="276" y="700" type="line"/>
      <point x="439" y="699" type="line"/>
      <point x="239" y="382" type="line"/>
      <point x="136" y="381" type="line"/>
    </contour>
    <contour>
      <point x="476" y="700" type="line"/>
      <point x="639" y="699" type="line"/>
      <point x="438" y="382" type="line"/>
      <point x="336" y="381" type="line"/>
    </contour>
  </outline>
</glyph>
<glyph name="numbersign" format="1">
  <advance width="630"/>
  <unicode hex="0023"/>
  <outline>
    <contour>
      <point x="158" y="412" type="line"/>
      <point x="197" y="534" type="line"/>
      <point x="728" y="534" type="line"/>
      <point x="686" y="411" type="line"/>
      <point x="546" y="411" type="line"/>
      <point x="521" y="417" type="line"/>
      <point x="328" y="417" type="line"/>
      <point x="300" y="411" type="line"/>
    </contour>
    <contour>
      <point x="34" y="171" type="line"/>
      <point x="77" y="294" type="line"/>
      <point x="203" y="294" type="line"/>
      <point x="231" y="288" type="line"/>
      <point x="448" y="288" type="line"/>
      <point x="479" y="294" type="line"/>
      <point x="609" y="294" type="line"/>
      <point x="566" y="171" type="line"/>
    </contour>
    <contour>
      <point x="624" y="699" type="line"/>
      <point x="763" y="699" type="line"/>
      <point x="362" y="0" type="line"/>
      <point x="226" y="0" type="line"/>
      <point x="355" y="224" type="line"/>
      <point x="376" y="249" type="line"/>
      <point x="494" y="456" type="line"/>
      <point x="504" y="488" type="line"/>
    </contour>
    <contour>
      <point x="398" y="700" type="line"/>
      <point x="535" y="699" type="line"/>
      <point x="413" y="488" type="line"/>
      <point x="388" y="456" type="line"/>
      <point x="271" y="251" type="line"/>
      <point x="263" y="225" type="line"/>
      <point x="134" y="0" type="line"/>
      <point x="-0" y="0" type="line"/>
    </contour>
  </outline>
</glyph>
<glyph name="dollar" format="1">
  <advance width="585"/>
  <unicode hex="0024"/>
  <outline>
    <contour>
      <point x="463" y="818" type="line"/>
      <point x="587" y="818" type="line"/>
      <point x="522" y="636" type="line"/>
      <point x="411" y="636" type="line"/>
    </contour>
    <contour>
      <point x="236" y="62" type="line"/>
      <point x="346" y="62" type="line"/>
      <point x="297" y="-112" type="line"/>
      <point x="175" y="-112" type="line"/>
    </contour>
    <contour>
      <point x="545" y="489" type="line"/>
      <point x="532" y="533"/>
      <point x="515" y="581"/>
      <point x="461" y="582" type="curve" smooth="yes"/>
      <point x="422" y="583"/>
      <point x="377" y="557"/>
      <point x="363" y="520" type="curve" smooth="yes"/>
      <point x="339" y="456"/>
      <point x="432" y="433"/>
      <point x="473" y="414" type="curve" smooth="yes"/>
      <point x="562" y="374"/>
      <point x="610" y="293"/>
      <point x="583" y="196" type="curve" smooth="yes"/>
      <point x="546" y="61"/>
      <point x="404" y="-12"/>
      <point x="271" y="-10" type="curve" smooth="yes"/>
      <point x="156" y="-8"/>
      <point x="79" y="65"/>
      <point x="46" y="169" type="curve"/>
      <point x="181" y="252" type="line"/>
      <point x="200" y="192"/>
      <point x="227" y="128"/>
      <point x="301" y="128" type="curve" smooth="yes"/>
      <point x="344" y="128"/>
      <point x="394" y="153"/>
      <point x="408" y="196" type="curve" smooth="yes"/>
      <point x="428" y="255"/>
      <point x="353" y="281"/>
      <point x="312" y="301" type="curve" smooth="yes"/>
      <point x="225" y="343"/>
      <point x="164" y="422"/>
      <point x="192" y="522" type="curve" smooth="yes"/>
      <point x="225" y="641"/>
      <point x="361" y="710"/>
      <point x="478" y="710" type="curve" smooth="yes"/>
      <point x="582" y="710"/>
      <point x="650" y="654"/>
      <point x="686" y="560" type="curve"/>
    </contour>
  </outline>
</glyph>
<glyph name="percent" format="1">
  <advance width="871"/>
  <unicode hex="0025"/>
  <outline>
    <contour>
      <point x="146" y="535" type="curve" smooth="yes"/>
      <point x="175" y="633"/>
      <point x="278" y="719"/>
      <point x="382" y="719" type="curve" smooth="yes"/>
      <point x="484" y="719"/>
      <point x="537" y="626"/>
      <point x="510" y="533" type="curve" smooth="yes"/>
      <point x="481" y="435"/>
      <point x="378" y="349"/>
      <point x="274" y="349" type="curve" smooth="yes"/>
      <point x="172" y="349"/>
      <point x="119" y="442"/>
    </contour>
    <contour>
      <point x="268" y="532" type="curve" smooth="yes"/>
      <point x="260" y="506"/>
      <point x="269" y="471"/>
      <point x="307" y="470" type="curve" smooth="yes"/>
      <point x="340" y="469"/>
      <point x="379" y="506"/>
      <point x="388" y="536" type="curve" smooth="yes"/>
      <point x="396" y="562"/>
      <point x="388" y="597"/>
      <point x="350" y="598" type="curve" smooth="yes"/>
      <point x="317" y="599"/>
      <point x="277" y="562"/>
    </contour>
    <contour>
      <point x="493" y="168" type="curve" smooth="yes"/>
      <point x="522" y="266"/>
      <point x="625" y="352"/>
      <point x="729" y="352" type="curve" smooth="yes"/>
      <point x="831" y="352"/>
      <point x="883" y="259"/>
      <point x="856" y="166" type="curve" smooth="yes"/>
      <point x="827" y="68"/>
      <point x="725" y="-18"/>
      <point x="621" y="-18" type="curve" smooth="yes"/>
      <point x="519" y="-18"/>
      <point x="466" y="75"/>
    </contour>
    <contour>
      <point x="615" y="165" type="curve" smooth="yes"/>
      <point x="606" y="139"/>
      <point x="619" y="104"/>
      <point x="650" y="103" type="curve" smooth="yes"/>
      <point x="683" y="102"/>
      <point x="722" y="132"/>
      <point x="735" y="169" type="curve" smooth="yes"/>
      <point x="744" y="195"/>
      <point x="731" y="230"/>
      <point x="700" y="231" type="curve" smooth="yes"/>
      <point x="667" y="232"/>
      <point x="628" y="202"/>
    </contour>
    <contour>
      <point x="793" y="699" type="line"/>
      <point x="959" y="699" type="line"/>
      <point x="209" y="0" type="line"/>
      <point x="45" y="0" type="line"/>
    </contour>
  </outline>
</glyph>
<glyph name="ampersand" format="1">
  <advance width="710"/>
  <unicode hex="0026"/>
  <outline>
    <contour>
      <point x="293" y="371" type="line" smooth="yes"/>
      <point x="262" y="425"/>
      <point x="233" y="480"/>
      <point x="250" y="544" type="curve" smooth="yes"/>
      <point x="278" y="650"/>
      <point x="398" y="716"/>
      <point x="502" y="716" type="curve" smooth="yes"/>
      <point x="597" y="716"/>
      <point x="677" y="646"/>
      <point x="652" y="546" type="curve" smooth="yes"/>
      <point x="626" y="445"/>
      <point x="517" y="387"/>
      <point x="432" y="343" type="curve" smooth="yes"/>
      <point x="364" y="308"/>
      <point x="245" y="285"/>
      <point x="219" y="201" type="curve" smooth="yes"/>
      <point x="203" y="152"/>
      <point x="235" y="122"/>
      <point x="282" y="118" type="curve" smooth="yes"/>
      <point x="421" y="106"/>
      <point x="549" y="252"/>
      <point x="636" y="341" type="curve"/>
      <point x="718" y="260" type="line"/>
      <point x="595" y="130"/>
      <point x="429" y="-16"/>
      <point x="239" y="-13" type="curve" smooth="yes"/>
      <point x="125" y="-12"/>
      <point x="26" y="66"/>
      <point x="59" y="188" type="curve" smooth="yes"/>
      <point x="97" y="328"/>
      <point x="244" y="369"/>
      <point x="362" y="420" type="curve" smooth="yes"/>
      <point x="410" y="442"/>
      <point x="500" y="475"/>
      <point x="513" y="534" type="curve" smooth="yes"/>
      <point x="519" y="561"/>
      <point x="507" y="593"/>
      <point x="470" y="594" type="curve" smooth="yes"/>
      <point x="436" y="595"/>
      <point x="401" y="569"/>
      <point x="390" y="533" type="curve" smooth="yes"/>
      <point x="375" y="484"/>
      <point x="410" y="437"/>
      <point x="432" y="399" type="curve" smooth="yes"/>
      <point x="657" y="0" type="line"/>
      <point x="500" y="0" type="line"/>
    </contour>
  </outline>
</glyph>
<glyph name="quotesingle" format="1">
  <advance width="289"/>
  <unicode hex="0027"/>
  <outline>
    <contour>
      <point x="276" y="700" type="line"/>
      <point x="439" y="699" type="line"/>
      <point x="239" y="382" type="line"/>
      <point x="136" y="381" type="line"/>
    </contour>
  </outline>
</glyph>
<glyph name="parenleft" format="1">
  <advance width="321"/>
  <unicode hex="0028"/>
  <outline>
    <contour>
      <point x="376" y="779" type="curve"/>
      <point x="516" y="778" type="line"/>
      <point x="412" y="626"/>
      <point x="320" y="466"/>
      <point x="264" y="290" type="curve" smooth="yes"/>
      <point x="214" y="132"/>
      <point x="192" y="-36"/>
      <point x="217" y="-201" type="curve"/>
      <point x="86" y="-201" type="line"/>
      <point x="55" y="-37"/>
      <point x="69" y="130"/>
      <point x="116" y="290" type="curve" smooth="yes"/>
      <point x="169" y="469"/>
      <point x="260" y="634"/>
    </contour>
  </outline>
</glyph>
<glyph name="parenright" format="1">
  <advance width="321"/>
  <unicode hex="0029"/>
  <outline>
    <contour>
      <point x="55" y="-199" type="curve"/>
      <point x="-83" y="-198" type="line"/>
      <point x="21" y="-46"/>
      <point x="113" y="114"/>
      <point x="169" y="290" type="curve" smooth="yes"/>
      <point x="219" y="448"/>
      <point x="240" y="616"/>
      <point x="215" y="781" type="curve"/>
      <point x="347" y="781" type="line"/>
      <point x="378" y="617"/>
      <point x="364" y="450"/>
      <point x="317" y="290" type="curve" smooth="yes"/>
      <point x="264" y="111"/>
      <point x="171" y="-54"/>
    </contour>
  </outline>
</glyph>
<glyph name="asterisk" format="1">
  <advance width="557"/>
  <unicode hex="002A"/>
  <outline>
    <contour>
      <point x="618" y="603" type="line"/>
      <point x="616" y="467" type="line"/>
      <point x="380" y="426" type="line"/>
      <point x="381" y="501" type="line"/>
    </contour>
    <contour>
      <point x="518" y="309" type="line"/>
      <point x="382" y="226" type="line"/>
      <point x="347" y="447" type="line"/>
      <point x="410" y="485" type="line"/>
    </contour>
    <contour>
      <point x="233" y="231" type="line"/>
      <point x="144" y="320" type="line"/>
      <point x="355" y="484" type="line"/>
      <point x="405" y="437" type="line"/>
    </contour>
    <contour>
      <point x="151" y="471" type="line"/>
      <point x="233" y="602" type="line"/>
      <point x="409" y="494" type="line"/>
      <point x="366" y="428" type="line"/>
    </contour>
    <contour>
      <point x="392" y="700" type="line"/>
      <point x="535" y="699" type="line"/>
      <point x="420" y="464" type="line"/>
      <point x="348" y="463" type="line"/>
    </contour>
  </outline>
</glyph>
<glyph name="plus" format="1">
  <advance width="674"/>
  <unicode hex="002B"/>
  <outline>
    <contour>
      <point x="100" y="196" type="line"/>
      <point x="125" y="342" type="line"/>
      <point x="670" y="342" type="line"/>
      <point x="645" y="196" type="line"/>
    </contour>
    <contour>
      <point x="353" y="540" type="line"/>
      <point x="511" y="540" type="line"/>
      <point x="416" y="-2" type="line"/>
      <point x="258" y="-2" type="line"/>
    </contour>
  </outline>
</glyph>
<glyph name="comma" format="1">
  <advance width="304"/>
  <unicode hex="002C"/>
  <outline>
    <contour>
      <point x="90" y="108" type="line"/>
      <point x="235" y="73" type="line"/>
      <point x="32" y="-171" type="line"/>
      <point x="-81" y="-146" type="line"/>
    </contour>
  </outline>
</glyph>
<glyph name="hyphen" format="1">
  <advance width="208"/>
  <unicode hex="002D"/>
  <outline>
    <contour>
      <point x="6" y="171" type="line"/>
      <point x="52" y="304" type="line"/>
      <point x="259" y="304" type="line"/>
      <point x="212" y="171" type="line"/>
    </contour>
  </outline>
</glyph>
<glyph name="period" format="1">
  <advance width="304"/>
  <unicode hex="002E"/>
  <outline>
    <contour>
      <point x="32" y="69" type="curve" smooth="yes"/>
      <point x="32" y="120"/>
      <point x="72" y="163"/>
      <point x="128" y="163" type="curve" smooth="yes"/>
      <point x="184" y="163"/>
      <point x="224" y="120"/>
      <point x="224" y="69" type="curve" smooth="yes"/>
      <point x="224" y="18"/>
      <point x="184" y="-24"/>
      <point x="128" y="-24" type="curve" smooth="yes"/>
      <point x="72" y="-24"/>
      <point x="32" y="18"/>
    </contour>
  </outline>
</glyph>
<glyph name="slash" format="1">
  <advance width="575"/>
  <unicode hex="002F"/>
  <outline>
    <contour>
      <point x="600" y="699" type="line"/>
      <point x="754" y="699" type="line"/>
      <point x="60" y="-149" type="line"/>
      <point x="-97" y="-149" type="line"/>
    </contour>
  </outline>
</glyph>
<glyph name="zero" format="1">
  <advance width="624"/>
  <unicode hex="0030"/>
  <outline>
    <contour>
      <point x="261" y="350" type="curve" smooth="yes"/>
      <point x="241" y="294"/>
      <point x="195" y="140"/>
      <point x="295" y="136" type="curve" smooth="yes"/>
      <point x="398" y="132"/>
      <point x="466" y="270"/>
      <point x="495" y="350" type="curve" smooth="yes"/>
      <point x="515" y="406"/>
      <point x="561" y="560"/>
      <point x="461" y="564" type="curve" smooth="yes"/>
      <point x="358" y="568"/>
      <point x="290" y="430"/>
    </contour>
    <contour>
      <point x="100" y="350" type="curve" smooth="yes"/>
      <point x="155" y="521"/>
      <point x="294" y="713"/>
      <point x="492" y="713" type="curve" smooth="yes"/>
      <point x="695" y="713"/>
      <point x="705" y="499"/>
      <point x="657" y="350" type="curve" smooth="yes"/>
      <point x="602" y="178"/>
      <point x="463" y="-14"/>
      <point x="264" y="-13" type="curve" smooth="yes"/>
      <point x="63" y="-12"/>
      <point x="52" y="202"/>
    </contour>
  </outline>
</glyph>
<glyph name="one" format="1">
  <advance width="480"/>
  <unicode hex="0031"/>
  <outline>
    <contour>
      <point x="173" y="493" type="line"/>
      <point x="227" y="647" type="line"/>
      <point x="577" y="716" type="line"/>
      <point x="332" y="0" type="line"/>
      <point x="169" y="0" type="line"/>
      <point x="353" y="534" type="line"/>
    </contour>
  </outline>
</glyph>
<glyph name="two" format="1">
  <advance width="620"/>
  <unicode hex="0032"/>
  <outline>
    <contour>
      <point x="-22" y="0" type="line"/>
      <point x="369" y="322" type="line" smooth="yes"/>
      <point x="420" y="364"/>
      <point x="492" y="413"/>
      <point x="510" y="480" type="curve" smooth="yes"/>
      <point x="522" y="523"/>
      <point x="505" y="563"/>
      <point x="457" y="565" type="curve" smooth="yes"/>
      <point x="386" y="569"/>
      <point x="343" y="496"/>
      <point x="317" y="441" type="curve"/>
      <point x="152" y="441" type="line"/>
      <point x="202" y="589"/>
      <point x="325" y="715"/>
      <point x="490" y="714" type="curve" smooth="yes"/>
      <point x="614" y="714"/>
      <point x="719" y="620"/>
      <point x="684" y="490" type="curve" smooth="yes"/>
      <point x="663" y="410"/>
      <point x="600" y="348"/>
      <point x="536" y="300" type="curve" smooth="yes"/>
      <point x="342" y="159" type="line"/>
      <point x="599" y="158" type="line"/>
      <point x="550" y="0" type="line"/>
    </contour>
  </outline>
</glyph>
<glyph name="three" format="1">
  <advance width="586"/>
  <unicode hex="0033"/>
  <outline>
    <contour>
      <point x="330" y="339" type="curve"/>
      <point x="350" y="415" type="line"/>
      <point x="404" y="424"/>
      <point x="489" y="446"/>
      <point x="504" y="509" type="curve" smooth="yes"/>
      <point x="513" y="544"/>
      <point x="495" y="574"/>
      <point x="458" y="575" type="curve" smooth="yes"/>
      <point x="406" y="578"/>
      <point x="370" y="534"/>
      <point x="346" y="494" type="curve"/>
      <point x="190" y="495" type="line"/>
      <point x="236" y="620"/>
      <point x="346" y="713"/>
      <point x="484" y="713" type="curve" smooth="yes"/>
      <point x="595" y="713"/>
      <point x="703" y="641"/>
      <point x="670" y="518" type="curve" smooth="yes"/>
      <point x="630" y="372"/>
      <point x="458" y="343"/>
    </contour>
    <contour>
      <point x="270" y="-16" type="curve" smooth="yes"/>
      <point x="127" y="-15"/>
      <point x="54" y="88"/>
      <point x="75" y="224" type="curve"/>
      <point x="236" y="223" type="line"/>
      <point x="230" y="171"/>
      <point x="239" y="126"/>
      <point x="301" y="123" type="curve" smooth="yes"/>
      <point x="354" y="121"/>
      <point x="411" y="158"/>
      <point x="428" y="209" type="curve" smooth="yes"/>
      <point x="453" y="284"/>
      <point x="376" y="299"/>
      <point x="320" y="305" type="curve"/>
      <point x="344" y="391" type="line"/>
      <point x="465" y="386"/>
      <point x="629" y="348"/>
      <point x="587" y="191" type="curve" smooth="yes"/>
      <point x="551" y="55"/>
      <point x="402" y="-17"/>
    </contour>
  </outline>
</glyph>
<glyph name="four" format="1">
  <advance width="661"/>
  <unicode hex="0034"/>
  <outline>
    <contour>
      <point x="-5" y="125" type="line"/>
      <point x="573" y="699" type="line"/>
      <point x="706" y="700" type="line"/>
      <point x="466" y="0" type="line"/>
      <point x="291" y="0" type="line"/>
      <point x="351" y="175" type="line"/>
      <point x="373" y="186" type="line"/>
      <point x="461" y="436" type="line"/>
      <point x="265" y="249" type="line"/>
      <point x="491" y="248" type="line"/>
      <point x="516" y="270" type="line"/>
      <point x="663" y="270" type="line"/>
      <point x="612" y="124" type="line"/>
    </contour>
  </outline>
</glyph>
<glyph name="five" format="1">
  <advance width="609"/>
  <unicode hex="0035"/>
  <outline>
    <contour>
      <point x="610" y="223" type="curve" smooth="yes"/>
      <point x="570" y="78"/>
      <point x="423" y="-12"/>
      <point x="277" y="-13" type="curve" smooth="yes"/>
      <point x="180" y="-14"/>
      <point x="97" y="22"/>
      <point x="28" y="77" type="curve"/>
      <point x="128" y="218" type="line"/>
      <point x="166" y="178"/>
      <point x="210" y="146"/>
      <point x="271" y="145" type="curve" smooth="yes"/>
      <point x="335" y="145"/>
      <point x="415" y="177"/>
      <point x="435" y="244" type="curve" smooth="yes"/>
      <point x="453" y="305"/>
      <point x="400" y="335"/>
      <point x="346" y="337" type="curve" smooth="yes"/>
      <point x="275" y="340"/>
      <point x="206" y="318"/>
      <point x="140" y="296" type="curve"/>
      <point x="352" y="700" type="line"/>
      <point x="743" y="700" type="line"/>
      <point x="696" y="550" type="line"/>
      <point x="434" y="551" type="line"/>
      <point x="350" y="428" type="line"/>
      <point x="388" y="442"/>
      <point x="427" y="452"/>
      <point x="468" y="451" type="curve" smooth="yes"/>
      <point x="593" y="448"/>
      <point x="640" y="332"/>
    </contour>
  </outline>
</glyph>
<glyph name="six" format="1">
  <advance width="633"/>
  <unicode hex="0036"/>
  <outline>
    <contour>
      <point x="250" y="246" type="curve" smooth="yes"/>
      <point x="232" y="192"/>
      <point x="253" y="134"/>
      <point x="316" y="132" type="curve" smooth="yes"/>
      <point x="382" y="130"/>
      <point x="447" y="187"/>
      <point x="467" y="247" type="curve" smooth="yes"/>
      <point x="485" y="300"/>
      <point x="465" y="361"/>
      <point x="402" y="363" type="curve" smooth="yes"/>
      <point x="336" y="365"/>
      <point x="270" y="306"/>
    </contour>
    <contour>
      <point x="487" y="696" type="line"/>
      <point x="709" y="696" type="line"/>
      <point x="415" y="448" type="line"/>
      <point x="371" y="433" type="line"/>
      <point x="406" y="455"/>
      <point x="443" y="473"/>
      <point x="486" y="473" type="curve" smooth="yes"/>
      <point x="608" y="472"/>
      <point x="659" y="352"/>
      <point x="631" y="246" type="curve" smooth="yes"/>
      <point x="591" y="94"/>
      <point x="443" y="-16"/>
      <point x="287" y="-16" type="curve" smooth="yes"/>
      <point x="137" y="-16"/>
      <point x="45" y="100"/>
      <point x="86" y="246" type="curve" smooth="yes"/>
      <point x="108" y="324"/>
      <point x="163" y="388"/>
      <point x="220" y="443" type="curve" smooth="yes"/>
    </contour>
  </outline>
</glyph>
<glyph name="seven" format="1">
  <advance width="569"/>
  <unicode hex="0037"/>
  <outline>
    <contour>
      <point x="156" y="539" type="line"/>
      <point x="207" y="699" type="line"/>
      <point x="757" y="699" type="line"/>
      <point x="221" y="0" type="line"/>
      <point x="33" y="0" type="line"/>
      <point x="456" y="538" type="line"/>
    </contour>
  </outline>
</glyph>
<glyph name="eight" format="1">
  <advance width="592"/>
  <unicode hex="0038"/>
  <outline>
    <contour>
      <point x="197" y="532" type="curve" smooth="yes"/>
      <point x="232" y="649"/>
      <point x="361" y="716"/>
      <point x="477" y="716" type="curve" smooth="yes"/>
      <point x="584" y="716"/>
      <point x="684" y="647"/>
      <point x="650" y="530" type="curve" smooth="yes"/>
      <point x="616" y="412"/>
      <point x="486" y="342"/>
      <point x="369" y="342" type="curve" smooth="yes"/>
      <point x="261" y="342"/>
      <point x="163" y="415"/>
    </contour>
    <contour>
      <point x="347" y="513" type="curve" smooth="yes"/>
      <point x="336" y="480"/>
      <point x="345" y="438"/>
      <point x="385" y="437" type="curve" smooth="yes"/>
      <point x="433" y="436"/>
      <point x="477" y="479"/>
      <point x="490" y="516" type="curve" smooth="yes"/>
      <point x="502" y="549"/>
      <point x="492" y="591"/>
      <point x="451" y="592" type="curve" smooth="yes"/>
      <point x="402" y="593"/>
      <point x="360" y="551"/>
    </contour>
    <contour>
      <point x="57" y="191" type="curve" smooth="yes"/>
      <point x="95" y="321"/>
      <point x="239" y="396"/>
      <point x="368" y="396" type="curve" smooth="yes"/>
      <point x="486" y="396"/>
      <point x="596" y="318"/>
      <point x="558" y="189" type="curve" smooth="yes"/>
      <point x="520" y="61"/>
      <point x="375" y="-16"/>
      <point x="247" y="-16" type="curve" smooth="yes"/>
      <point x="130" y="-16"/>
      <point x="20" y="64"/>
    </contour>
    <contour>
      <point x="231" y="215" type="curve" smooth="yes"/>
      <point x="216" y="174"/>
      <point x="229" y="126"/>
      <point x="278" y="125" type="curve" smooth="yes"/>
      <point x="336" y="124"/>
      <point x="386" y="171"/>
      <point x="403" y="218" type="curve" smooth="yes"/>
      <point x="416" y="258"/>
      <point x="401" y="304"/>
      <point x="354" y="305" type="curve" smooth="yes"/>
      <point x="298" y="306"/>
      <point x="248" y="259"/>
    </contour>
  </outline>
</glyph>
<glyph name="nine" format="1">
  <advance width="633"/>
  <unicode hex="0039"/>
  <outline>
    <contour>
      <point x="531" y="454" type="curve" smooth="yes"/>
      <point x="549" y="508"/>
      <point x="528" y="566"/>
      <point x="465" y="568" type="curve" smooth="yes"/>
      <point x="399" y="570"/>
      <point x="334" y="513"/>
      <point x="314" y="453" type="curve" smooth="yes"/>
      <point x="296" y="400"/>
      <point x="316" y="339"/>
      <point x="379" y="337" type="curve" smooth="yes"/>
      <point x="445" y="335"/>
      <point x="511" y="394"/>
    </contour>
    <contour>
      <point x="294" y="4" type="line"/>
      <point x="73" y="4" type="line"/>
      <point x="366" y="252" type="line"/>
      <point x="410" y="267" type="line"/>
      <point x="375" y="245"/>
      <point x="338" y="227"/>
      <point x="295" y="227" type="curve" smooth="yes"/>
      <point x="173" y="228"/>
      <point x="122" y="348"/>
      <point x="150" y="454" type="curve" smooth="yes"/>
      <point x="190" y="606"/>
      <point x="338" y="716"/>
      <point x="494" y="716" type="curve" smooth="yes"/>
      <point x="644" y="716"/>
      <point x="736" y="600"/>
      <point x="695" y="454" type="curve" smooth="yes"/>
      <point x="673" y="376"/>
      <point x="618" y="312"/>
      <point x="561" y="257" type="curve" smooth="yes"/>
    </contour>
  </outline>
</glyph>
<glyph name="colon" format="1">
  <advance width="304"/>
  <unicode hex="003A"/>
  <outline>
    <contour>
      <point x="26" y="69" type="curve" smooth="yes"/>
      <point x="26" y="120"/>
      <point x="65" y="163"/>
      <point x="121" y="163" type="curve" smooth="yes"/>
      <point x="177" y="163"/>
      <point x="217" y="120"/>
      <point x="217" y="69" type="curve" smooth="yes"/>
      <point x="217" y="18"/>
      <point x="177" y="-24"/>
      <point x="121" y="-24" type="curve" smooth="yes"/>
      <point x="65" y="-24"/>
      <point x="26" y="18"/>
    </contour>
    <contour>
      <point x="153" y="442" type="curve" smooth="yes"/>
      <point x="153" y="493"/>
      <point x="193" y="536"/>
      <point x="249" y="536" type="curve" smooth="yes"/>
      <point x="305" y="536"/>
      <point x="344" y="493"/>
      <point x="344" y="442" type="curve" smooth="yes"/>
      <point x="344" y="391"/>
      <point x="305" y="348"/>
      <point x="249" y="348" type="curve" smooth="yes"/>
      <point x="193" y="348"/>
      <point x="153" y="391"/>
    </contour>
  </outline>
</glyph>
<glyph name="semicolon" format="1">
  <advance width="371"/>
  <unicode hex="003B"/>
  <outline>
    <contour>
      <point x="201" y="436" type="curve" smooth="yes"/>
      <point x="201" y="487"/>
      <point x="241" y="529"/>
      <point x="297" y="529" type="curve" smooth="yes"/>
      <point x="353" y="529"/>
      <point x="392" y="487"/>
      <point x="392" y="436" type="curve" smooth="yes"/>
      <point x="392" y="385"/>
      <point x="353" y="342"/>
      <point x="297" y="342" type="curve" smooth="yes"/>
      <point x="241" y="342"/>
      <point x="201" y="385"/>
    </contour>
    <contour>
      <point x="111" y="108" type="line"/>
      <point x="256" y="73" type="line"/>
      <point x="53" y="-171" type="line"/>
      <point x="-59" y="-146" type="line"/>
    </contour>
  </outline>
</glyph>
<glyph name="less" format="1">
  <advance width="602"/>
  <unicode hex="003C"/>
  <outline>
    <contour>
      <point x="304" y="260" type="line"/>
      <point x="540" y="141" type="line"/>
      <point x="489" y="1" type="line"/>
      <point x="78" y="216" type="line"/>
      <point x="113" y="318" type="line"/>
      <point x="674" y="534" type="line"/>
      <point x="617" y="371" type="line"/>
    </contour>
  </outline>
</glyph>
<glyph name="equal" format="1">
  <advance width="588"/>
  <unicode hex="003D"/>
  <outline>
    <contour>
      <point x="23" y="82" type="line"/>
      <point x="70" y="215" type="line"/>
      <point x="561" y="215" type="line"/>
      <point x="514" y="81" type="line"/>
    </contour>
    <contour>
      <point x="94" y="290" type="line"/>
      <point x="141" y="424" type="line"/>
      <point x="632" y="424" type="line"/>
      <point x="586" y="290" type="line"/>
    </contour>
  </outline>
</glyph>
<glyph name="greater" format="1">
  <advance width="602"/>
  <unicode hex="003E"/>
  <outline>
    <contour>
      <point x="370" y="268" type="line"/>
      <point x="134" y="387" type="line"/>
      <point x="184" y="527" type="line"/>
      <point x="596" y="312" type="line"/>
      <point x="561" y="210" type="line"/>
      <point x="1" y="-6" type="line"/>
      <point x="56" y="157" type="line"/>
    </contour>
  </outline>
</glyph>
<glyph name="question" format="1">
  <advance width="591"/>
  <unicode hex="003F"/>
  <outline>
    <contour>
      <point x="512" y="501" type="curve" smooth="yes"/>
      <point x="530" y="553"/>
      <point x="498" y="586"/>
      <point x="446" y="588" type="curve" smooth="yes"/>
      <point x="378" y="591"/>
      <point x="316" y="545"/>
      <point x="267" y="503" type="curve"/>
      <point x="189" y="593" type="line"/>
      <point x="272" y="662"/>
      <point x="370" y="720"/>
      <point x="482" y="719" type="curve" smooth="yes"/>
      <point x="605" y="718"/>
      <point x="700" y="625"/>
      <point x="662" y="499" type="curve" smooth="yes"/>
      <point x="625" y="378"/>
      <point x="507" y="313"/>
      <point x="392" y="285" type="curve"/>
      <point x="358" y="203" type="line"/>
      <point x="231" y="203" type="line"/>
      <point x="270" y="381" type="line"/>
      <point x="299" y="381" type="line"/>
      <point x="375" y="385"/>
      <point x="485" y="421"/>
    </contour>
    <contour>
      <point x="145" y="61" type="curve" smooth="yes"/>
      <point x="145" y="108"/>
      <point x="187" y="143"/>
      <point x="237" y="143" type="curve" smooth="yes"/>
      <point x="288" y="143"/>
      <point x="330" y="108"/>
      <point x="330" y="61" type="curve" smooth="yes"/>
      <point x="330" y="13"/>
      <point x="287" y="-24"/>
      <point x="237" y="-24" type="curve" smooth="yes"/>
      <point x="186" y="-24"/>
      <point x="145" y="12"/>
    </contour>
  </outline>
</glyph>
<glyph name="at" format="1">
  <advance width="770"/>
  <unicode hex="0040"/>
  <outline>
    <contour>
      <point x="372" y="320" type="curve" smooth="yes"/>
      <point x="364" y="276"/>
      <point x="377" y="252"/>
      <point x="405" y="252" type="curve" smooth="yes"/>
      <point x="439" y="252"/>
      <point x="487" y="296"/>
      <point x="499" y="364" type="curve" smooth="yes"/>
      <point x="507" y="410"/>
      <point x="493" y="435"/>
      <point x="465" y="435" type="curve" smooth="yes"/>
      <point x="425" y="435"/>
      <point x="383" y="381"/>
    </contour>
    <contour>
      <point x="247" y="312" type="curve" smooth="yes"/>
      <point x="272" y="451"/>
      <point x="377" y="530"/>
      <point x="455" y="530" type="curve" smooth="yes"/>
      <point x="527" y="530"/>
      <point x="553" y="461"/>
      <point x="538" y="375" type="curve" smooth="yes"/>
      <point x="513" y="236"/>
      <point x="437" y="154"/>
      <point x="355" y="154" type="curve" smooth="yes"/>
      <point x="275" y="154"/>
      <point x="230" y="213"/>
    </contour>
    <contour>
      <point x="66" y="320" type="curve" smooth="yes"/>
      <point x="106" y="546"/>
      <point x="313" y="724"/>
      <point x="543" y="724" type="curve" smooth="yes"/>
      <point x="752" y="724"/>
      <point x="858" y="556"/>
      <point x="829" y="390" type="curve" smooth="yes"/>
      <point x="798" y="212"/>
      <point x="674" y="134"/>
      <point x="580" y="134" type="curve" smooth="yes"/>
      <point x="510" y="134"/>
      <point x="467" y="193"/>
      <point x="489" y="259" type="curve"/>
      <point x="486" y="295" type="line"/>
      <point x="552" y="520" type="line"/>
      <point x="671" y="520" type="line"/>
      <point x="602" y="304" type="line" smooth="yes"/>
      <point x="600" y="297"/>
      <point x="596" y="286"/>
      <point x="595" y="278" type="curve" smooth="yes"/>
      <point x="591" y="254"/>
      <point x="595" y="241"/>
      <point x="613" y="241" type="curve" smooth="yes"/>
      <point x="637" y="241"/>
      <point x="688" y="273"/>
      <point x="709" y="390" type="curve" smooth="yes"/>
      <point x="731" y="516"/>
      <point x="674" y="625"/>
      <point x="525" y="625" type="curve" smooth="yes"/>
      <point x="349" y="625"/>
      <point x="217" y="496"/>
      <point x="186" y="320" type="curve" smooth="yes"/>
      <point x="160" y="170"/>
      <point x="220" y="66"/>
      <point x="382" y="66" type="curve" smooth="yes"/>
      <point x="452" y="66"/>
      <point x="521" y="77"/>
      <point x="585" y="109" type="curve"/>
      <point x="622" y="26" type="line"/>
      <point x="556" y="-8"/>
      <point x="462" y="-28"/>
      <point x="360" y="-28" type="curve" smooth="yes"/>
      <point x="134" y="-28"/>
      <point x="31" y="121"/>
    </contour>
  </outline>
</glyph>
<glyph name="A" format="1">
  <advance width="693"/>
  <unicode hex="0041"/>
  <outline>
    <contour>
      <point x="163" y="132" type="line"/>
      <point x="218" y="262" type="line"/>
      <point x="552" y="262" type="line"/>
      <point x="516" y="132" type="line"/>
    </contour>
    <contour>
      <point x="443" y="438" type="line"/>
      <point x="279" y="215" type="line"/>
      <point x="275" y="175" type="line"/>
      <point x="134" y="0" type="line"/>
      <point x="-63" y="0" type="line"/>
      <point x="545" y="749" type="line"/>
      <point x="640" y="0" type="line"/>
      <point x="459" y="0" type="line"/>
      <point x="443" y="170" type="line"/>
      <point x="459" y="214" type="line"/>
    </contour>
  </outline>
</glyph>
<glyph name="B" format="1">
  <advance width="628"/>
  <unicode hex="0042"/>
  <outline>
    <contour>
      <point x="252" y="348" type="line"/>
      <point x="278" y="422" type="line"/>
      <point x="378" y="422" type="line" smooth="yes"/>
      <point x="424" y="422"/>
      <point x="479" y="449"/>
      <point x="496" y="497" type="curve" smooth="yes"/>
      <point x="512" y="541"/>
      <point x="484" y="565"/>
      <point x="443" y="566" type="curve" smooth="yes"/>
      <point x="376" y="566" type="line"/>
      <point x="224" y="133" type="line"/>
      <point x="294" y="133" type="line" smooth="yes"/>
      <point x="351" y="135"/>
      <point x="420" y="162"/>
      <point x="440" y="222" type="curve" smooth="yes"/>
      <point x="458" y="277"/>
      <point x="416" y="299"/>
      <point x="368" y="301" type="curve" smooth="yes"/>
      <point x="236" y="302" type="line"/>
      <point x="269" y="396" type="line"/>
      <point x="402" y="396" type="line" smooth="yes"/>
      <point x="519" y="395"/>
      <point x="642" y="332"/>
      <point x="603" y="196" type="curve" smooth="yes"/>
      <point x="563" y="56"/>
      <point x="420" y="0"/>
      <point x="287" y="0" type="curve" smooth="yes"/>
      <point x="12" y="0" type="line"/>
      <point x="252" y="700" type="line"/>
      <point x="489" y="700" type="line" smooth="yes"/>
      <point x="593" y="700"/>
      <point x="714" y="647"/>
      <point x="677" y="521" type="curve" smooth="yes"/>
      <point x="641" y="399"/>
      <point x="505" y="349"/>
      <point x="389" y="348" type="curve" smooth="yes"/>
    </contour>
  </outline>
</glyph>
<glyph name="C" format="1">
  <advance width="659"/>
  <unicode hex="0043"/>
  <outline>
    <contour>
      <point x="276" y="350" type="curve" smooth="yes"/>
      <point x="240" y="252"/>
      <point x="277" y="152"/>
      <point x="391" y="149" type="curve" smooth="yes"/>
      <point x="477" y="147"/>
      <point x="556" y="192"/>
      <point x="625" y="238" type="curve"/>
      <point x="570" y="54" type="line"/>
      <point x="501" y="13"/>
      <point x="426" y="-16"/>
      <point x="345" y="-16" type="curve" smooth="yes"/>
      <point x="138" y="-15"/>
      <point x="34" y="160"/>
      <point x="94" y="350" type="curve" smooth="yes"/>
      <point x="158" y="554"/>
      <point x="358" y="715"/>
      <point x="575" y="716" type="curve" smooth="yes"/>
      <point x="649" y="716"/>
      <point x="710" y="692"/>
      <point x="766" y="645" type="curve"/>
      <point x="709" y="460" type="line"/>
      <point x="671" y="518"/>
      <point x="620" y="551"/>
      <point x="548" y="551" type="curve" smooth="yes"/>
      <point x="429" y="550"/>
      <point x="317" y="459"/>
    </contour>
  </outline>
</glyph>
<glyph name="D" format="1">
  <advance width="690"/>
  <unicode hex="0044"/>
  <outline>
    <contour>
      <point x="251" y="700" type="line"/>
      <point x="426" y="700" type="line"/>
      <point x="185" y="0" type="line"/>
      <point x="13" y="0" type="line"/>
    </contour>
    <contour>
      <point x="262" y="0" type="curve" smooth="yes"/>
      <point x="120" y="0" type="line"/>
      <point x="174" y="153" type="line"/>
      <point x="289" y="153" type="line" smooth="yes"/>
      <point x="411" y="153"/>
      <point x="512" y="236"/>
      <point x="555" y="350" type="curve" smooth="yes"/>
      <point x="594" y="454"/>
      <point x="559" y="547"/>
      <point x="442" y="547" type="curve" smooth="yes"/>
      <point x="306" y="547" type="line"/>
      <point x="360" y="700" type="line"/>
      <point x="481" y="700" type="line" smooth="yes"/>
      <point x="683" y="700"/>
      <point x="789" y="543"/>
      <point x="728" y="350" type="curve" smooth="yes"/>
      <point x="664" y="146"/>
      <point x="475" y="0"/>
    </contour>
  </outline>
</glyph>
<glyph name="E" format="1">
  <advance width="569"/>
  <unicode hex="0045"/>
  <outline>
    <contour>
      <point x="121" y="0" type="line"/>
      <point x="170" y="142" type="line"/>
      <point x="508" y="142" type="line"/>
      <point x="458" y="0" type="line"/>
    </contour>
    <contour>
      <point x="312" y="558" type="line"/>
      <point x="361" y="700" type="line"/>
      <point x="698" y="700" type="line"/>
      <point x="649" y="558" type="line"/>
    </contour>
    <contour>
      <point x="222" y="298" type="line"/>
      <point x="271" y="436" type="line"/>
      <point x="589" y="436" type="line"/>
      <point x="541" y="298" type="line"/>
    </contour>
    <contour>
      <point x="251" y="700" type="line"/>
      <point x="414" y="700" type="line"/>
      <point x="173" y="0" type="line"/>
      <point x="13" y="0" type="line"/>
    </contour>
  </outline>
</glyph>
<glyph name="F" format="1">
  <advance width="522"/>
  <unicode hex="0046"/>
  <outline>
    <contour>
      <point x="309" y="552" type="line"/>
      <point x="361" y="700" type="line"/>
      <point x="660" y="700" type="line"/>
      <point x="609" y="552" type="line"/>
    </contour>
    <contour>
      <point x="216" y="279" type="line"/>
      <point x="264" y="417" type="line"/>
      <point x="555" y="417" type="line"/>
      <point x="506" y="278" type="line"/>
    </contour>
    <contour>
      <point x="251" y="700" type="line"/>
      <point x="414" y="700" type="line"/>
      <point x="173" y="0" type="line"/>
      <point x="13" y="0" type="line"/>
    </contour>
  </outline>
</glyph>
<glyph name="G" format="1">
  <advance width="766"/>
  <unicode hex="0047"/>
  <outline>
    <contour>
      <point x="424" y="252" type="line"/>
      <point x="471" y="383" type="line"/>
      <point x="806" y="383" type="line"/>
      <point x="746" y="174"/>
      <point x="593" y="-23"/>
      <point x="348" y="-23" type="curve" smooth="yes"/>
      <point x="138" y="-23"/>
      <point x="34" y="161"/>
      <point x="94" y="350" type="curve" smooth="yes"/>
      <point x="159" y="555"/>
      <point x="361" y="717"/>
      <point x="579" y="717" type="curve" smooth="yes"/>
      <point x="699" y="717"/>
      <point x="783" y="653"/>
      <point x="833" y="547" type="curve"/>
      <point x="666" y="471" type="line"/>
      <point x="647" y="529"/>
      <point x="612" y="565"/>
      <point x="548" y="565" type="curve" smooth="yes"/>
      <point x="423" y="565"/>
      <point x="311" y="461"/>
      <point x="269" y="350" type="curve" smooth="yes"/>
      <point x="232" y="251"/>
      <point x="254" y="128"/>
      <point x="379" y="128" type="curve" smooth="yes"/>
      <point x="473" y="128"/>
      <point x="535" y="179"/>
      <point x="586" y="252" type="curve"/>
    </contour>
  </outline>
</glyph>
<glyph name="I" format="1">
  <advance width="303"/>
  <unicode hex="0049"/>
  <outline>
    <contour>
      <point x="251" y="700" type="line"/>
      <point x="423" y="700" type="line"/>
      <point x="182" y="0" type="line"/>
      <point x="13" y="0" type="line"/>
    </contour>
  </outline>
</glyph>
<glyph name="J" format="1">
  <advance width="314"/>
  <unicode hex="004A"/>
  <outline>
    <contour>
      <point x="-152" y="-63" type="line"/>
      <point x="-134" y="-79"/>
      <point x="-114" y="-96"/>
      <point x="-88" y="-95" type="curve" smooth="yes"/>
      <point x="-44" y="-93"/>
      <point x="-7" y="-52"/>
      <point x="6" y="-14" type="curve" smooth="yes"/>
      <point x="252" y="700" type="line"/>
      <point x="434" y="700" type="line"/>
      <point x="177" y="-54" type="line" smooth="yes"/>
      <point x="135" y="-172"/>
      <point x="22" y="-240"/>
      <point x="-102" y="-239" type="curve" smooth="yes"/>
      <point x="-167" y="-239"/>
      <point x="-222" y="-216"/>
      <point x="-275" y="-180" type="curve"/>
    </contour>
  </outline>
</glyph>
<glyph name="K" format="1">
  <advance width="662"/>
  <unicode hex="004B"/>
  <outline>
    <contour>
      <point x="251" y="700" type="line"/>
      <point x="426" y="700" type="line"/>
      <point x="186" y="0" type="line"/>
      <point x="13" y="0" type="line"/>
    </contour>
    <contour>
      <point x="637" y="699" type="line"/>
      <point x="845" y="699" type="line"/>
      <point x="456" y="365" type="line"/>
      <point x="607" y="0" type="line"/>
      <point x="418" y="0" type="line"/>
      <point x="262" y="375" type="line"/>
    </contour>
  </outline>
</glyph>
<glyph name="L" format="1">
  <advance width="499"/>
  <unicode hex="004C"/>
  <outline>
    <contour>
      <point x="252" y="700" type="line"/>
      <point x="420" y="700" type="line"/>
      <point x="231" y="148" type="line"/>
      <point x="496" y="148" type="line"/>
      <point x="444" y="0" type="line"/>
      <point x="12" y="0" type="line"/>
    </contour>
  </outline>
</glyph>
<glyph name="M" format="1">
  <advance width="841"/>
  <unicode hex="004D"/>
  <outline>
    <contour>
      <point x="313" y="350" type="line"/>
      <point x="152" y="0" type="line"/>
      <point x="-28" y="0" type="line"/>
      <point x="333" y="735" type="line"/>
      <point x="468" y="315" type="line"/>
      <point x="904" y="745" type="line"/>
      <point x="757" y="0" type="line"/>
      <point x="581" y="0" type="line"/>
      <point x="662" y="338" type="line"/>
      <point x="393" y="62" type="line"/>
    </contour>
  </outline>
</glyph>
<glyph name="P" format="1">
  <advance width="588"/>
  <unicode hex="0050"/>
  <outline>
    <contour>
      <point x="251" y="700" type="line"/>
      <point x="420" y="700" type="line"/>
      <point x="179" y="0" type="line"/>
      <point x="13" y="0" type="line"/>
    </contour>
    <contour>
      <point x="306" y="559" type="line"/>
      <point x="354" y="700" type="line"/>
      <point x="475" y="700" type="line"/>
      <point x="612" y="697"/>
      <point x="698" y="614"/>
      <point x="667" y="470" type="curve" smooth="yes"/>
      <point x="635" y="321"/>
      <point x="485" y="244"/>
      <point x="338" y="241" type="curve"/>
      <point x="196" y="241" type="line"/>
      <point x="246" y="383" type="line"/>
      <point x="367" y="383" type="line"/>
      <point x="423" y="384"/>
      <point x="485" y="414"/>
      <point x="506" y="471" type="curve" smooth="yes"/>
      <point x="525" y="523"/>
      <point x="495" y="557"/>
      <point x="444" y="558" type="curve" smooth="yes"/>
    </contour>
  </outline>
</glyph>
<glyph name="Q" format="1">
  <advance width="814"/>
  <unicode hex="0051"/>
  <outline>
    <contour>
      <point x="271" y="350" type="curve" smooth="yes"/>
      <point x="235" y="253"/>
      <point x="260" y="132"/>
      <point x="383" y="130" type="curve" smooth="yes"/>
      <point x="502" y="128"/>
      <point x="605" y="225"/>
      <point x="645" y="330" type="curve" smooth="yes"/>
      <point x="682" y="427"/>
      <point x="662" y="554"/>
      <point x="536" y="557" type="curve" smooth="yes"/>
      <point x="417" y="559"/>
      <point x="311" y="455"/>
    </contour>
    <contour>
      <point x="94" y="350" type="curve" smooth="yes"/>
      <point x="157" y="550"/>
      <point x="357" y="718"/>
      <point x="570" y="717" type="curve" smooth="yes"/>
      <point x="776" y="716"/>
      <point x="869" y="534"/>
      <point x="811" y="350" type="curve" smooth="yes"/>
      <point x="748" y="150"/>
      <point x="554" y="-24"/>
      <point x="338" y="-23" type="curve" smooth="yes"/>
      <point x="129" y="-22"/>
      <point x="36" y="164"/>
    </contour>
    <contour>
      <point x="388" y="300" type="line"/>
      <point x="545" y="300" type="line"/>
      <point x="757" y="-13" type="line"/>
      <point x="595" y="-13" type="line"/>
    </contour>
  </outline>
</glyph>
<glyph name="S" format="1">
  <advance width="591"/>
  <unicode hex="0053"/>
  <outline>
    <contour>
      <point x="171" y="252" type="line"/>
      <point x="187" y="192"/>
      <point x="212" y="128"/>
      <point x="286" y="128" type="curve" smooth="yes"/>
      <point x="329" y="128"/>
      <point x="378" y="153"/>
      <point x="395" y="195" type="curve" smooth="yes"/>
      <point x="418" y="254"/>
      <point x="346" y="280"/>
      <point x="305" y="300" type="curve" smooth="yes"/>
      <point x="217" y="342"/>
      <point x="159" y="417"/>
      <point x="189" y="518" type="curve" smooth="yes"/>
      <point x="227" y="643"/>
      <point x="365" y="717"/>
      <point x="490" y="716" type="curve" smooth="yes"/>
      <point x="593" y="715"/>
      <point x="658" y="655"/>
      <point x="686" y="560" type="curve"/>
      <point x="544" y="489" type="line"/>
      <point x="528" y="531"/>
      <point x="507" y="569"/>
      <point x="456" y="569" type="curve" smooth="yes"/>
      <point x="420" y="569"/>
      <point x="372" y="546"/>
      <point x="358" y="511" type="curve" smooth="yes"/>
      <point x="335" y="455"/>
      <point x="432" y="431"/>
      <point x="467" y="414" type="curve" smooth="yes"/>
      <point x="557" y="373"/>
      <point x="600" y="292"/>
      <point x="571" y="196" type="curve" smooth="yes"/>
      <point x="530" y="62"/>
      <point x="392" y="-24"/>
      <point x="255" y="-23" type="curve" smooth="yes"/>
      <point x="136" y="-22"/>
      <point x="56" y="57"/>
      <point x="32" y="169" type="curve"/>
    </contour>
  </outline>
</glyph>
<glyph name="T" format="1">
  <advance width="561"/>
  <unicode hex="0054"/>
  <outline>
    <contour>
      <point x="101" y="548" type="line"/>
      <point x="127" y="700" type="line"/>
      <point x="681" y="700" type="line"/>
      <point x="655" y="548" type="line"/>
      <point x="463" y="548" type="line"/>
      <point x="366" y="0" type="line"/>
      <point x="196" y="0" type="line"/>
      <point x="293" y="548" type="line"/>
    </contour>
  </outline>
</glyph>
<glyph name="V" format="1">
  <advance width="735"/>
  <unicode hex="0056"/>
  <outline>
    <contour>
      <point x="418" y="283" type="line"/>
      <point x="661" y="700" type="line"/>
      <point x="859" y="700" type="line"/>
      <point x="360" y="-44" type="line"/>
      <point x="121" y="700" type="line"/>
      <point x="320" y="700" type="line"/>
    </contour>
  </outline>
</glyph>
<glyph name="W" format="1">
  <advance width="1065"/>
  <unicode hex="0057"/>
  <outline>
    <contour>
      <point x="401" y="159" type="line"/>
      <point x="300" y="-42" type="line"/>
      <point x="127" y="700" type="line"/>
      <point x="328" y="700" type="line"/>
    </contour>
    <contour>
      <point x="751" y="-42" type="line"/>
      <point x="720" y="159" type="line"/>
      <point x="983" y="700" type="line"/>
      <point x="1184" y="700" type="line"/>
    </contour>
    <contour>
      <point x="300" y="-42" type="line"/>
      <point x="315" y="177" type="line"/>
      <point x="662" y="735" type="line"/>
      <point x="811" y="177" type="line"/>
      <point x="751" y="-42" type="line"/>
      <point x="599" y="380" type="line"/>
    </contour>
  </outline>
</glyph>
<glyph name="X" format="1">
  <advance width="650"/>
  <unicode hex="0058"/>
  <outline>
    <contour>
      <point x="608" y="699" type="line"/>
      <point x="822" y="699" type="line"/>
      <point x="502" y="351" type="line"/>
      <point x="610" y="0" type="line"/>
      <point x="414" y="0" type="line"/>
      <point x="368" y="225" type="line"/>
      <point x="176" y="0" type="line"/>
      <point x="-38" y="0" type="line"/>
      <point x="307" y="366" type="line"/>
      <point x="211" y="700" type="line"/>
      <point x="408" y="700" type="line"/>
      <point x="444" y="504" type="line"/>
    </contour>
  </outline>
</glyph>
<glyph name="Y" format="1">
  <advance width="624"/>
  <unicode hex="0059"/>
  <outline>
    <contour>
      <point x="618" y="699" type="line"/>
      <point x="819" y="699" type="line"/>
      <point x="439" y="276" type="line"/>
      <point x="344" y="0" type="line"/>
      <point x="172" y="0" type="line"/>
      <point x="274" y="293" type="line"/>
      <point x="186" y="700" type="line"/>
      <point x="369" y="700" type="line"/>
      <point x="405" y="445" type="line"/>
    </contour>
  </outline>
</glyph>
<glyph name="Z" format="1">
  <advance width="620"/>
  <unicode hex="005A"/>
  <outline>
    <contour>
      <point x="154" y="548" type="line"/>
      <point x="180" y="700" type="line"/>
      <point x="729" y="700" type="line"/>
      <point x="300" y="146" type="line"/>
      <point x="596" y="146" type="line"/>
      <point x="570" y="0" type="line"/>
      <point x="8" y="0" type="line"/>
      <point x="433" y="548" type="line"/>
    </contour>
  </outline>
</glyph>
<glyph name="bracketleft" format="1">
  <advance width="342"/>
  <unicode hex="005B"/>
  <outline>
    <contour>
      <point x="398" y="646" type="line"/>
      <point x="172" y="-86" type="line"/>
      <point x="267" y="-86" type="line"/>
      <point x="225" y="-220" type="line"/>
      <point x="-20" y="-220" type="line"/>
      <point x="289" y="780" type="line"/>
      <point x="534" y="780" type="line"/>
      <point x="492" y="647" type="line"/>
    </contour>
  </outline>
</glyph>
<glyph name="backslash" format="1">
  <advance width="514"/>
  <unicode hex="005C"/>
  <outline>
    <contour>
      <point x="200" y="700" type="line"/>
      <point x="339" y="700" type="line"/>
      <point x="445" y="0" type="line"/>
      <point x="308" y="0" type="line"/>
    </contour>
  </outline>
</glyph>
<glyph name="bracketright" format="1">
  <advance width="362"/>
  <unicode hex="005D"/>
  <outline>
    <contour>
      <point x="105" y="-88" type="line"/>
      <point x="235" y="648" type="line"/>
      <point x="134" y="648" type="line"/>
      <point x="158" y="780" type="line"/>
      <point x="410" y="780" type="line"/>
      <point x="233" y="-220" type="line"/>
      <point x="-19" y="-220" type="line"/>
      <point x="4" y="-88" type="line"/>
    </contour>
  </outline>
</glyph>
<glyph name="asciicircum" format="1">
  <advance width="479"/>
  <unicode hex="005E"/>
  <outline>
    <contour>
      <point x="388" y="574" type="line"/>
      <point x="272" y="448" type="line"/>
      <point x="127" y="448" type="line"/>
      <point x="378" y="709" type="line"/>
      <point x="468" y="710" type="line"/>
      <point x="539" y="447" type="line"/>
      <point x="414" y="447" type="line"/>
    </contour>
  </outline>
</glyph>
<glyph name="underscore" format="1">
  <advance width="500"/>
  <unicode hex="005F"/>
  <outline>
    <contour>
      <point x="-110" y="-154" type="line"/>
      <point x="-76" y="-57" type="line"/>
      <point x="430" y="-57" type="line"/>
      <point x="396" y="-154" type="line"/>
    </contour>
  </outline>
</glyph>
<glyph name="grave" format="1">
  <advance width="352"/>
  <unicode hex="0060"/>
  <outline>
    <contour>
      <point x="217" y="658" type="line"/>
      <point x="337" y="707" type="line"/>
      <point x="434" y="542" type="line"/>
      <point x="346" y="504" type="line"/>
    </contour>
  </outline>
</glyph>
<glyph name="a" format="1">
  <advance width="513"/>
  <unicode hex="0061"/>
  <outline>
    <contour>
      <point x="161" y="136" type="curve" smooth="yes"/>
      <point x="154" y="108"/>
      <point x="175" y="93"/>
      <point x="199" y="91" type="curve" smooth="yes"/>
      <point x="261" y="86"/>
      <point x="303" y="139"/>
      <point x="333" y="186" type="curve"/>
      <point x="332" y="128" type="line"/>
      <point x="294" y="47"/>
      <point x="225" y="-9"/>
      <point x="132" y="-9" type="curve" smooth="yes"/>
      <point x="49" y="-9"/>
      <point x="-15" y="46"/>
      <point x="10" y="132" type="curve" smooth="yes"/>
      <point x="39" y="229"/>
      <point x="146" y="278"/>
      <point x="241" y="278" type="curve" smooth="yes"/>
      <point x="295" y="278"/>
      <point x="340" y="263"/>
      <point x="381" y="229" type="curve"/>
      <point x="360" y="159" type="line"/>
      <point x="331" y="182"/>
      <point x="303" y="196"/>
      <point x="264" y="195" type="curve" smooth="yes"/>
      <point x="224" y="194"/>
      <point x="170" y="176"/>
    </contour>
    <contour>
      <point x="169" y="316" type="curve"/>
      <point x="148" y="423" type="line"/>
      <point x="215" y="450"/>
      <point x="286" y="473"/>
      <point x="359" y="473" type="curve" smooth="yes"/>
      <point x="449" y="473"/>
      <point x="550" y="428"/>
      <point x="522" y="323" type="curve"/>
      <point x="412" y="0" type="line"/>
      <point x="266" y="0" type="line"/>
      <point x="372" y="293" type="line"/>
      <point x="382" y="329"/>
      <point x="362" y="350"/>
      <point x="323" y="354" type="curve" smooth="yes"/>
      <point x="271" y="359"/>
      <point x="216" y="335"/>
    </contour>
  </outline>
</glyph>
<glyph name="b" format="1">
  <advance width="581"/>
  <unicode hex="0062"/>
  <outline>
    <contour>
      <point x="415" y="780" type="line"/>
      <point x="147" y="0" type="line"/>
      <point x="-4" y="0" type="line"/>
      <point x="263" y="780" type="line"/>
    </contour>
    <contour>
      <point x="579" y="229" type="curve" smooth="yes"/>
      <point x="543" y="110"/>
      <point x="431" y="-11"/>
      <point x="299" y="-10" type="curve" smooth="yes"/>
      <point x="167" y="-9"/>
      <point x="152" y="130"/>
      <point x="183" y="231" type="curve" smooth="yes"/>
      <point x="218" y="345"/>
      <point x="314" y="469"/>
      <point x="444" y="469" type="curve" smooth="yes"/>
      <point x="577" y="469"/>
      <point x="612" y="337"/>
    </contour>
    <contour>
      <point x="424" y="231" type="curve" smooth="yes"/>
      <point x="442" y="279"/>
      <point x="430" y="343"/>
      <point x="369" y="345" type="curve" smooth="yes"/>
      <point x="306" y="347"/>
      <point x="247" y="283"/>
      <point x="226" y="229" type="curve" smooth="yes"/>
      <point x="209" y="183"/>
      <point x="215" y="118"/>
      <point x="275" y="115" type="curve" smooth="yes"/>
      <point x="339" y="112"/>
      <point x="403" y="176"/>
    </contour>
  </outline>
</glyph>
<glyph name="c" format="1">
  <advance width="464"/>
  <unicode hex="0063"/>
  <outline>
    <contour>
      <point x="215" y="229" type="curve" smooth="yes"/>
      <point x="195" y="172"/>
      <point x="221" y="117"/>
      <point x="285" y="114" type="curve" smooth="yes"/>
      <point x="342" y="111"/>
      <point x="394" y="146"/>
      <point x="437" y="179" type="curve"/>
      <point x="398" y="30" type="line"/>
      <point x="352" y="6"/>
      <point x="304" y="-10"/>
      <point x="251" y="-10" type="curve" smooth="yes"/>
      <point x="115" y="-10"/>
      <point x="25" y="97"/>
      <point x="62" y="231" type="curve" smooth="yes"/>
      <point x="100" y="370"/>
      <point x="239" y="470"/>
      <point x="382" y="470" type="curve" smooth="yes"/>
      <point x="432" y="470"/>
      <point x="475" y="456"/>
      <point x="516" y="430" type="curve"/>
      <point x="475" y="280" type="line"/>
      <point x="453" y="320"/>
      <point x="422" y="347"/>
      <point x="373" y="347" type="curve" smooth="yes"/>
      <point x="299" y="347"/>
      <point x="237" y="292"/>
    </contour>
  </outline>
</glyph>
<glyph name="e" format="1">
  <advance width="541"/>
  <unicode hex="0065"/>
  <outline>
    <contour>
      <point x="139" y="198" type="line"/>
      <point x="164" y="281" type="line"/>
      <point x="411" y="281" type="line"/>
      <point x="418" y="321"/>
      <point x="406" y="365"/>
      <point x="357" y="366" type="curve" smooth="yes"/>
      <point x="291" y="367"/>
      <point x="248" y="305"/>
      <point x="224" y="253" type="curve" smooth="yes"/>
      <point x="214" y="229" type="line"/>
      <point x="196" y="177"/>
      <point x="196" y="107"/>
      <point x="264" y="102" type="curve" smooth="yes"/>
      <point x="312" y="98"/>
      <point x="354" y="130"/>
      <point x="388" y="159" type="curve"/>
      <point x="517" y="124" type="line"/>
      <point x="448" y="45"/>
      <point x="358" y="-11"/>
      <point x="250" y="-10" type="curve" smooth="yes"/>
      <point x="111" y="-9"/>
      <point x="29" y="95"/>
      <point x="64" y="230" type="curve" smooth="yes"/>
      <point x="68" y="247"/>
      <point x="74" y="263"/>
      <point x="81" y="279" type="curve" smooth="yes"/>
      <point x="133" y="394"/>
      <point x="250" y="470"/>
      <point x="376" y="470" type="curve" smooth="yes"/>
      <point x="515" y="470"/>
      <point x="583" y="369"/>
      <point x="551" y="237" type="curve" smooth="yes"/>
      <point x="548" y="224"/>
      <point x="544" y="211"/>
      <point x="540" y="198" type="curve"/>
    </contour>
  </outline>
</glyph>
<glyph name="f" format="1">
  <advance width="325"/>
  <unicode hex="0066"/>
  <outline>
    <contour>
      <point x="117" y="460" type="line"/>
      <point x="421" y="460" type="line"/>
      <point x="377" y="333" type="line"/>
      <point x="72" y="333" type="line"/>
    </contour>
    <contour>
      <point x="468" y="634" type="line"/>
      <point x="460" y="645"/>
      <point x="451" y="658"/>
      <point x="434" y="659" type="curve" smooth="yes"/>
      <point x="399" y="659"/>
      <point x="372" y="618"/>
      <point x="362" y="590" type="curve" smooth="yes"/>
      <point x="158" y="0" type="line"/>
      <point x="13" y="0" type="line"/>
      <point x="227" y="631" type="line" smooth="yes"/>
      <point x="261" y="723"/>
      <point x="341" y="798"/>
      <point x="445" y="796" type="curve" smooth="yes"/>
      <point x="493" y="796"/>
      <point x="526" y="774"/>
      <point x="559" y="742" type="curve"/>
    </contour>
  </outline>
</glyph>
<glyph name="g" format="1">
  <advance width="575"/>
  <unicode hex="0067"/>
  <outline>
    <contour>
      <point x="-31" y="-33" type="curve"/>
      <point x="109" y="-34" type="line"/>
      <point x="108" y="-81"/>
      <point x="119" y="-114"/>
      <point x="173" y="-115" type="curve" smooth="yes"/>
      <point x="246" y="-117"/>
      <point x="306" y="-52"/>
      <point x="328" y="11" type="curve" smooth="yes"/>
      <point x="483" y="460" type="line"/>
      <point x="629" y="460" type="line"/>
      <point x="475" y="9" type="line" smooth="yes"/>
      <point x="426" y="-131"/>
      <point x="319" y="-238"/>
      <point x="162" y="-239" type="curve" smooth="yes"/>
      <point x="30" y="-240"/>
      <point x="-45" y="-163"/>
    </contour>
    <contour>
      <point x="54" y="237" type="curve" smooth="yes"/>
      <point x="90" y="356"/>
      <point x="201" y="471"/>
      <point x="332" y="470" type="curve" smooth="yes"/>
      <point x="463" y="469"/>
      <point x="482" y="339"/>
      <point x="450" y="236" type="curve" smooth="yes"/>
      <point x="415" y="122"/>
      <point x="321" y="3"/>
      <point x="192" y="3" type="curve" smooth="yes"/>
      <point x="61" y="3"/>
      <point x="21" y="128"/>
    </contour>
    <contour>
      <point x="210" y="235" type="curve" smooth="yes"/>
      <point x="192" y="185"/>
      <point x="207" y="131"/>
      <point x="266" y="128" type="curve" smooth="yes"/>
      <point x="327" y="125"/>
      <point x="388" y="184"/>
      <point x="407" y="238" type="curve" smooth="yes"/>
      <point x="424" y="286"/>
      <point x="414" y="344"/>
      <point x="356" y="345" type="curve" smooth="yes"/>
      <point x="287" y="346"/>
      <point x="230" y="290"/>
    </contour>
  </outline>
</glyph>
<glyph name="h" format="1">
  <advance width="535"/>
  <unicode hex="0068"/>
  <outline>
    <contour>
      <point x="417" y="780" type="line"/>
      <point x="149" y="0" type="line"/>
      <point x="-2" y="0" type="line"/>
      <point x="265" y="780" type="line"/>
    </contour>
    <contour>
      <point x="378" y="280" type="line" smooth="yes"/>
      <point x="388" y="311"/>
      <point x="396" y="356"/>
      <point x="352" y="362" type="curve" smooth="yes"/>
      <point x="304" y="368"/>
      <point x="267" y="315"/>
      <point x="245" y="281" type="curve"/>
      <point x="216" y="282" type="line"/>
      <point x="253" y="376"/>
      <point x="319" y="476"/>
      <point x="432" y="477" type="curve" smooth="yes"/>
      <point x="540" y="478"/>
      <point x="560" y="390"/>
      <point x="532" y="303" type="curve"/>
      <point x="429" y="0" type="line"/>
      <point x="279" y="0" type="line"/>
    </contour>
  </outline>
</glyph>
<glyph name="i" format="1">
  <advance width="260"/>
  <unicode hex="0069"/>
  <outline>
    <contour>
      <point x="203" y="631" type="curve" smooth="yes"/>
      <point x="203" y="680"/>
      <point x="242" y="714"/>
      <point x="292" y="714" type="curve" smooth="yes"/>
      <point x="342" y="714"/>
      <point x="381" y="680"/>
      <point x="381" y="631" type="curve" smooth="yes"/>
      <point x="381" y="582"/>
      <point x="342" y="548"/>
      <point x="292" y="548" type="curve" smooth="yes"/>
      <point x="242" y="548"/>
      <point x="203" y="582"/>
    </contour>
    <contour>
      <point x="159" y="460" type="line"/>
      <point x="307" y="460" type="line"/>
      <point x="149" y="0" type="line"/>
      <point x="3" y="0" type="line"/>
    </contour>
  </outline>
</glyph>
<glyph name="j" format="1">
  <advance width="256"/>
  <unicode hex="006A"/>
  <outline>
    <contour>
      <point x="199" y="631" type="curve" smooth="yes"/>
      <point x="199" y="680"/>
      <point x="238" y="714"/>
      <point x="288" y="714" type="curve" smooth="yes"/>
      <point x="338" y="714"/>
      <point x="378" y="680"/>
      <point x="378" y="631" type="curve" smooth="yes"/>
      <point x="378" y="582"/>
      <point x="338" y="548"/>
      <point x="288" y="548" type="curve" smooth="yes"/>
      <point x="238" y="548"/>
      <point x="199" y="582"/>
    </contour>
    <contour>
      <point x="-120" y="-77" type="line"/>
      <point x="-112" y="-89"/>
      <point x="-96" y="-102"/>
      <point x="-79" y="-102" type="curve" smooth="yes"/>
      <point x="-45" y="-103"/>
      <point x="-22" y="-58"/>
      <point x="-13" y="-33" type="curve" smooth="yes"/>
      <point x="157" y="460" type="line"/>
      <point x="303" y="460" type="line"/>
      <point x="122" y="-74" type="line" smooth="yes"/>
      <point x="87" y="-166"/>
      <point x="13" y="-241"/>
      <point x="-91" y="-239" type="curve" smooth="yes"/>
      <point x="-139" y="-239"/>
      <point x="-176" y="-217"/>
      <point x="-210" y="-185" type="curve"/>
    </contour>
  </outline>
</glyph>
<glyph name="k" format="1">
  <advance width="547"/>
  <unicode hex="006B"/>
  <outline>
    <contour>
      <point x="263" y="780" type="line"/>
      <point x="409" y="780" type="line"/>
      <point x="141" y="0" type="line"/>
      <point x="-3" y="0" type="line"/>
    </contour>
    <contour>
      <point x="445" y="459" type="line"/>
      <point x="636" y="459" type="line"/>
      <point x="373" y="261" type="line"/>
      <point x="484" y="0" type="line"/>
      <point x="322" y="0" type="line"/>
      <point x="204" y="278" type="line"/>
    </contour>
  </outline>
</glyph>
<glyph name="l" format="1">
  <advance width="255"/>
  <unicode hex="006C"/>
  <outline>
    <contour>
      <point x="264" y="780" type="line"/>
      <point x="417" y="780" type="line"/>
      <point x="148" y="0" type="line"/>
      <point x="-1" y="0" type="line"/>
    </contour>
  </outline>
</glyph>
<glyph name="m" format="1">
  <advance width="773"/>
  <unicode hex="006D"/>
  <outline>
    <contour>
      <point x="353" y="281" type="line" smooth="yes"/>
      <point x="361" y="308"/>
      <point x="375" y="355"/>
      <point x="334" y="361" type="curve" smooth="yes"/>
      <point x="290" y="368"/>
      <point x="256" y="312"/>
      <point x="238" y="281" type="curve"/>
      <point x="209" y="275" type="line"/>
      <point x="245" y="367"/>
      <point x="308" y="468"/>
      <point x="418" y="470" type="curve" smooth="yes"/>
      <point x="522" y="472"/>
      <point x="531" y="385"/>
      <point x="507" y="303" type="curve" smooth="yes"/>
      <point x="404" y="0" type="line"/>
      <point x="254" y="0" type="line"/>
    </contour>
    <contour>
      <point x="301" y="460" type="line"/>
      <point x="143" y="0" type="line"/>
      <point x="-3" y="0" type="line"/>
      <point x="156" y="460" type="line"/>
    </contour>
    <contour>
      <point x="767" y="297" type="curve" smooth="yes"/>
      <point x="667" y="0" type="line"/>
      <point x="515" y="0" type="line"/>
      <point x="615" y="280" type="line" smooth="yes"/>
      <point x="623" y="307"/>
      <point x="637" y="355"/>
      <point x="596" y="361" type="curve" smooth="yes"/>
      <point x="552" y="368"/>
      <point x="518" y="312"/>
      <point x="500" y="281" type="curve"/>
      <point x="448" y="275" type="line"/>
      <point x="488" y="371"/>
      <point x="566" y="469"/>
      <point x="680" y="470" type="curve" smooth="yes"/>
      <point x="786" y="471"/>
      <point x="791" y="379"/>
    </contour>
  </outline>
</glyph>
<glyph name="n" format="1">
  <advance width="575"/>
  <unicode hex="006E"/>
  <outline>
    <contour>
      <point x="293" y="460" type="line"/>
      <point x="212" y="0" type="line"/>
      <point x="60" y="0" type="line"/>
      <point x="141" y="460" type="line"/>
    </contour>
    <contour>
      <point x="407" y="280" type="line" smooth="yes"/>
      <point x="417" y="334"/>
      <point x="405" y="364"/>
      <point x="355" y="364" type="curve" smooth="yes"/>
      <point x="307" y="364"/>
      <point x="271" y="334"/>
      <point x="261" y="280" type="curve"/>
      <point x="234" y="274" type="line"/>
      <point x="253" y="383"/>
      <point x="321" y="470"/>
      <point x="435" y="470" type="curve" smooth="yes"/>
      <point x="549" y="470"/>
      <point x="588" y="408"/>
      <point x="568" y="296" type="curve" smooth="yes"/>
      <point x="516" y="0" type="line"/>
      <point x="358" y="0" type="line"/>
    </contour>
  </outline>
</glyph>
<glyph name="o" format="1">
  <advance width="555"/>
  <unicode hex="006F"/>
  <outline>
    <contour>
      <point x="64" y="231" type="curve" smooth="yes"/>
      <point x="101" y="368"/>
      <point x="238" y="470"/>
      <point x="380" y="470" type="curve" smooth="yes"/>
      <point x="516" y="470"/>
      <point x="602" y="361"/>
      <point x="566" y="229" type="curve" smooth="yes"/>
      <point x="529" y="92"/>
      <point x="392" y="-10"/>
      <point x="250" y="-10" type="curve" smooth="yes"/>
      <point x="115" y="-10"/>
      <point x="28" y="99"/>
    </contour>
    <contour>
      <point x="217" y="229" type="curve" smooth="yes"/>
      <point x="200" y="181"/>
      <point x="213" y="120"/>
      <point x="273" y="118" type="curve" smooth="yes"/>
      <point x="335" y="116"/>
      <point x="394" y="176"/>
      <point x="413" y="231" type="curve" smooth="yes"/>
      <point x="430" y="279"/>
      <point x="417" y="341"/>
      <point x="357" y="343" type="curve" smooth="yes"/>
      <point x="295" y="345"/>
      <point x="236" y="284"/>
    </contour>
  </outline>
</glyph>
<glyph name="p" format="1">
  <advance width="581"/>
  <unicode hex="0070"/>
  <outline>
    <contour>
      <point x="73" y="-220" type="line"/>
      <point x="-79" y="-220" type="line"/>
      <point x="155" y="460" type="line"/>
      <point x="304" y="460" type="line"/>
    </contour>
    <contour>
      <point x="579" y="229" type="curve" smooth="yes"/>
      <point x="542" y="109"/>
      <point x="432" y="-17"/>
      <point x="297" y="-16" type="curve" smooth="yes"/>
      <point x="160" y="-15"/>
      <point x="158" y="130"/>
      <point x="189" y="230" type="curve" smooth="yes"/>
      <point x="224" y="344"/>
      <point x="313" y="475"/>
      <point x="446" y="476" type="curve" smooth="yes"/>
      <point x="582" y="477"/>
      <point x="612" y="337"/>
    </contour>
    <contour>
      <point x="424" y="231" type="curve" smooth="yes"/>
      <point x="442" y="281"/>
      <point x="427" y="336"/>
      <point x="367" y="339" type="curve" smooth="yes"/>
      <point x="306" y="342"/>
      <point x="245" y="283"/>
      <point x="226" y="229" type="curve" smooth="yes"/>
      <point x="209" y="181"/>
      <point x="219" y="125"/>
      <point x="277" y="121" type="curve" smooth="yes"/>
      <point x="339" y="117"/>
      <point x="404" y="176"/>
    </contour>
  </outline>
</glyph>
<glyph name="q" format="1">
  <advance width="616"/>
  <unicode hex="0071"/>
  <outline>
    <contour>
      <point x="369" y="-220" type="line"/>
      <point x="489" y="460" type="line"/>
      <point x="641" y="460" type="line"/>
      <point x="521" y="-220" type="line"/>
    </contour>
    <contour>
      <point x="73" y="230" type="curve" smooth="yes"/>
      <point x="102" y="392"/>
      <point x="222" y="476"/>
      <point x="334" y="476" type="curve" smooth="yes"/>
      <point x="456" y="476"/>
      <point x="511" y="379"/>
      <point x="485" y="230" type="curve" smooth="yes"/>
      <point x="459" y="81"/>
      <point x="369" y="-16"/>
      <point x="247" y="-16" type="curve" smooth="yes"/>
      <point x="135" y="-16"/>
      <point x="44" y="68"/>
    </contour>
    <contour>
      <point x="232" y="230" type="curve" smooth="yes"/>
      <point x="219" y="158"/>
      <point x="262" y="118"/>
      <point x="322" y="118" type="curve" smooth="yes"/>
      <point x="373" y="118"/>
      <point x="436" y="155"/>
      <point x="449" y="230" type="curve" smooth="yes"/>
      <point x="462" y="305"/>
      <point x="412" y="342"/>
      <point x="361" y="342" type="curve" smooth="yes"/>
      <point x="301" y="342"/>
      <point x="245" y="302"/>
    </contour>
  </outline>
</glyph>
<glyph name="r" format="1">
  <advance width="396"/>
  <unicode hex="0072"/>
  <outline>
    <contour>
      <point x="304" y="460" type="line"/>
      <point x="145" y="0" type="line"/>
      <point x="-3" y="0" type="line"/>
      <point x="156" y="460" type="line"/>
    </contour>
    <contour>
      <point x="385" y="302" type="line"/>
      <point x="372" y="314"/>
      <point x="360" y="326"/>
      <point x="340" y="327" type="curve" smooth="yes"/>
      <point x="284" y="329"/>
      <point x="238" y="266"/>
      <point x="222" y="225" type="curve"/>
      <point x="215" y="282" type="line"/>
      <point x="249" y="363"/>
      <point x="331" y="470"/>
      <point x="413" y="471" type="curve" smooth="yes"/>
      <point x="446" y="471"/>
      <point x="466" y="452"/>
      <point x="487" y="429" type="curve"/>
    </contour>
  </outline>
</glyph>
<glyph name="s" format="1">
  <advance width="456"/>
  <unicode hex="0073"/>
  <outline>
    <contour>
      <point x="149" y="174" type="line"/>
      <point x="178" y="124"/>
      <point x="220" y="96"/>
      <point x="252" y="96" type="curve" smooth="yes"/>
      <point x="279" y="96"/>
      <point x="299" y="105"/>
      <point x="303" y="128" type="curve" smooth="yes"/>
      <point x="309" y="162"/>
      <point x="243" y="173"/>
      <point x="193" y="197" type="curve" smooth="yes"/>
      <point x="138" y="225"/>
      <point x="96" y="256"/>
      <point x="110" y="336" type="curve" smooth="yes"/>
      <point x="126" y="424"/>
      <point x="209" y="470"/>
      <point x="308" y="470" type="curve" smooth="yes"/>
      <point x="408" y="470"/>
      <point x="463" y="418"/>
      <point x="492" y="360" type="curve"/>
      <point x="395" y="294" type="line"/>
      <point x="370" y="334"/>
      <point x="326" y="365"/>
      <point x="289" y="365" type="curve" smooth="yes"/>
      <point x="267" y="365"/>
      <point x="250" y="355"/>
      <point x="246" y="335" type="curve" smooth="yes"/>
      <point x="239" y="298"/>
      <point x="300" y="292"/>
      <point x="354" y="270" type="curve" smooth="yes"/>
      <point x="415" y="245"/>
      <point x="469" y="210"/>
      <point x="455" y="130" type="curve" smooth="yes"/>
      <point x="436" y="24"/>
      <point x="343" y="-20"/>
      <point x="231" y="-20" type="curve" smooth="yes"/>
      <point x="153" y="-20"/>
      <point x="92" y="9"/>
      <point x="43" y="105" type="curve"/>
    </contour>
  </outline>
</glyph>
<glyph name="t" format="1">
  <advance width="301"/>
  <unicode hex="0074"/>
  <outline>
    <contour>
      <point x="107" y="460" type="line"/>
      <point x="405" y="460" type="line"/>
      <point x="360" y="333" type="line"/>
      <point x="61" y="333" type="line"/>
    </contour>
    <contour>
      <point x="236" y="620" type="line"/>
      <point x="382" y="620" type="line"/>
      <point x="168" y="0" type="line"/>
      <point x="25" y="0" type="line"/>
    </contour>
  </outline>
</glyph>
<glyph name="u" format="1">
  <advance width="542"/>
  <unicode hex="0075"/>
  <outline>
    <contour>
      <point x="284" y="0" type="line"/>
      <point x="443" y="460" type="line"/>
      <point x="594" y="460" type="line"/>
      <point x="436" y="0" type="line"/>
    </contour>
    <contour>
      <point x="213" y="180" type="line"/>
      <point x="204" y="149"/>
      <point x="196" y="104"/>
      <point x="240" y="98" type="curve" smooth="yes"/>
      <point x="288" y="92"/>
      <point x="325" y="145"/>
      <point x="347" y="179" type="curve"/>
      <point x="376" y="184" type="line"/>
      <point x="340" y="90"/>
      <point x="274" y="-9"/>
      <point x="161" y="-10" type="curve" smooth="yes"/>
      <point x="54" y="-11"/>
      <point x="30" y="74"/>
      <point x="55" y="164" type="curve"/>
      <point x="156" y="460" type="line"/>
      <point x="312" y="460" type="line"/>
    </contour>
  </outline>
</glyph>
<glyph name="v" format="1">
  <advance width="527"/>
  <unicode hex="0076"/>
  <outline>
    <contour>
      <point x="78" y="460" type="line"/>
      <point x="240" y="460" type="line"/>
      <point x="300" y="205" type="line"/>
      <point x="450" y="460" type="line"/>
      <point x="611" y="460" type="line"/>
      <point x="254" y="-54" type="line"/>
    </contour>
  </outline>
</glyph>
<glyph name="w" format="1">
  <advance width="718"/>
  <unicode hex="0077"/>
  <outline>
    <contour>
      <point x="98" y="460" type="line"/>
      <point x="247" y="460" type="line"/>
      <point x="254" y="234" type="line"/>
      <point x="471" y="500" type="line"/>
      <point x="504" y="232" type="line"/>
      <point x="672" y="459" type="line"/>
      <point x="837" y="459" type="line"/>
      <point x="441" y="-32" type="line"/>
      <point x="392" y="237" type="line"/>
      <point x="155" y="-33" type="line"/>
    </contour>
  </outline>
</glyph>
<glyph name="x" format="1">
  <advance width="504"/>
  <unicode hex="0078"/>
  <outline>
    <contour>
      <point x="436" y="460" type="line"/>
      <point x="612" y="460" type="line"/>
      <point x="368" y="228" type="line"/>
      <point x="468" y="0" type="line"/>
      <point x="313" y="0" type="line"/>
      <point x="260" y="137" type="line"/>
      <point x="139" y="0" type="line"/>
      <point x="-43" y="0" type="line"/>
      <point x="212" y="252" type="line"/>
      <point x="120" y="460" type="line"/>
      <point x="280" y="460" type="line"/>
      <point x="322" y="343" type="line"/>
    </contour>
  </outline>
</glyph>
<glyph name="y" format="1">
  <advance width="492"/>
  <unicode hex="0079"/>
  <outline>
    <contour>
      <point x="613" y="459" type="line"/>
      <point x="97" y="-219" type="line"/>
      <point x="-62" y="-219" type="line"/>
      <point x="139" y="45" type="line"/>
      <point x="96" y="460" type="line"/>
      <point x="250" y="460" type="line"/>
      <point x="266" y="90" type="line"/>
      <point x="186" y="93" type="line"/>
      <point x="451" y="459" type="line"/>
    </contour>
  </outline>
</glyph>
<glyph name="z" format="1">
  <advance width="522"/>
  <unicode hex="007A"/>
  <outline>
    <contour>
      <point x="313" y="322" type="line"/>
      <point x="115" y="322" type="line"/>
      <point x="139" y="460" type="line"/>
      <point x="589" y="460" type="line"/>
      <point x="302" y="138" type="line"/>
      <point x="499" y="138" type="line"/>
      <point x="475" y="0" type="line"/>
      <point x="15" y="0" type="line"/>
    </contour>
  </outline>
</glyph>
<glyph name="braceleft" format="1">
  <advance width="377"/>
  <unicode hex="007B"/>
  <outline>
    <contour>
      <point x="410" y="607" type="curve" smooth="yes"/>
      <point x="374" y="489" type="line" smooth="yes"/>
      <point x="339" y="378"/>
      <point x="288" y="300"/>
      <point x="168" y="281" type="curve"/>
      <point x="173" y="301" type="line"/>
      <point x="286" y="277"/>
      <point x="276" y="184"/>
      <point x="247" y="89" type="curve" smooth="yes"/>
      <point x="210" y="-28" type="line" smooth="yes"/>
      <point x="201" y="-56"/>
      <point x="208" y="-76"/>
      <point x="237" y="-77" type="curve" smooth="yes"/>
      <point x="274" y="-78" type="line"/>
      <point x="238" y="-199" type="line"/>
      <point x="157" y="-200" type="line" smooth="yes"/>
      <point x="77" y="-198"/>
      <point x="14" y="-143"/>
      <point x="39" y="-60" type="curve" smooth="yes"/>
      <point x="96" y="124" type="line" smooth="yes"/>
      <point x="110" y="173"/>
      <point x="114" y="204"/>
      <point x="71" y="234" type="curve"/>
      <point x="103" y="345" type="line"/>
      <point x="153" y="369"/>
      <point x="177" y="404"/>
      <point x="195" y="457" type="curve" smooth="yes"/>
      <point x="251" y="641" type="line" smooth="yes"/>
      <point x="278" y="725"/>
      <point x="355" y="777"/>
      <point x="442" y="780" type="curve"/>
      <point x="540" y="780" type="line"/>
      <point x="504" y="659" type="line"/>
      <point x="473" y="659" type="line" smooth="yes"/>
      <point x="442" y="659"/>
      <point x="419" y="638"/>
    </contour>
  </outline>
</glyph>
<glyph name="bar" format="1">
  <advance width="334"/>
  <unicode hex="007C"/>
  <outline>
    <contour>
      <point x="299" y="785" type="line"/>
      <point x="451" y="785" type="line"/>
      <point x="143" y="-215" type="line"/>
      <point x="-9" y="-215" type="line"/>
    </contour>
  </outline>
</glyph>
<glyph name="braceright" format="1">
  <advance width="377"/>
  <unicode hex="007D"/>
  <outline>
    <contour>
      <point x="81" y="-28" type="curve" smooth="yes"/>
      <point x="118" y="91" type="line" smooth="yes"/>
      <point x="153" y="202"/>
      <point x="204" y="280"/>
      <point x="324" y="299" type="curve"/>
      <point x="319" y="279" type="line"/>
      <point x="206" y="303"/>
      <point x="215" y="396"/>
      <point x="244" y="491" type="curve" smooth="yes"/>
      <point x="282" y="609" type="line" smooth="yes"/>
      <point x="291" y="636"/>
      <point x="282" y="656"/>
      <point x="254" y="657" type="curve" smooth="yes"/>
      <point x="218" y="657" type="line"/>
      <point x="254" y="780" type="line"/>
      <point x="335" y="780" type="line" smooth="yes"/>
      <point x="415" y="778"/>
      <point x="477" y="723"/>
      <point x="452" y="640" type="curve" smooth="yes"/>
      <point x="395" y="456" type="line" smooth="yes"/>
      <point x="381" y="407"/>
      <point x="377" y="376"/>
      <point x="420" y="346" type="curve"/>
      <point x="388" y="235" type="line"/>
      <point x="338" y="211"/>
      <point x="314" y="176"/>
      <point x="296" y="123" type="curve" smooth="yes"/>
      <point x="241" y="-61" type="line" smooth="yes"/>
      <point x="214" y="-146"/>
      <point x="136" y="-197"/>
      <point x="49" y="-200" type="curve" smooth="yes"/>
      <point x="-49" y="-200" type="line"/>
      <point x="-13" y="-79" type="line"/>
      <point x="18" y="-79" type="line" smooth="yes"/>
      <point x="49" y="-79"/>
      <point x="72" y="-59"/>
    </contour>
  </outline>
</glyph>
<glyph name="asciitilde" format="1">
  <advance width="575"/>
  <unicode hex="007E"/>
  <outline>
    <contour>
      <point x="185" y="164" type="curve"/>
      <point x="67" y="168" type="line"/>
      <point x="66" y="175"/>
      <point x="66" y="183"/>
      <point x="68" y="192" type="curve" smooth="yes"/>
      <point x="74" y="226"/>
      <point x="88" y="258"/>
      <point x="117" y="288" type="curve" smooth="yes"/>
      <point x="150" y="322"/>
      <point x="188" y="346"/>
      <point x="255" y="346" type="curve" smooth="yes"/>
      <point x="301" y="346"/>
      <point x="329" y="329"/>
      <point x="371" y="297" type="curve" smooth="yes"/>
      <point x="398" y="276"/>
      <point x="418" y="262"/>
      <point x="436" y="262" type="curve" smooth="yes"/>
      <point x="458" y="262"/>
      <point x="471" y="280"/>
      <point x="475" y="302" type="curve" smooth="yes"/>
      <point x="477" y="313"/>
      <point x="477" y="326"/>
      <point x="475" y="336" type="curve"/>
      <point x="595" y="330" type="line"/>
      <point x="596" y="322"/>
      <point x="596" y="312"/>
      <point x="594" y="302" type="curve" smooth="yes"/>
      <point x="588" y="270"/>
      <point x="577" y="236"/>
      <point x="548" y="206" type="curve" smooth="yes"/>
      <point x="516" y="172"/>
      <point x="482" y="153"/>
      <point x="427" y="153" type="curve" smooth="yes"/>
      <point x="387" y="153"/>
      <point x="356" y="171"/>
      <point x="312" y="203" type="curve" smooth="yes"/>
      <point x="285" y="224"/>
      <point x="260" y="238"/>
      <point x="235" y="238" type="curve" smooth="yes"/>
      <point x="203" y="238"/>
      <point x="188" y="214"/>
      <point x="184" y="192" type="curve" smooth="yes"/>
      <point x="182" y="178"/>
      <point x="183" y="172"/>
    </contour>
  </outline>
</glyph>
<glyph name="exclamdown" format="1">
  <advance width="324"/>
  <unicode hex="00A1"/>
  <outline>
    <contour>
      <point x="122" y="-229" type="line"/>
      <point x="-64" y="-229" type="line"/>
      <point x="128" y="238" type="line"/>
      <point x="251" y="238" type="line"/>
    </contour>
    <contour>
      <point x="340" y="406" type="curve" smooth="yes"/>
      <point x="328" y="359"/>
      <point x="272" y="321"/>
      <point x="224" y="322" type="curve" smooth="yes"/>
      <point x="176" y="323"/>
      <point x="143" y="361"/>
      <point x="156" y="410" type="curve" smooth="yes"/>
      <point x="168" y="457"/>
      <point x="223" y="496"/>
      <point x="271" y="495" type="curve" smooth="yes"/>
      <point x="319" y="494"/>
      <point x="353" y="455"/>
    </contour>
  </outline>
</glyph>
<glyph name="cent" format="1">
  <advance width="545"/>
  <unicode hex="00A2"/>
  <outline>
    <contour>
      <point x="177" y="38" type="line"/>
      <point x="289" y="38" type="line"/>
      <point x="244" y="-112" type="line"/>
      <point x="115" y="-112" type="line"/>
    </contour>
    <contour>
      <point x="220" y="229" type="curve" smooth="yes"/>
      <point x="199" y="173"/>
      <point x="221" y="117"/>
      <point x="286" y="114" type="curve" smooth="yes"/>
      <point x="344" y="111"/>
      <point x="397" y="148"/>
      <point x="441" y="180" type="curve"/>
      <point x="396" y="29" type="line"/>
      <point x="350" y="5"/>
      <point x="302" y="-10"/>
      <point x="249" y="-10" type="curve" smooth="yes"/>
      <point x="113" y="-9"/>
      <point x="27" y="98"/>
      <point x="67" y="231" type="curve" smooth="yes"/>
      <point x="109" y="370"/>
      <point x="250" y="469"/>
      <point x="394" y="470" type="curve" smooth="yes"/>
      <point x="444" y="470"/>
      <point x="486" y="456"/>
      <point x="527" y="430" type="curve"/>
      <point x="482" y="278" type="line"/>
      <point x="461" y="319"/>
      <point x="431" y="347"/>
      <point x="382" y="347" type="curve" smooth="yes"/>
      <point x="314" y="347"/>
      <point x="243" y="292"/>
    </contour>
    <contour>
      <point x="353" y="578" type="line"/>
      <point x="483" y="578" type="line"/>
      <point x="421" y="428" type="line"/>
      <point x="310" y="428" type="line"/>
    </contour>
  </outline>
</glyph>
<glyph name="sterling" format="1">
  <advance width="611"/>
  <unicode hex="00A3"/>
  <outline>
    <contour>
      <point x="132" y="370" type="line"/>
      <point x="511" y="370" type="line"/>
      <point x="494" y="270" type="line"/>
      <point x="115" y="270" type="line"/>
    </contour>
    <contour>
      <point x="516" y="466" type="line"/>
      <point x="522" y="520"/>
      <point x="510" y="576"/>
      <point x="436" y="576" type="curve" smooth="yes"/>
      <point x="388" y="576"/>
      <point x="341" y="552"/>
      <point x="331" y="495" type="curve" smooth="yes"/>
      <point x="316" y="410"/>
      <point x="404" y="382"/>
      <point x="384" y="270" type="curve" smooth="yes"/>
      <point x="365" y="164"/>
      <point x="227" y="70"/>
      <point x="149" y="50" type="curve"/>
      <point x="217" y="140" type="line"/>
      <point x="564" y="140" type="line"/>
      <point x="539" y="0" type="line"/>
      <point x="52" y="0" type="line"/>
      <point x="168" y="102"/>
      <point x="221" y="186"/>
      <point x="239" y="286" type="curve" smooth="yes"/>
      <point x="256" y="380"/>
      <point x="156" y="404"/>
      <point x="177" y="521" type="curve" smooth="yes"/>
      <point x="198" y="640"/>
      <point x="321" y="710"/>
      <point x="453" y="710" type="curve" smooth="yes"/>
      <point x="605" y="710"/>
      <point x="672" y="604"/>
      <point x="662" y="518" type="curve"/>
    </contour>
  </outline>
</glyph>
<glyph name="currency" format="1">
  <advance width="576"/>
  <unicode hex="00A4"/>
  <outline>
    <contour>
      <point x="113" y="503" type="line"/>
      <point x="186" y="566" type="line"/>
      <point x="267" y="466" type="line"/>
      <point x="195" y="404" type="line"/>
    </contour>
    <contour>
      <point x="92" y="34" type="line"/>
      <point x="41" y="97" type="line"/>
      <point x="159" y="196" type="line"/>
      <point x="209" y="134" type="line"/>
    </contour>
    <contour>
      <point x="525" y="404" type="line"/>
      <point x="474" y="466" type="line"/>
      <point x="592" y="566" type="line"/>
      <point x="642" y="503" type="line"/>
    </contour>
    <contour>
      <point x="416" y="134" type="line"/>
      <point x="489" y="196" type="line"/>
      <point x="570" y="97" type="line"/>
      <point x="498" y="34" type="line"/>
    </contour>
    <contour>
      <point x="104" y="300" type="curve" smooth="yes"/>
      <point x="129" y="439"/>
      <point x="249" y="540"/>
      <point x="384" y="540" type="curve" smooth="yes"/>
      <point x="519" y="540"/>
      <point x="605" y="439"/>
      <point x="580" y="300" type="curve" smooth="yes"/>
      <point x="555" y="161"/>
      <point x="435" y="60"/>
      <point x="300" y="60" type="curve" smooth="yes"/>
      <point x="165" y="60"/>
      <point x="79" y="161"/>
    </contour>
    <contour>
      <point x="241" y="300" type="curve" smooth="yes"/>
      <point x="230" y="238"/>
      <point x="265" y="198"/>
      <point x="324" y="198" type="curve" smooth="yes"/>
      <point x="383" y="198"/>
      <point x="432" y="238"/>
      <point x="443" y="300" type="curve" smooth="yes"/>
      <point x="454" y="362"/>
      <point x="419" y="402"/>
      <point x="360" y="402" type="curve" smooth="yes"/>
      <point x="301" y="402"/>
      <point x="252" y="362"/>
    </contour>
  </outline>
</glyph>
<glyph name="yen" format="1">
  <advance width="632"/>
  <unicode hex="00A5"/>
  <outline>
    <contour>
      <point x="76" y="264" type="line"/>
      <point x="111" y="365" type="line"/>
      <point x="662" y="365" type="line"/>
      <point x="626" y="264" type="line"/>
    </contour>
    <contour>
      <point x="25" y="114" type="line"/>
      <point x="60" y="215" type="line"/>
      <point x="611" y="215" type="line"/>
      <point x="575" y="114" type="line"/>
    </contour>
    <contour>
      <point x="622" y="699" type="line"/>
      <point x="822" y="699" type="line"/>
      <point x="444" y="278" type="line"/>
      <point x="348" y="0" type="line"/>
      <point x="175" y="0" type="line"/>
      <point x="277" y="293" type="line"/>
      <point x="189" y="700" type="line"/>
      <point x="372" y="700" type="line"/>
      <point x="408" y="445" type="line"/>
    </contour>
  </outline>
</glyph>
<glyph name="brokenbar" format="1">
  <advance width="352"/>
  <unicode hex="00A6"/>
  <outline>
    <contour>
      <point x="223" y="695" type="line"/>
      <point x="376" y="695" type="line"/>
      <point x="329" y="430" type="line"/>
      <point x="176" y="430" type="line"/>
    </contour>
    <contour>
      <point x="301" y="270" type="line"/>
      <point x="254" y="5" type="line"/>
      <point x="101" y="5" type="line"/>
      <point x="148" y="270" type="line"/>
    </contour>
  </outline>
</glyph>
<glyph name="section" format="1">
  <advance width="549"/>
  <unicode hex="00A7"/>
  <outline>
    <contour>
      <point x="521" y="549" type="line"/>
      <point x="499" y="574"/>
      <point x="474" y="598"/>
      <point x="438" y="597" type="curve" smooth="yes"/>
      <point x="420" y="597"/>
      <point x="378" y="586"/>
      <point x="373" y="565" type="curve" smooth="yes"/>
      <point x="366" y="536"/>
      <point x="426" y="528"/>
      <point x="444" y="520" type="curve" smooth="yes"/>
      <point x="506" y="499"/>
      <point x="552" y="446"/>
      <point x="533" y="377" type="curve" smooth="yes"/>
      <point x="502" y="267"/>
      <point x="378" y="236"/>
      <point x="278" y="230" type="curve"/>
      <point x="292" y="270" type="line"/>
      <point x="329" y="283"/>
      <point x="376" y="303"/>
      <point x="389" y="344" type="curve" smooth="yes"/>
      <point x="408" y="398"/>
      <point x="347" y="415"/>
      <point x="310" y="434" type="curve" smooth="yes"/>
      <point x="253" y="463"/>
      <point x="217" y="513"/>
      <point x="236" y="579" type="curve" smooth="yes"/>
      <point x="263" y="671"/>
      <point x="364" y="722"/>
      <point x="454" y="723" type="curve" smooth="yes"/>
      <point x="522" y="724"/>
      <point x="578" y="699"/>
      <point x="617" y="646" type="curve"/>
    </contour>
    <contour>
      <point x="119" y="172" type="line"/>
      <point x="147" y="136"/>
      <point x="184" y="102"/>
      <point x="238" y="104" type="curve" smooth="yes"/>
      <point x="260" y="104"/>
      <point x="300" y="116"/>
      <point x="307" y="140" type="curve" smooth="yes"/>
      <point x="317" y="173"/>
      <point x="262" y="183"/>
      <point x="241" y="193" type="curve" smooth="yes"/>
      <point x="179" y="215"/>
      <point x="118" y="261"/>
      <point x="138" y="335" type="curve" smooth="yes"/>
      <point x="168" y="445"/>
      <point x="300" y="472"/>
      <point x="398" y="478" type="curve"/>
      <point x="386" y="441" type="line"/>
      <point x="350" y="427"/>
      <point x="301" y="409"/>
      <point x="287" y="368" type="curve" smooth="yes"/>
      <point x="267" y="311"/>
      <point x="338" y="298"/>
      <point x="375" y="280" type="curve" smooth="yes"/>
      <point x="434" y="251"/>
      <point x="472" y="195"/>
      <point x="453" y="129" type="curve" smooth="yes"/>
      <point x="425" y="31"/>
      <point x="314" y="-22"/>
      <point x="219" y="-23" type="curve" smooth="yes"/>
      <point x="134" y="-24"/>
      <point x="69" y="14"/>
      <point x="23" y="76" type="curve"/>
    </contour>
  </outline>
</glyph>
<glyph name="dieresis" format="1">
  <advance width="482"/>
  <unicode hex="00A8"/>
  <outline>
    <contour>
      <point x="430" y="633" type="curve" smooth="yes"/>
      <point x="440" y="676"/>
      <point x="493" y="714"/>
      <point x="537" y="713" type="curve" smooth="yes"/>
      <point x="582" y="712"/>
      <point x="614" y="674"/>
      <point x="603" y="629" type="curve" smooth="yes"/>
      <point x="593" y="586"/>
      <point x="541" y="548"/>
      <point x="497" y="549" type="curve" smooth="yes"/>
      <point x="452" y="550"/>
      <point x="419" y="588"/>
    </contour>
    <contour>
      <point x="199" y="633" type="curve" smooth="yes"/>
      <point x="209" y="676"/>
      <point x="262" y="714"/>
      <point x="306" y="713" type="curve" smooth="yes"/>
      <point x="351" y="712"/>
      <point x="383" y="674"/>
      <point x="372" y="629" type="curve" smooth="yes"/>
      <point x="362" y="586"/>
      <point x="310" y="548"/>
      <point x="266" y="549" type="curve" smooth="yes"/>
      <point x="221" y="550"/>
      <point x="188" y="588"/>
    </contour>
  </outline>
</glyph>
<glyph name="copyright" format="1">
  <advance width="752"/>
  <unicode hex="00A9"/>
  <outline>
    <contour>
      <point x="348" y="349" type="curve" smooth="yes"/>
      <point x="328" y="290"/>
      <point x="354" y="233"/>
      <point x="421" y="230" type="curve" smooth="yes"/>
      <point x="472" y="228"/>
      <point x="519" y="257"/>
      <point x="560" y="283" type="curve"/>
      <point x="531" y="172" type="line"/>
      <point x="490" y="149"/>
      <point x="448" y="131"/>
      <point x="400" y="131" type="curve" smooth="yes"/>
      <point x="276" y="131"/>
      <point x="206" y="235"/>
      <point x="238" y="351" type="curve" smooth="yes"/>
      <point x="271" y="473"/>
      <point x="390" y="569"/>
      <point x="518" y="570" type="curve" smooth="yes"/>
      <point x="564" y="570"/>
      <point x="601" y="554"/>
      <point x="637" y="527" type="curve"/>
      <point x="607" y="416" type="line"/>
      <point x="582" y="449"/>
      <point x="554" y="471"/>
      <point x="510" y="471" type="curve" smooth="yes"/>
      <point x="439" y="471"/>
      <point x="371" y="415"/>
    </contour>
    <contour>
      <point x="165" y="350" type="curve" smooth="yes"/>
      <point x="117" y="206"/>
      <point x="176" y="43"/>
      <point x="346" y="41" type="curve" smooth="yes"/>
      <point x="522" y="39"/>
      <point x="682" y="190"/>
      <point x="735" y="350" type="curve" smooth="yes"/>
      <point x="783" y="494"/>
      <point x="724" y="657"/>
      <point x="554" y="659" type="curve" smooth="yes"/>
      <point x="378" y="661"/>
      <point x="218" y="510"/>
    </contour>
    <contour>
      <point x="108" y="350" type="curve" smooth="yes"/>
      <point x="162" y="541"/>
      <point x="347" y="711"/>
      <point x="551" y="710" type="curve" smooth="yes"/>
      <point x="749" y="709"/>
      <point x="841" y="527"/>
      <point x="791" y="350" type="curve" smooth="yes"/>
      <point x="737" y="159"/>
      <point x="552" y="-11"/>
      <point x="348" y="-10" type="curve" smooth="yes"/>
      <point x="150" y="-9"/>
      <point x="58" y="173"/>
    </contour>
  </outline>
</glyph>
<glyph name="ordfeminine" format="1">
  <advance width="254"/>
  <unicode hex="00AA"/>
  <outline>
    <contour>
      <point x="216" y="528" type="curve" smooth="yes"/>
      <point x="213" y="516"/>
      <point x="222" y="507"/>
      <point x="234" y="506" type="curve" smooth="yes"/>
      <point x="265" y="505"/>
      <point x="285" y="532"/>
      <point x="302" y="552" type="curve"/>
      <point x="300" y="522" type="line"/>
      <point x="277" y="486"/>
      <point x="249" y="455"/>
      <point x="202" y="456" type="curve" smooth="yes"/>
      <point x="161" y="457"/>
      <point x="128" y="487"/>
      <point x="140" y="530" type="curve" smooth="yes"/>
      <point x="154" y="576"/>
      <point x="211" y="601"/>
      <point x="255" y="602" type="curve" smooth="yes"/>
      <point x="284" y="603"/>
      <point x="305" y="592"/>
      <point x="328" y="577" type="curve"/>
      <point x="316" y="543" type="line"/>
      <point x="302" y="552"/>
      <point x="288" y="563"/>
      <point x="269" y="562" type="curve" smooth="yes"/>
      <point x="252" y="562"/>
      <point x="221" y="547"/>
    </contour>
    <contour>
      <point x="222" y="623" type="curve"/>
      <point x="213" y="681" type="line"/>
      <point x="246" y="693"/>
      <point x="279" y="705"/>
      <point x="315" y="705" type="curve" smooth="yes"/>
      <point x="361" y="705"/>
      <point x="407" y="682"/>
      <point x="398" y="629" type="curve"/>
      <point x="342" y="460" type="line"/>
      <point x="267" y="461" type="line"/>
      <point x="323" y="610" type="line"/>
      <point x="320" y="627"/>
      <point x="321" y="638"/>
      <point x="301" y="642" type="curve" smooth="yes"/>
      <point x="276" y="647"/>
      <point x="245" y="632"/>
    </contour>
  </outline>
</glyph>
<glyph name="guillemotleft" format="1">
  <advance width="509"/>
  <unicode hex="00AB"/>
  <outline>
    <contour>
      <point x="367" y="253" type="line"/>
      <point x="442" y="59" type="line"/>
      <point x="335" y="-1" type="line"/>
      <point x="252" y="264" type="line"/>
      <point x="498" y="509" type="line"/>
      <point x="575" y="438" type="line"/>
    </contour>
    <contour>
      <point x="174" y="253" type="line"/>
      <point x="249" y="59" type="line"/>
      <point x="142" y="-1" type="line"/>
      <point x="58" y="264" type="line"/>
      <point x="305" y="509" type="line"/>
      <point x="381" y="438" type="line"/>
    </contour>
  </outline>
</glyph>
<glyph name="logicalnot" format="1">
  <advance width="612"/>
  <unicode hex="00AC"/>
  <outline>
    <contour>
      <point x="100" y="271" type="line"/>
      <point x="143" y="404" type="line"/>
      <point x="640" y="404" type="line"/>
      <point x="560" y="175" type="line"/>
      <point x="454" y="175" type="line"/>
      <point x="492" y="271" type="line"/>
    </contour>
  </outline>
</glyph>
<glyph name="uni00AD" format="1">
  <advance width="197"/>
  <unicode hex="00AD"/>
  <outline>
    <contour>
      <point x="20" y="201" type="line"/>
      <point x="44" y="275" type="line"/>
      <point x="237" y="275" type="line"/>
      <point x="213" y="201" type="line"/>
    </contour>
  </outline>
</glyph>
<glyph name="registered" format="1">
  <advance width="752"/>
  <unicode hex="00AE"/>
  <outline>
    <contour>
      <point x="422" y="327" type="line"/>
      <point x="508" y="327" type="line"/>
      <point x="566" y="150" type="line"/>
      <point x="455" y="150" type="line"/>
    </contour>
    <contour>
      <point x="377" y="570" type="line"/>
      <point x="479" y="570" type="line"/>
      <point x="349" y="150" type="line"/>
      <point x="247" y="150" type="line"/>
    </contour>
    <contour>
      <point x="413" y="483" type="line"/>
      <point x="439" y="569" type="line"/>
      <point x="517" y="570" type="line"/>
      <point x="593" y="567"/>
      <point x="662" y="523"/>
      <point x="641" y="438" type="curve" smooth="yes"/>
      <point x="619" y="351"/>
      <point x="534" y="306"/>
      <point x="450" y="302" type="curve"/>
      <point x="354" y="301" type="line"/>
      <point x="380" y="380" type="line"/>
      <point x="453" y="381" type="line"/>
      <point x="483" y="384"/>
      <point x="525" y="401"/>
      <point x="535" y="434" type="curve" smooth="yes"/>
      <point x="544" y="464"/>
      <point x="521" y="479"/>
      <point x="495" y="482" type="curve"/>
    </contour>
    <contour>
      <point x="165" y="350" type="curve" smooth="yes"/>
      <point x="117" y="206"/>
      <point x="176" y="43"/>
      <point x="346" y="41" type="curve" smooth="yes"/>
      <point x="522" y="39"/>
      <point x="682" y="190"/>
      <point x="735" y="350" type="curve" smooth="yes"/>
      <point x="783" y="494"/>
      <point x="724" y="657"/>
      <point x="554" y="659" type="curve" smooth="yes"/>
      <point x="378" y="661"/>
      <point x="218" y="510"/>
    </contour>
    <contour>
      <point x="108" y="350" type="curve" smooth="yes"/>
      <point x="162" y="541"/>
      <point x="347" y="711"/>
      <point x="551" y="710" type="curve" smooth="yes"/>
      <point x="749" y="709"/>
      <point x="841" y="527"/>
      <point x="791" y="350" type="curve" smooth="yes"/>
      <point x="737" y="159"/>
      <point x="552" y="-11"/>
      <point x="348" y="-10" type="curve" smooth="yes"/>
      <point x="150" y="-9"/>
      <point x="58" y="173"/>
    </contour>
  </outline>
</glyph>
<glyph name="macron" format="1">
  <advance width="500"/>
  <unicode hex="00AF"/>
  <outline>
    <contour>
      <point x="214" y="571" type="line"/>
      <point x="256" y="704" type="line"/>
      <point x="612" y="704" type="line"/>
      <point x="570" y="571" type="line"/>
    </contour>
  </outline>
</glyph>
<glyph name="degree" format="1">
  <advance width="296"/>
  <unicode hex="00B0"/>
  <outline>
    <contour>
      <point x="122" y="597" type="curve" smooth="yes"/>
      <point x="135" y="669"/>
      <point x="199" y="720"/>
      <point x="275" y="720" type="curve" smooth="yes"/>
      <point x="351" y="720"/>
      <point x="398" y="669"/>
      <point x="385" y="597" type="curve" smooth="yes"/>
      <point x="372" y="525"/>
      <point x="308" y="474"/>
      <point x="232" y="474" type="curve" smooth="yes"/>
      <point x="156" y="474"/>
      <point x="109" y="525"/>
    </contour>
    <contour>
      <point x="196" y="597" type="curve" smooth="yes"/>
      <point x="190" y="561"/>
      <point x="211" y="538"/>
      <point x="243" y="538" type="curve" smooth="yes"/>
      <point x="275" y="538"/>
      <point x="304" y="561"/>
      <point x="310" y="597" type="curve" smooth="yes"/>
      <point x="316" y="633"/>
      <point x="296" y="656"/>
      <point x="264" y="656" type="curve" smooth="yes"/>
      <point x="232" y="656"/>
      <point x="202" y="633"/>
    </contour>
  </outline>
</glyph>
<glyph name="plusminus" format="1">
  <advance width="596"/>
  <unicode hex="00B1"/>
  <outline>
    <contour>
      <point x="27" y="6" type="line"/>
      <point x="68" y="138" type="line"/>
      <point x="548" y="138" type="line"/>
      <point x="506" y="6" type="line"/>
    </contour>
    <contour>
      <point x="127" y="332" type="line"/>
      <point x="170" y="470" type="line"/>
      <point x="650" y="470" type="line"/>
      <point x="606" y="332" type="line"/>
    </contour>
    <contour>
      <point x="379" y="620" type="line"/>
      <point x="533" y="620" type="line"/>
      <point x="396" y="182" type="line"/>
      <point x="244" y="183" type="line"/>
    </contour>
  </outline>
</glyph>
<glyph name="uni00B2" format="1">
  <advance width="408"/>
  <unicode hex="00B2"/>
  <outline>
    <contour>
      <point x="75" y="282" type="line"/>
      <point x="296" y="476" type="line" smooth="yes"/>
      <point x="336" y="512"/>
      <point x="361" y="536"/>
      <point x="367" y="570" type="curve" smooth="yes"/>
      <point x="372" y="597"/>
      <point x="358" y="624"/>
      <point x="320" y="624" type="curve" smooth="yes"/>
      <point x="281" y="624"/>
      <point x="249" y="592"/>
      <point x="241" y="547" type="curve"/>
      <point x="142" y="547" type="line"/>
      <point x="158" y="636"/>
      <point x="229" y="711"/>
      <point x="339" y="711" type="curve" smooth="yes"/>
      <point x="443" y="711"/>
      <point x="484" y="641"/>
      <point x="472" y="575" type="curve" smooth="yes"/>
      <point x="464" y="530"/>
      <point x="432" y="493"/>
      <point x="391" y="462" type="curve" smooth="yes"/>
      <point x="279" y="375" type="line"/>
      <point x="447" y="375" type="line"/>
      <point x="431" y="282" type="line"/>
    </contour>
  </outline>
</glyph>
<glyph name="uni00B3" format="1">
  <advance width="365"/>
  <unicode hex="00B3"/>
  <outline>
    <contour>
      <point x="239" y="484" type="curve"/>
      <point x="247" y="529" type="line"/>
      <point x="293" y="529"/>
      <point x="330" y="556"/>
      <point x="335" y="586" type="curve" smooth="yes"/>
      <point x="339" y="611"/>
      <point x="327" y="627"/>
      <point x="295" y="627" type="curve" smooth="yes"/>
      <point x="263" y="627"/>
      <point x="237" y="607"/>
      <point x="232" y="577" type="curve"/>
      <point x="138" y="577" type="line"/>
      <point x="151" y="651"/>
      <point x="219" y="708"/>
      <point x="309" y="708" type="curve" smooth="yes"/>
      <point x="403" y="708"/>
      <point x="447" y="656"/>
      <point x="436" y="592" type="curve" smooth="yes"/>
      <point x="423" y="520"/>
      <point x="339" y="484"/>
    </contour>
    <contour>
      <point x="228" y="270" type="curve" smooth="yes"/>
      <point x="126" y="270"/>
      <point x="78" y="340"/>
      <point x="91" y="414" type="curve"/>
      <point x="191" y="414" type="line"/>
      <point x="184" y="372"/>
      <point x="211" y="352"/>
      <point x="246" y="352" type="curve" smooth="yes"/>
      <point x="281" y="352"/>
      <point x="309" y="368"/>
      <point x="315" y="404" type="curve" smooth="yes"/>
      <point x="321" y="439"/>
      <point x="298" y="464"/>
      <point x="236" y="464" type="curve"/>
      <point x="245" y="515" type="line"/>
      <point x="356" y="515"/>
      <point x="428" y="479"/>
      <point x="413" y="394" type="curve" smooth="yes"/>
      <point x="400" y="321"/>
      <point x="331" y="270"/>
    </contour>
  </outline>
</glyph>
<glyph name="acute" format="1">
  <advance width="352"/>
  <unicode hex="00B4"/>
  <outline>
    <contour>
      <point x="470" y="648" type="line"/>
      <point x="259" y="505" type="line"/>
      <point x="180" y="552" type="line"/>
      <point x="366" y="706" type="line"/>
    </contour>
  </outline>
</glyph>
<glyph name="mu" format="1">
  <advance width="575"/>
  <unicode hex="00B5"/>
  <outline>
    <contour>
      <point x="364" y="0" type="line"/>
      <point x="445" y="460" type="line"/>
      <point x="597" y="460" type="line"/>
      <point x="516" y="0" type="line"/>
    </contour>
    <contour>
      <point x="250" y="180" type="line" smooth="yes"/>
      <point x="240" y="126"/>
      <point x="251" y="96"/>
      <point x="301" y="96" type="curve" smooth="yes"/>
      <point x="349" y="96"/>
      <point x="386" y="126"/>
      <point x="396" y="180" type="curve"/>
      <point x="427" y="186" type="line"/>
      <point x="408" y="77"/>
      <point x="336" y="-10"/>
      <point x="222" y="-10" type="curve" smooth="yes"/>
      <point x="108" y="-10"/>
      <point x="69" y="52"/>
      <point x="89" y="164" type="curve" smooth="yes"/>
      <point x="141" y="460" type="line"/>
      <point x="299" y="460" type="line"/>
    </contour>
    <contour>
      <point x="141" y="460" type="line"/>
      <point x="286" y="460" type="line"/>
      <point x="149" y="-320" type="line"/>
      <point x="4" y="-320" type="line"/>
    </contour>
  </outline>
</glyph>
<glyph name="paragraph" format="1">
  <advance width="634"/>
  <unicode hex="00B6"/>
  <outline>
    <contour>
      <point x="421" y="606" type="line"/>
      <point x="453" y="700" type="line"/>
      <point x="677" y="700" type="line"/>
      <point x="644" y="606" type="line"/>
    </contour>
    <contour>
      <point x="635" y="700" type="line"/>
      <point x="767" y="700" type="line"/>
      <point x="452" y="-220" type="line"/>
      <point x="320" y="-220" type="line"/>
    </contour>
    <contour>
      <point x="453" y="700" type="line"/>
      <point x="586" y="700" type="line"/>
      <point x="271" y="-220" type="line"/>
      <point x="139" y="-220" type="line"/>
    </contour>
    <contour>
      <point x="315" y="271" type="line"/>
      <point x="196" y="284"/>
      <point x="128" y="366"/>
      <point x="165" y="486" type="curve" smooth="yes"/>
      <point x="206" y="617"/>
      <point x="322" y="700"/>
      <point x="453" y="700" type="curve"/>
    </contour>
  </outline>
</glyph>
<glyph name="periodcentered" format="1">
  <advance width="304"/>
  <unicode hex="00B7"/>
  <outline>
    <contour>
      <point x="97" y="271" type="curve" smooth="yes"/>
      <point x="110" y="318"/>
      <point x="165" y="363"/>
      <point x="215" y="362" type="curve" smooth="yes"/>
      <point x="266" y="361"/>
      <point x="295" y="314"/>
      <point x="282" y="267" type="curve" smooth="yes"/>
      <point x="269" y="220"/>
      <point x="214" y="175"/>
      <point x="164" y="176" type="curve" smooth="yes"/>
      <point x="113" y="177"/>
      <point x="84" y="224"/>
    </contour>
  </outline>
</glyph>
<glyph name="cedilla" format="1">
  <advance width="371"/>
  <unicode hex="00B8"/>
  <outline>
    <contour>
      <point x="136" y="70" type="line"/>
      <point x="254" y="66" type="line"/>
      <point x="121" y="-55" type="line"/>
      <point x="131" y="-53"/>
      <point x="142" y="-50"/>
      <point x="152" y="-51" type="curve" smooth="yes"/>
      <point x="204" y="-56"/>
      <point x="229" y="-102"/>
      <point x="215" y="-151" type="curve" smooth="yes"/>
      <point x="197" y="-216"/>
      <point x="124" y="-256"/>
      <point x="60" y="-258" type="curve" smooth="yes"/>
      <point x="10" y="-260"/>
      <point x="-32" y="-242"/>
      <point x="-74" y="-216" type="curve"/>
      <point x="-13" y="-151" type="line"/>
      <point x="7" y="-163"/>
      <point x="27" y="-177"/>
      <point x="53" y="-176" type="curve" smooth="yes"/>
      <point x="72" y="-175"/>
      <point x="119" y="-160"/>
      <point x="123" y="-137" type="curve" smooth="yes"/>
      <point x="127" y="-116"/>
      <point x="97" y="-109"/>
      <point x="83" y="-108" type="curve" smooth="yes"/>
      <point x="54" y="-106"/>
      <point x="22" y="-116"/>
      <point x="-7" y="-122" type="curve"/>
    </contour>
  </outline>
</glyph>
<glyph name="uni00B9" format="1">
  <advance width="453"/>
  <unicode hex="00B9"/>
  <outline>
    <contour>
      <point x="262" y="569" type="line"/>
      <point x="294" y="662" type="line"/>
      <point x="507" y="704" type="line"/>
      <point x="359" y="274" type="line"/>
      <point x="259" y="274" type="line"/>
      <point x="369" y="593" type="line"/>
    </contour>
  </outline>
</glyph>
<glyph name="ordmasculine" format="1">
  <advance width="261"/>
  <unicode hex="00BA"/>
  <outline>
    <contour>
      <point x="159" y="582" type="curve" smooth="yes"/>
      <point x="178" y="648"/>
      <point x="249" y="699"/>
      <point x="318" y="699" type="curve" smooth="yes"/>
      <point x="386" y="699"/>
      <point x="431" y="645"/>
      <point x="412" y="578" type="curve" smooth="yes"/>
      <point x="393" y="511"/>
      <point x="321" y="461"/>
      <point x="252" y="461" type="curve" smooth="yes"/>
      <point x="184" y="461"/>
      <point x="140" y="515"/>
    </contour>
    <contour>
      <point x="236" y="579" type="curve" smooth="yes"/>
      <point x="228" y="558"/>
      <point x="233" y="527"/>
      <point x="260" y="525" type="curve" smooth="yes"/>
      <point x="289" y="523"/>
      <point x="326" y="556"/>
      <point x="335" y="581" type="curve" smooth="yes"/>
      <point x="343" y="602"/>
      <point x="337" y="634"/>
      <point x="310" y="636" type="curve" smooth="yes"/>
      <point x="281" y="638"/>
      <point x="245" y="604"/>
    </contour>
  </outline>
</glyph>
<glyph name="guillemotright" format="1">
  <advance width="541"/>
  <unicode hex="00BB"/>
  <outline>
    <contour>
      <point x="460" y="275" type="line"/>
      <point x="559" y="255" type="line"/>
      <point x="336" y="1" type="line"/>
      <point x="253" y="65" type="line"/>
    </contour>
    <contour>
      <point x="559" y="255" type="line"/>
      <point x="452" y="225" type="line"/>
      <point x="320" y="445" type="line"/>
      <point x="426" y="509" type="line"/>
    </contour>
    <contour>
      <point x="257" y="275" type="line"/>
      <point x="355" y="255" type="line"/>
      <point x="132" y="1" type="line"/>
      <point x="50" y="65" type="line"/>
    </contour>
    <contour>
      <point x="355" y="255" type="line"/>
      <point x="249" y="225" type="line"/>
      <point x="117" y="445" type="line"/>
      <point x="222" y="509" type="line"/>
    </contour>
  </outline>
</glyph>
<glyph name="onequarter" format="1">
  <advance width="822"/>
  <unicode hex="00BC"/>
  <outline>
    <contour>
      <point x="753" y="700" type="line"/>
      <point x="849" y="700" type="line"/>
      <point x="206" y="0" type="line"/>
      <point x="110" y="0" type="line"/>
    </contour>
    <contour>
      <point x="125" y="572" type="line"/>
      <point x="141" y="661" type="line"/>
      <point x="350" y="702" type="line"/>
      <point x="274" y="274" type="line"/>
      <point x="176" y="274" type="line"/>
      <point x="233" y="598" type="line"/>
    </contour>
    <contour>
      <point x="420" y="74" type="line"/>
      <point x="516" y="148" type="line"/>
      <point x="702" y="148" type="line" smooth="yes"/>
      <point x="714" y="161" type="line" smooth="yes"/>
      <point x="820" y="161" type="line"/>
      <point x="805" y="74" type="line"/>
    </contour>
    <contour>
      <point x="528" y="104" type="line"/>
      <point x="420" y="74" type="line"/>
      <point x="725" y="420" type="line"/>
      <point x="800" y="420" type="line"/>
      <point x="726" y="0" type="line"/>
      <point x="621" y="0" type="line"/>
      <point x="638" y="96" type="line" smooth="yes"/>
      <point x="650" y="102" type="line" smooth="yes"/>
      <point x="680" y="274" type="line"/>
    </contour>
  </outline>
</glyph>
<glyph name="onehalf" format="1">
  <advance width="843"/>
  <unicode hex="00BD"/>
  <outline>
    <contour>
      <point x="771" y="699" type="line"/>
      <point x="877" y="698" type="line"/>
      <point x="149" y="0" type="line"/>
      <point x="43" y="0" type="line"/>
    </contour>
    <contour>
      <point x="160" y="569" type="line"/>
      <point x="191" y="662" type="line"/>
      <point x="405" y="704" type="line"/>
      <point x="256" y="274" type="line"/>
      <point x="157" y="274" type="line"/>
      <point x="266" y="593" type="line"/>
    </contour>
    <contour>
      <point x="415" y="3" type="line"/>
      <point x="657" y="195" type="line" smooth="yes"/>
      <point x="688" y="219"/>
      <point x="737" y="249"/>
      <point x="748" y="290" type="curve" smooth="yes"/>
      <point x="754" y="313"/>
      <point x="747" y="338"/>
      <point x="721" y="341" type="curve" smooth="yes"/>
      <point x="679" y="346"/>
      <point x="651" y="297"/>
      <point x="633" y="267" type="curve"/>
      <point x="531" y="268" type="line"/>
      <point x="567" y="354"/>
      <point x="638" y="431"/>
      <point x="738" y="430" type="curve" smooth="yes"/>
      <point x="814" y="430"/>
      <point x="875" y="372"/>
      <point x="852" y="294" type="curve" smooth="yes"/>
      <point x="838" y="247"/>
      <point x="800" y="211"/>
      <point x="762" y="183" type="curve" smooth="yes"/>
      <point x="644" y="98" type="line"/>
      <point x="795" y="96" type="line"/>
      <point x="762" y="2" type="line"/>
    </contour>
  </outline>
</glyph>
<glyph name="threequarters" format="1">
  <advance width="828"/>
  <unicode hex="00BE"/>
  <outline>
    <contour>
      <point x="831" y="699" type="line"/>
      <point x="937" y="698" type="line"/>
      <point x="209" y="0" type="line"/>
      <point x="103" y="0" type="line"/>
    </contour>
    <contour>
      <point x="265" y="484" type="curve"/>
      <point x="279" y="528" type="line"/>
      <point x="313" y="535"/>
      <point x="361" y="547"/>
      <point x="373" y="586" type="curve" smooth="yes"/>
      <point x="379" y="605"/>
      <point x="369" y="623"/>
      <point x="349" y="624" type="curve" smooth="yes"/>
      <point x="318" y="625"/>
      <point x="296" y="599"/>
      <point x="279" y="578" type="curve"/>
      <point x="183" y="579" type="line"/>
      <point x="217" y="650"/>
      <point x="277" y="706"/>
      <point x="361" y="707" type="curve" smooth="yes"/>
      <point x="428" y="707"/>
      <point x="494" y="664"/>
      <point x="472" y="590" type="curve" smooth="yes"/>
      <point x="446" y="503"/>
      <point x="341" y="489"/>
    </contour>
    <contour>
      <point x="224" y="270" type="curve" smooth="yes"/>
      <point x="135" y="271"/>
      <point x="99" y="332"/>
      <point x="108" y="414" type="curve"/>
      <point x="204" y="414" type="line"/>
      <point x="204" y="385"/>
      <point x="204" y="357"/>
      <point x="240" y="354" type="curve" smooth="yes"/>
      <point x="269" y="351"/>
      <point x="310" y="379"/>
      <point x="319" y="407" type="curve" smooth="yes"/>
      <point x="334" y="452"/>
      <point x="285" y="458"/>
      <point x="254" y="464" type="curve"/>
      <point x="271" y="514" type="line"/>
      <point x="343" y="509"/>
      <point x="444" y="488"/>
      <point x="417" y="393" type="curve" smooth="yes"/>
      <point x="395" y="313"/>
      <point x="301" y="269"/>
    </contour>
    <contour>
      <point x="400" y="76" type="line"/>
      <point x="505" y="147" type="line"/>
      <point x="679" y="149" type="line"/>
      <point x="694" y="162" type="line"/>
      <point x="806" y="162" type="line"/>
      <point x="775" y="75" type="line"/>
    </contour>
    <contour>
      <point x="523" y="106" type="line"/>
      <point x="393" y="69" type="line"/>
      <point x="750" y="419" type="line"/>
      <point x="832" y="420" type="line"/>
      <point x="688" y="0" type="line"/>
      <point x="581" y="0" type="line"/>
      <point x="614" y="96" type="line"/>
      <point x="627" y="102" type="line"/>
      <point x="682" y="256" type="line"/>
    </contour>
  </outline>
</glyph>
<glyph name="questiondown" format="1">
  <advance width="591"/>
  <unicode hex="00BF"/>
  <outline>
    <contour>
      <point x="211" y="199" type="curve" smooth="yes"/>
      <point x="193" y="147"/>
      <point x="225" y="114"/>
      <point x="277" y="112" type="curve" smooth="yes"/>
      <point x="345" y="109"/>
      <point x="407" y="155"/>
      <point x="456" y="197" type="curve"/>
      <point x="535" y="107" type="line"/>
      <point x="452" y="38"/>
      <point x="353" y="-20"/>
      <point x="241" y="-19" type="curve" smooth="yes"/>
      <point x="118" y="-18"/>
      <point x="24" y="75"/>
      <point x="62" y="201" type="curve" smooth="yes"/>
      <point x="99" y="322"/>
      <point x="216" y="387"/>
      <point x="331" y="415" type="curve"/>
      <point x="366" y="497" type="line"/>
      <point x="492" y="497" type="line"/>
      <point x="453" y="319" type="line"/>
      <point x="425" y="319" type="line"/>
      <point x="349" y="315"/>
      <point x="238" y="279"/>
    </contour>
    <contour>
      <point x="572" y="638" type="curve" smooth="yes"/>
      <point x="560" y="593"/>
      <point x="502" y="556"/>
      <point x="457" y="557" type="curve" smooth="yes"/>
      <point x="411" y="558"/>
      <point x="375" y="595"/>
      <point x="387" y="642" type="curve" smooth="yes"/>
      <point x="399" y="687"/>
      <point x="456" y="725"/>
      <point x="501" y="724" type="curve" smooth="yes"/>
      <point x="547" y="723"/>
      <point x="584" y="685"/>
    </contour>
  </outline>
</glyph>
<glyph name="Agrave" format="1">
  <advance width="693"/>
  <unicode hex="00C0"/>
  <outline>
    <contour>
      <point x="163" y="133" type="line"/>
      <point x="218" y="262" type="line"/>
      <point x="552" y="263" type="line"/>
      <point x="516" y="132" type="line"/>
    </contour>
    <contour>
      <point x="449" y="438" type="line"/>
      <point x="279" y="215" type="line"/>
      <point x="275" y="175" type="line"/>
      <point x="134" y="0" type="line"/>
      <point x="-63" y="0" type="line"/>
      <point x="545" y="749" type="line"/>
      <point x="640" y="0" type="line"/>
      <point x="459" y="0" type="line"/>
      <point x="436" y="170" type="line"/>
      <point x="459" y="214" type="line"/>
    </contour>
    <contour>
      <point x="467" y="959" type="line"/>
      <point x="589" y="1008" type="line"/>
      <point x="680" y="842" type="line"/>
      <point x="591" y="805" type="line"/>
    </contour>
  </outline>
</glyph>
<glyph name="Aacute" format="1">
  <advance width="693"/>
  <unicode hex="00C1"/>
  <outline>
    <contour>
      <point x="163" y="133" type="line"/>
      <point x="218" y="262" type="line"/>
      <point x="552" y="263" type="line"/>
      <point x="516" y="132" type="line"/>
    </contour>
    <contour>
      <point x="449" y="438" type="line"/>
      <point x="279" y="215" type="line"/>
      <point x="275" y="175" type="line"/>
      <point x="134" y="0" type="line"/>
      <point x="-63" y="0" type="line"/>
      <point x="545" y="749" type="line"/>
      <point x="640" y="0" type="line"/>
      <point x="459" y="0" type="line"/>
      <point x="436" y="170" type="line"/>
      <point x="459" y="214" type="line"/>
    </contour>
    <contour>
      <point x="771" y="948" type="line"/>
      <point x="556" y="806" type="line"/>
      <point x="478" y="853" type="line"/>
      <point x="669" y="1006" type="line"/>
    </contour>
  </outline>
</glyph>
<glyph name="Acircumflex" format="1">
  <advance width="693"/>
  <unicode hex="00C2"/>
  <outline>
    <contour>
      <point x="163" y="133" type="line"/>
      <point x="218" y="262" type="line"/>
      <point x="552" y="263" type="line"/>
      <point x="516" y="132" type="line"/>
    </contour>
    <contour>
      <point x="449" y="438" type="line"/>
      <point x="279" y="215" type="line"/>
      <point x="275" y="175" type="line"/>
      <point x="134" y="0" type="line"/>
      <point x="-63" y="0" type="line"/>
      <point x="545" y="749" type="line"/>
      <point x="640" y="0" type="line"/>
      <point x="459" y="0" type="line"/>
      <point x="436" y="170" type="line"/>
      <point x="459" y="214" type="line"/>
    </contour>
    <contour>
      <point x="600" y="874" type="line"/>
      <point x="485" y="791" type="line"/>
      <point x="400" y="869" type="line"/>
      <point x="628" y="1003" type="line"/>
      <point x="776" y="858" type="line"/>
      <point x="655" y="790" type="line"/>
    </contour>
  </outline>
</glyph>
<glyph name="Atilde" format="1">
  <advance width="693"/>
  <unicode hex="00C3"/>
  <outline>
    <contour>
      <point x="163" y="133" type="line"/>
      <point x="218" y="262" type="line"/>
      <point x="552" y="263" type="line"/>
      <point x="516" y="132" type="line"/>
    </contour>
    <contour>
      <point x="449" y="438" type="line"/>
      <point x="279" y="215" type="line"/>
      <point x="275" y="175" type="line"/>
      <point x="134" y="0" type="line"/>
      <point x="-63" y="0" type="line"/>
      <point x="545" y="749" type="line"/>
      <point x="640" y="0" type="line"/>
      <point x="459" y="0" type="line"/>
      <point x="436" y="170" type="line"/>
      <point x="459" y="214" type="line"/>
    </contour>
    <contour>
      <point x="400" y="868" type="line"/>
      <point x="432" y="912"/>
      <point x="479" y="962"/>
      <point x="539" y="959" type="curve" smooth="yes"/>
      <point x="582" y="957"/>
      <point x="607" y="906"/>
      <point x="650" y="909" type="curve" smooth="yes"/>
      <point x="683" y="911"/>
      <point x="709" y="940"/>
      <point x="732" y="960" type="curve"/>
      <point x="783" y="882" type="line"/>
      <point x="747" y="843"/>
      <point x="692" y="795"/>
      <point x="634" y="800" type="curve" smooth="yes"/>
      <point x="591" y="804"/>
      <point x="564" y="857"/>
      <point x="520" y="851" type="curve" smooth="yes"/>
      <point x="491" y="847"/>
      <point x="472" y="823"/>
      <point x="455" y="802" type="curve"/>
    </contour>
  </outline>
</glyph>
<glyph name="Adieresis" format="1">
  <advance width="693"/>
  <unicode hex="00C4"/>
  <outline>
    <contour>
      <point x="163" y="133" type="line"/>
      <point x="218" y="262" type="line"/>
      <point x="552" y="263" type="line"/>
      <point x="516" y="132" type="line"/>
    </contour>
    <contour>
      <point x="449" y="438" type="line"/>
      <point x="279" y="215" type="line"/>
      <point x="275" y="175" type="line"/>
      <point x="134" y="0" type="line"/>
      <point x="-63" y="0" type="line"/>
      <point x="545" y="749" type="line"/>
      <point x="640" y="0" type="line"/>
      <point x="459" y="0" type="line"/>
      <point x="436" y="170" type="line"/>
      <point x="459" y="214" type="line"/>
    </contour>
    <contour>
      <point x="624" y="832" type="curve" smooth="yes"/>
      <point x="636" y="875"/>
      <point x="688" y="912"/>
      <point x="732" y="911" type="curve" smooth="yes"/>
      <point x="777" y="910"/>
      <point x="808" y="872"/>
      <point x="796" y="827" type="curve" smooth="yes"/>
      <point x="784" y="784"/>
      <point x="732" y="746"/>
      <point x="688" y="747" type="curve" smooth="yes"/>
      <point x="643" y="748"/>
      <point x="612" y="787"/>
    </contour>
    <contour>
      <point x="352" y="838" type="curve" smooth="yes"/>
      <point x="364" y="881"/>
      <point x="417" y="919"/>
      <point x="461" y="918" type="curve" smooth="yes"/>
      <point x="506" y="917"/>
      <point x="537" y="878"/>
      <point x="525" y="833" type="curve" smooth="yes"/>
      <point x="513" y="790"/>
      <point x="460" y="753"/>
      <point x="416" y="754" type="curve" smooth="yes"/>
      <point x="371" y="755"/>
      <point x="340" y="793"/>
    </contour>
  </outline>
</glyph>
<glyph name="Aring" format="1">
  <advance width="693"/>
  <unicode hex="00C5"/>
  <outline>
    <contour>
      <point x="163" y="133" type="line"/>
      <point x="218" y="262" type="line"/>
      <point x="552" y="263" type="line"/>
      <point x="516" y="132" type="line"/>
    </contour>
    <contour>
      <point x="449" y="438" type="line"/>
      <point x="279" y="215" type="line"/>
      <point x="275" y="175" type="line"/>
      <point x="134" y="0" type="line"/>
      <point x="-63" y="0" type="line"/>
      <point x="545" y="749" type="line"/>
      <point x="640" y="0" type="line"/>
      <point x="459" y="0" type="line"/>
      <point x="436" y="170" type="line"/>
      <point x="459" y="214" type="line"/>
    </contour>
    <contour>
      <point x="445" y="803" type="curve" smooth="yes"/>
      <point x="463" y="865"/>
      <point x="532" y="916"/>
      <point x="597" y="916" type="curve" smooth="yes"/>
      <point x="662" y="916"/>
      <point x="705" y="862"/>
      <point x="687" y="799" type="curve" smooth="yes"/>
      <point x="669" y="736"/>
      <point x="600" y="685"/>
      <point x="534" y="685" type="curve" smooth="yes"/>
      <point x="469" y="685"/>
      <point x="427" y="740"/>
    </contour>
    <contour>
      <point x="522" y="799" type="curve" smooth="yes"/>
      <point x="517" y="782"/>
      <point x="524" y="756"/>
      <point x="544" y="754" type="curve" smooth="yes"/>
      <point x="567" y="751"/>
      <point x="603" y="782"/>
      <point x="610" y="802" type="curve" smooth="yes"/>
      <point x="615" y="819"/>
      <point x="607" y="845"/>
      <point x="587" y="847" type="curve" smooth="yes"/>
      <point x="564" y="850"/>
      <point x="529" y="819"/>
    </contour>
  </outline>
</glyph>
<glyph name="AE" format="1">
  <advance width="1025"/>
  <unicode hex="00C6"/>
  <outline>
    <contour>
      <point x="249" y="149" type="line"/>
      <point x="311" y="306" type="line"/>
      <point x="598" y="306" type="line"/>
      <point x="543" y="148" type="line"/>
    </contour>
    <contour>
      <point x="604" y="700" type="line"/>
      <point x="744" y="656" type="line"/>
      <point x="172" y="0" type="line"/>
      <point x="-47" y="0" type="line"/>
    </contour>
    <contour>
      <point x="540" y="0" type="line"/>
      <point x="589" y="142" type="line"/>
      <point x="958" y="142" type="line"/>
      <point x="908" y="0" type="line"/>
    </contour>
    <contour>
      <point x="749" y="558" type="line"/>
      <point x="604" y="700" type="line"/>
      <point x="1148" y="700" type="line"/>
      <point x="1099" y="558" type="line"/>
    </contour>
    <contour>
      <point x="642" y="298" type="line"/>
      <point x="690" y="436" type="line"/>
      <point x="1040" y="436" type="line"/>
      <point x="991" y="298" type="line"/>
    </contour>
    <contour>
      <point x="701" y="700" type="line"/>
      <point x="882" y="700" type="line"/>
      <point x="642" y="0" type="line"/>
      <point x="462" y="0" type="line"/>
    </contour>
  </outline>
</glyph>
<glyph name="Ccedilla" format="1">
  <advance width="659"/>
  <unicode hex="00C7"/>
  <outline>
    <contour>
      <point x="276" y="350" type="curve" smooth="yes"/>
      <point x="240" y="252"/>
      <point x="277" y="152"/>
      <point x="391" y="149" type="curve" smooth="yes"/>
      <point x="477" y="147"/>
      <point x="556" y="192"/>
      <point x="625" y="238" type="curve"/>
      <point x="570" y="54" type="line"/>
      <point x="501" y="13"/>
      <point x="426" y="-17"/>
      <point x="345" y="-17" type="curve" smooth="yes"/>
      <point x="138" y="-16"/>
      <point x="34" y="160"/>
      <point x="94" y="350" type="curve" smooth="yes"/>
      <point x="158" y="554"/>
      <point x="358" y="717"/>
      <point x="575" y="717" type="curve" smooth="yes"/>
      <point x="649" y="717"/>
      <point x="710" y="692"/>
      <point x="766" y="645" type="curve"/>
      <point x="709" y="460" type="line"/>
      <point x="671" y="518"/>
      <point x="619" y="551"/>
      <point x="548" y="551" type="curve" smooth="yes"/>
      <point x="429" y="550"/>
      <point x="317" y="459"/>
    </contour>
    <contour>
      <point x="291" y="46" type="line"/>
      <point x="409" y="43" type="line"/>
      <point x="277" y="-79" type="line"/>
      <point x="287" y="-77"/>
      <point x="298" y="-75"/>
      <point x="308" y="-76" type="curve" smooth="yes"/>
      <point x="360" y="-81"/>
      <point x="385" y="-127"/>
      <point x="371" y="-175" type="curve" smooth="yes"/>
      <point x="352" y="-240"/>
      <point x="280" y="-279"/>
      <point x="216" y="-282" type="curve" smooth="yes"/>
      <point x="166" y="-284"/>
      <point x="123" y="-265"/>
      <point x="81" y="-240" type="curve"/>
      <point x="142" y="-175" type="line"/>
      <point x="162" y="-187"/>
      <point x="183" y="-201"/>
      <point x="209" y="-200" type="curve" smooth="yes"/>
      <point x="228" y="-199"/>
      <point x="275" y="-184"/>
      <point x="279" y="-161" type="curve" smooth="yes"/>
      <point x="283" y="-140"/>
      <point x="253" y="-133"/>
      <point x="239" y="-132" type="curve" smooth="yes"/>
      <point x="210" y="-130"/>
      <point x="178" y="-139"/>
      <point x="149" y="-145" type="curve"/>
    </contour>
  </outline>
</glyph>
<glyph name="Eacute" format="1">
  <advance width="569"/>
  <unicode hex="00C9"/>
  <outline>
    <contour>
      <point x="121" y="0" type="line"/>
      <point x="170" y="142" type="line"/>
      <point x="508" y="142" type="line"/>
      <point x="458" y="0" type="line"/>
    </contour>
    <contour>
      <point x="312" y="559" type="line"/>
      <point x="361" y="700" type="line"/>
      <point x="698" y="700" type="line"/>
      <point x="649" y="558" type="line"/>
    </contour>
    <contour>
      <point x="222" y="298" type="line"/>
      <point x="271" y="436" type="line"/>
      <point x="589" y="436" type="line"/>
      <point x="541" y="298" type="line"/>
    </contour>
    <contour>
      <point x="251" y="700" type="line"/>
      <point x="414" y="700" type="line"/>
      <point x="173" y="0" type="line"/>
      <point x="13" y="0" type="line"/>
    </contour>
    <contour>
      <point x="706" y="927" type="line"/>
      <point x="491" y="784" type="line"/>
      <point x="413" y="832" type="line"/>
      <point x="604" y="984" type="line"/>
    </contour>
  </outline>
</glyph>
<glyph name="Ecircumflex" format="1">
  <advance width="569"/>
  <unicode hex="00CA"/>
  <outline>
    <contour>
      <point x="121" y="0" type="line"/>
      <point x="170" y="142" type="line"/>
      <point x="508" y="142" type="line"/>
      <point x="458" y="0" type="line"/>
    </contour>
    <contour>
      <point x="312" y="559" type="line"/>
      <point x="361" y="700" type="line"/>
      <point x="698" y="700" type="line"/>
      <point x="649" y="558" type="line"/>
    </contour>
    <contour>
      <point x="222" y="298" type="line"/>
      <point x="271" y="436" type="line"/>
      <point x="589" y="436" type="line"/>
      <point x="541" y="298" type="line"/>
    </contour>
    <contour>
      <point x="251" y="700" type="line"/>
      <point x="414" y="700" type="line"/>
      <point x="173" y="0" type="line"/>
      <point x="13" y="0" type="line"/>
    </contour>
    <contour>
      <point x="549" y="883" type="line"/>
      <point x="411" y="790" type="line"/>
      <point x="369" y="834" type="line"/>
      <point x="562" y="970" type="line"/>
      <point x="674" y="826" type="line"/>
      <point x="619" y="790" type="line"/>
    </contour>
  </outline>
</glyph>
<glyph name="Edieresis" format="1">
  <advance width="568"/>
  <unicode hex="00CB"/>
  <outline>
    <contour>
      <point x="121" y="0" type="line"/>
      <point x="170" y="142" type="line"/>
      <point x="508" y="142" type="line"/>
      <point x="458" y="0" type="line"/>
    </contour>
    <contour>
      <point x="312" y="558" type="line"/>
      <point x="361" y="700" type="line"/>
      <point x="698" y="700" type="line"/>
      <point x="649" y="558" type="line"/>
    </contour>
    <contour>
      <point x="222" y="298" type="line"/>
      <point x="271" y="436" type="line"/>
      <point x="589" y="436" type="line"/>
      <point x="541" y="298" type="line"/>
    </contour>
    <contour>
      <point x="251" y="700" type="line"/>
      <point x="414" y="700" type="line"/>
      <point x="173" y="0" type="line"/>
      <point x="13" y="0" type="line"/>
    </contour>
    <contour>
      <point x="564" y="869" type="curve" smooth="yes"/>
      <point x="576" y="912"/>
      <point x="628" y="949"/>
      <point x="672" y="948" type="curve" smooth="yes"/>
      <point x="717" y="947"/>
      <point x="748" y="909"/>
      <point x="736" y="864" type="curve" smooth="yes"/>
      <point x="724" y="821"/>
      <point x="672" y="783"/>
      <point x="628" y="784" type="curve" smooth="yes"/>
      <point x="583" y="785"/>
      <point x="552" y="824"/>
    </contour>
    <contour>
      <point x="333" y="869" type="curve" smooth="yes"/>
      <point x="345" y="912"/>
      <point x="397" y="949"/>
      <point x="441" y="948" type="curve" smooth="yes"/>
      <point x="486" y="947"/>
      <point x="517" y="909"/>
      <point x="505" y="864" type="curve" smooth="yes"/>
      <point x="493" y="821"/>
      <point x="441" y="783"/>
      <point x="397" y="784" type="curve" smooth="yes"/>
      <point x="352" y="785"/>
      <point x="321" y="824"/>
    </contour>
  </outline>
</glyph>
<glyph name="Igrave" format="1">
  <advance width="303"/>
  <unicode hex="00CC"/>
  <outline>
    <contour>
      <point x="251" y="700" type="line"/>
      <point x="423" y="700" type="line"/>
      <point x="182" y="0" type="line"/>
      <point x="13" y="0" type="line"/>
    </contour>
    <contour>
      <point x="258" y="938" type="line"/>
      <point x="380" y="987" type="line"/>
      <point x="471" y="821" type="line"/>
      <point x="382" y="783" type="line"/>
    </contour>
  </outline>
</glyph>
<glyph name="Iacute" format="1">
  <advance width="303"/>
  <unicode hex="00CD"/>
  <outline>
    <contour>
      <point x="251" y="700" type="line"/>
      <point x="423" y="700" type="line"/>
      <point x="182" y="0" type="line"/>
      <point x="13" y="0" type="line"/>
    </contour>
    <contour>
      <point x="562" y="927" type="line"/>
      <point x="348" y="784" type="line"/>
      <point x="270" y="832" type="line"/>
      <point x="460" y="984" type="line"/>
    </contour>
  </outline>
</glyph>
<glyph name="Icircumflex" format="1">
  <advance width="320"/>
  <unicode hex="00CE"/>
  <outline>
    <contour>
      <point x="197" y="700" type="line"/>
      <point x="369" y="700" type="line"/>
      <point x="246" y="0" type="line"/>
      <point x="74" y="0" type="line"/>
    </contour>
    <contour>
      <point x="309" y="884" type="line"/>
      <point x="182" y="789" type="line"/>
      <point x="139" y="829" type="line"/>
      <point x="324" y="969" type="line"/>
      <point x="459" y="829" type="line"/>
      <point x="402" y="789" type="line"/>
    </contour>
  </outline>
</glyph>
<glyph name="Idieresis" format="1">
  <advance width="320"/>
  <unicode hex="00CF"/>
  <outline>
    <contour>
      <point x="197" y="700" type="line"/>
      <point x="369" y="700" type="line"/>
      <point x="246" y="0" type="line"/>
      <point x="74" y="0" type="line"/>
    </contour>
    <contour>
      <point x="341" y="868" type="curve" smooth="yes"/>
      <point x="350" y="918"/>
      <point x="396" y="961"/>
      <point x="451" y="961" type="curve" smooth="yes"/>
      <point x="506" y="961"/>
      <point x="539" y="918"/>
      <point x="530" y="868" type="curve" smooth="yes"/>
      <point x="521" y="818"/>
      <point x="474" y="776"/>
      <point x="419" y="776" type="curve" smooth="yes"/>
      <point x="364" y="776"/>
      <point x="332" y="818"/>
    </contour>
    <contour>
      <point x="97" y="868" type="curve" smooth="yes"/>
      <point x="106" y="918"/>
      <point x="152" y="961"/>
      <point x="207" y="961" type="curve" smooth="yes"/>
      <point x="262" y="961"/>
      <point x="295" y="918"/>
      <point x="286" y="868" type="curve" smooth="yes"/>
      <point x="277" y="818"/>
      <point x="230" y="776"/>
      <point x="175" y="776" type="curve" smooth="yes"/>
      <point x="120" y="776"/>
      <point x="88" y="818"/>
    </contour>
  </outline>
</glyph>
<glyph name="Ntilde" format="1">
  <advance width="747"/>
  <unicode hex="00D1"/>
  <outline>
    <contour>
      <point x="705" y="700" type="line"/>
      <point x="866" y="700" type="line"/>
      <point x="616" y="-32" type="line"/>
      <point x="308" y="391" type="line"/>
      <point x="174" y="0" type="line"/>
      <point x="12" y="0" type="line"/>
      <point x="262" y="732" type="line"/>
      <point x="570" y="309" type="line"/>
    </contour>
    <contour>
      <point x="388" y="839" type="line"/>
      <point x="420" y="883"/>
      <point x="467" y="932"/>
      <point x="527" y="929" type="curve" smooth="yes"/>
      <point x="570" y="927"/>
      <point x="594" y="876"/>
      <point x="637" y="879" type="curve" smooth="yes"/>
      <point x="670" y="881"/>
      <point x="697" y="911"/>
      <point x="720" y="931" type="curve"/>
      <point x="771" y="852" type="line"/>
      <point x="735" y="813"/>
      <point x="680" y="765"/>
      <point x="622" y="770" type="curve" smooth="yes"/>
      <point x="579" y="774"/>
      <point x="552" y="827"/>
      <point x="508" y="821" type="curve" smooth="yes"/>
      <point x="479" y="817"/>
      <point x="460" y="793"/>
      <point x="443" y="772" type="curve"/>
    </contour>
  </outline>
</glyph>
<glyph name="Otilde" format="1">
  <advance width="773"/>
  <unicode hex="00D5"/>
  <outline>
    <contour>
      <point x="271" y="350" type="curve" smooth="yes"/>
      <point x="237" y="259"/>
      <point x="254" y="146"/>
      <point x="371" y="143" type="curve" smooth="yes"/>
      <point x="490" y="140"/>
      <point x="594" y="245"/>
      <point x="634" y="350" type="curve" smooth="yes"/>
      <point x="668" y="442"/>
      <point x="650" y="555"/>
      <point x="533" y="557" type="curve" smooth="yes"/>
      <point x="414" y="559"/>
      <point x="310" y="455"/>
    </contour>
    <contour>
      <point x="94" y="350" type="curve" smooth="yes"/>
      <point x="157" y="549"/>
      <point x="354" y="716"/>
      <point x="567" y="716" type="curve" smooth="yes"/>
      <point x="773" y="716"/>
      <point x="869" y="535"/>
      <point x="811" y="350" type="curve" smooth="yes"/>
      <point x="748" y="150"/>
      <point x="551" y="-24"/>
      <point x="335" y="-23" type="curve" smooth="yes"/>
      <point x="126" y="-22"/>
      <point x="36" y="165"/>
    </contour>
    <contour>
      <point x="467" y="847" type="line"/>
      <point x="457" y="886"/>
      <point x="557" y="925"/>
      <point x="585" y="924" type="curve" smooth="yes"/>
      <point x="624" y="923"/>
      <point x="647" y="877"/>
      <point x="686" y="880" type="curve" smooth="yes"/>
      <point x="714" y="882"/>
      <point x="738" y="909"/>
      <point x="758" y="926" type="curve"/>
      <point x="794" y="879" type="line"/>
      <point x="765" y="848"/>
      <point x="724" y="807"/>
      <point x="677" y="811" type="curve" smooth="yes"/>
      <point x="639" y="814"/>
      <point x="617" y="858"/>
      <point x="579" y="856" type="curve" smooth="yes"/>
      <point x="549" y="854"/>
      <point x="528" y="828"/>
      <point x="511" y="807" type="curve"/>
    </contour>
  </outline>
</glyph>
<glyph name="Odieresis" format="1">
  <advance width="821"/>
  <unicode hex="00D6"/>
  <outline>
    <contour>
      <point x="275" y="350" type="curve" smooth="yes"/>
      <point x="253" y="226"/>
      <point x="317" y="140"/>
      <point x="435" y="140" type="curve" smooth="yes"/>
      <point x="553" y="140"/>
      <point x="648" y="226"/>
      <point x="670" y="350" type="curve" smooth="yes"/>
      <point x="692" y="474"/>
      <point x="631" y="560"/>
      <point x="509" y="560" type="curve" smooth="yes"/>
      <point x="391" y="560"/>
      <point x="297" y="474"/>
    </contour>
    <contour>
      <point x="96" y="350" type="curve" smooth="yes"/>
      <point x="134" y="566"/>
      <point x="322" y="716"/>
      <point x="536" y="716" type="curve" smooth="yes"/>
      <point x="752" y="716"/>
      <point x="888" y="566"/>
      <point x="850" y="350" type="curve" smooth="yes"/>
      <point x="812" y="134"/>
      <point x="626" y="-22"/>
      <point x="406" y="-22" type="curve" smooth="yes"/>
      <point x="186" y="-22"/>
      <point x="58" y="134"/>
    </contour>
    <contour>
      <point x="592" y="818" type="curve" smooth="yes"/>
      <point x="601" y="868"/>
      <point x="648" y="911"/>
      <point x="703" y="911" type="curve" smooth="yes"/>
      <point x="758" y="911"/>
      <point x="789" y="868"/>
      <point x="780" y="818" type="curve" smooth="yes"/>
      <point x="771" y="768"/>
      <point x="725" y="726"/>
      <point x="670" y="726" type="curve" smooth="yes"/>
      <point x="615" y="726"/>
      <point x="583" y="768"/>
    </contour>
    <contour>
      <point x="348" y="818" type="curve" smooth="yes"/>
      <point x="357" y="868"/>
      <point x="404" y="911"/>
      <point x="459" y="911" type="curve" smooth="yes"/>
      <point x="514" y="911"/>
      <point x="545" y="868"/>
      <point x="536" y="818" type="curve" smooth="yes"/>
      <point x="527" y="768"/>
      <point x="481" y="726"/>
      <point x="426" y="726" type="curve" smooth="yes"/>
      <point x="371" y="726"/>
      <point x="339" y="768"/>
    </contour>
  </outline>
</glyph>
<glyph name="multiply" format="1">
  <advance width="560"/>
  <unicode hex="00D7"/>
  <outline>
    <contour>
      <point x="84" y="2" type="line"/>
      <point x="22" y="106" type="line"/>
      <point x="229" y="262" type="line"/>
      <point x="129" y="420" type="line"/>
      <point x="245" y="509" type="line"/>
      <point x="338" y="348" type="line"/>
      <point x="542" y="508" type="line"/>
      <point x="605" y="404" type="line"/>
      <point x="397" y="248" type="line"/>
      <point x="497" y="90" type="line"/>
      <point x="381" y="1" type="line"/>
      <point x="289" y="162" type="line"/>
    </contour>
  </outline>
</glyph>
<glyph name="Oslash" format="1">
  <advance width="743"/>
  <unicode hex="00D8"/>
  <outline>
    <contour>
      <point x="271" y="350" type="curve" smooth="yes"/>
      <point x="237" y="258"/>
      <point x="254" y="145"/>
      <point x="371" y="143" type="curve" smooth="yes"/>
      <point x="491" y="140"/>
      <point x="594" y="244"/>
      <point x="634" y="350" type="curve" smooth="yes"/>
      <point x="668" y="442"/>
      <point x="650" y="555"/>
      <point x="533" y="557" type="curve" smooth="yes"/>
      <point x="413" y="560"/>
      <point x="311" y="456"/>
    </contour>
    <contour>
      <point x="94" y="350" type="curve" smooth="yes"/>
      <point x="157" y="550"/>
      <point x="353" y="717"/>
      <point x="567" y="716" type="curve" smooth="yes"/>
      <point x="773" y="715"/>
      <point x="869" y="535"/>
      <point x="811" y="350" type="curve" smooth="yes"/>
      <point x="748" y="150"/>
      <point x="550" y="-24"/>
      <point x="335" y="-23" type="curve" smooth="yes"/>
      <point x="127" y="-22"/>
      <point x="36" y="165"/>
    </contour>
    <contour>
      <point x="852" y="756" type="line"/>
      <point x="911" y="696" type="line"/>
      <point x="46" y="-56" type="line"/>
      <point x="-11" y="-2" type="line"/>
    </contour>
  </outline>
</glyph>
<glyph name="Uacute" format="1">
  <advance width="661"/>
  <unicode hex="00DA"/>
  <outline>
    <contour>
      <point x="247" y="700" type="line"/>
      <point x="415" y="700" type="line"/>
      <point x="256" y="243" type="line" smooth="yes"/>
      <point x="240" y="190"/>
      <point x="243" y="129"/>
      <point x="311" y="126" type="curve" smooth="yes"/>
      <point x="381" y="123"/>
      <point x="435" y="184"/>
      <point x="460" y="244" type="curve"/>
      <point x="618" y="700" type="line"/>
      <point x="786" y="700" type="line"/>
      <point x="626" y="230" type="line" smooth="yes"/>
      <point x="572" y="81"/>
      <point x="440" y="-29"/>
      <point x="277" y="-29" type="curve" smooth="yes"/>
      <point x="123" y="-29"/>
      <point x="44" y="84"/>
      <point x="87" y="230" type="curve" smooth="yes"/>
    </contour>
    <contour>
      <point x="748" y="920" type="line"/>
      <point x="534" y="778" type="line"/>
      <point x="455" y="825" type="line"/>
      <point x="646" y="978" type="line"/>
    </contour>
  </outline>
</glyph>
<glyph name="Ucircumflex" format="1">
  <advance width="661"/>
  <unicode hex="00DB"/>
  <outline>
    <contour>
      <point x="247" y="700" type="line"/>
      <point x="415" y="700" type="line"/>
      <point x="256" y="243" type="line" smooth="yes"/>
      <point x="240" y="190"/>
      <point x="243" y="129"/>
      <point x="311" y="126" type="curve" smooth="yes"/>
      <point x="381" y="123"/>
      <point x="435" y="184"/>
      <point x="460" y="244" type="curve"/>
      <point x="618" y="700" type="line"/>
      <point x="786" y="700" type="line"/>
      <point x="626" y="230" type="line" smooth="yes"/>
      <point x="572" y="81"/>
      <point x="440" y="-29"/>
      <point x="277" y="-29" type="curve" smooth="yes"/>
      <point x="123" y="-29"/>
      <point x="45" y="84"/>
      <point x="88" y="230" type="curve" smooth="yes"/>
    </contour>
    <contour>
      <point x="578" y="859" type="line"/>
      <point x="464" y="777" type="line"/>
      <point x="379" y="855" type="line"/>
      <point x="607" y="989" type="line"/>
      <point x="754" y="844" type="line"/>
      <point x="634" y="776" type="line"/>
    </contour>
  </outline>
</glyph>
<glyph name="Udieresis" format="1">
  <advance width="661"/>
  <unicode hex="00DC"/>
  <outline>
    <contour>
      <point x="247" y="700" type="line"/>
      <point x="415" y="700" type="line"/>
      <point x="256" y="243" type="line" smooth="yes"/>
      <point x="240" y="190"/>
      <point x="243" y="129"/>
      <point x="311" y="126" type="curve" smooth="yes"/>
      <point x="381" y="123"/>
      <point x="435" y="184"/>
      <point x="460" y="244" type="curve"/>
      <point x="618" y="700" type="line"/>
      <point x="786" y="700" type="line"/>
      <point x="626" y="230" type="line" smooth="yes"/>
      <point x="572" y="81"/>
      <point x="440" y="-29"/>
      <point x="277" y="-29" type="curve" smooth="yes"/>
      <point x="123" y="-29"/>
      <point x="44" y="84"/>
      <point x="87" y="230" type="curve" smooth="yes"/>
    </contour>
    <contour>
      <point x="618" y="862" type="curve" smooth="yes"/>
      <point x="630" y="905"/>
      <point x="682" y="943"/>
      <point x="726" y="942" type="curve" smooth="yes"/>
      <point x="771" y="941"/>
      <point x="803" y="902"/>
      <point x="791" y="857" type="curve" smooth="yes"/>
      <point x="779" y="814"/>
      <point x="727" y="777"/>
      <point x="683" y="778" type="curve" smooth="yes"/>
      <point x="638" y="779"/>
      <point x="606" y="817"/>
    </contour>
    <contour>
      <point x="350" y="862" type="curve" smooth="yes"/>
      <point x="362" y="905"/>
      <point x="414" y="943"/>
      <point x="458" y="942" type="curve" smooth="yes"/>
      <point x="503" y="941"/>
      <point x="535" y="902"/>
      <point x="523" y="857" type="curve" smooth="yes"/>
      <point x="511" y="814"/>
      <point x="458" y="777"/>
      <point x="414" y="778" type="curve" smooth="yes"/>
      <point x="369" y="779"/>
      <point x="338" y="817"/>
    </contour>
  </outline>
</glyph>
<glyph name="Yacute" format="1">
  <advance width="624"/>
  <unicode hex="00DD"/>
  <outline>
    <contour>
      <point x="730" y="920" type="line"/>
      <point x="515" y="778" type="line"/>
      <point x="437" y="825" type="line"/>
      <point x="627" y="978" type="line"/>
    </contour>
    <contour>
      <point x="618" y="699" type="line"/>
      <point x="819" y="699" type="line"/>
      <point x="439" y="276" type="line"/>
      <point x="344" y="0" type="line"/>
      <point x="172" y="0" type="line"/>
      <point x="274" y="293" type="line"/>
      <point x="186" y="700" type="line"/>
      <point x="369" y="700" type="line"/>
      <point x="405" y="445" type="line"/>
    </contour>
  </outline>
</glyph>
<glyph name="Thorn" format="1">
  <advance width="577"/>
  <unicode hex="00DE"/>
  <outline>
    <contour>
      <point x="257" y="700" type="line"/>
      <point x="405" y="700" type="line"/>
      <point x="164" y="0" type="line"/>
      <point x="19" y="0" type="line"/>
    </contour>
    <contour>
      <point x="259" y="444" type="line"/>
      <point x="307" y="580" type="line"/>
      <point x="427" y="580" type="line" smooth="yes"/>
      <point x="562" y="576"/>
      <point x="665" y="496"/>
      <point x="621" y="352" type="curve" smooth="yes"/>
      <point x="577" y="206"/>
      <point x="438" y="131"/>
      <point x="293" y="127" type="curve" smooth="yes"/>
      <point x="150" y="127" type="line"/>
      <point x="199" y="262" type="line"/>
      <point x="320" y="262" type="line"/>
      <point x="383" y="265"/>
      <point x="449" y="291"/>
      <point x="473" y="354" type="curve" smooth="yes"/>
      <point x="496" y="415"/>
      <point x="455" y="439"/>
      <point x="400" y="443" type="curve"/>
    </contour>
  </outline>
</glyph>
<glyph name="germandbls" format="1">
  <advance width="557"/>
  <unicode hex="00DF"/>
  <outline>
    <contour>
      <point x="251" y="129" type="line"/>
      <point x="325" y="142"/>
      <point x="395" y="181"/>
      <point x="422" y="256" type="curve" smooth="yes"/>
      <point x="450" y="334"/>
      <point x="387" y="358"/>
      <point x="322" y="366" type="curve"/>
      <point x="356" y="472" type="line"/>
      <point x="494" y="462"/>
      <point x="607" y="375"/>
      <point x="562" y="224" type="curve" smooth="yes"/>
      <point x="514" y="66"/>
      <point x="362" y="0"/>
      <point x="209" y="-9" type="curve"/>
    </contour>
    <contour>
      <point x="337" y="413" type="curve"/>
      <point x="366" y="505" type="line"/>
      <point x="416" y="512"/>
      <point x="482" y="527"/>
      <point x="498" y="584" type="curve" smooth="yes"/>
      <point x="510" y="624"/>
      <point x="487" y="656"/>
      <point x="445" y="656" type="curve" smooth="yes"/>
      <point x="397" y="656"/>
      <point x="355" y="630"/>
      <point x="340" y="586" type="curve" smooth="yes"/>
      <point x="138" y="0" type="line"/>
      <point x="-7" y="0" type="line"/>
      <point x="199" y="607" type="line" smooth="yes"/>
      <point x="239" y="722"/>
      <point x="352" y="796"/>
      <point x="477" y="796" type="curve" smooth="yes"/>
      <point x="589" y="796"/>
      <point x="683" y="724"/>
      <point x="648" y="605" type="curve" smooth="yes"/>
      <point x="608" y="467"/>
      <point x="467" y="420"/>
    </contour>
  </outline>
</glyph>
<glyph name="aacute" format="1">
  <advance width="513"/>
  <unicode hex="00E1"/>
  <outline>
    <contour>
      <point x="161" y="136" type="curve" smooth="yes"/>
      <point x="153" y="108"/>
      <point x="174" y="93"/>
      <point x="199" y="91" type="curve" smooth="yes"/>
      <point x="261" y="87"/>
      <point x="303" y="139"/>
      <point x="333" y="186" type="curve"/>
      <point x="332" y="128" type="line"/>
      <point x="294" y="47"/>
      <point x="225" y="-9"/>
      <point x="132" y="-9" type="curve" smooth="yes"/>
      <point x="50" y="-9"/>
      <point x="-16" y="43"/>
      <point x="9" y="129" type="curve" smooth="yes"/>
      <point x="37" y="227"/>
      <point x="146" y="278"/>
      <point x="241" y="278" type="curve" smooth="yes"/>
      <point x="295" y="279"/>
      <point x="340" y="263"/>
      <point x="381" y="229" type="curve"/>
      <point x="360" y="159" type="line"/>
      <point x="331" y="182"/>
      <point x="303" y="197"/>
      <point x="264" y="195" type="curve" smooth="yes"/>
      <point x="228" y="193"/>
      <point x="173" y="175"/>
    </contour>
    <contour>
      <point x="169" y="316" type="curve"/>
      <point x="148" y="423" type="line"/>
      <point x="215" y="450"/>
      <point x="286" y="473"/>
      <point x="359" y="473" type="curve" smooth="yes"/>
      <point x="449" y="473"/>
      <point x="548" y="429"/>
      <point x="522" y="323" type="curve"/>
      <point x="412" y="0" type="line"/>
      <point x="266" y="0" type="line"/>
      <point x="372" y="293" type="line"/>
      <point x="378" y="330"/>
      <point x="362" y="350"/>
      <point x="323" y="354" type="curve" smooth="yes"/>
      <point x="271" y="359"/>
      <point x="216" y="335"/>
    </contour>
    <contour>
      <point x="605" y="677" type="line"/>
      <point x="390" y="535" type="line"/>
      <point x="312" y="582" type="line"/>
      <point x="503" y="735" type="line"/>
    </contour>
  </outline>
</glyph>
<glyph name="acircumflex" format="1">
  <advance width="513"/>
  <unicode hex="00E2"/>
  <outline>
    <contour>
      <point x="161" y="136" type="curve" smooth="yes"/>
      <point x="153" y="107"/>
      <point x="174" y="93"/>
      <point x="199" y="91" type="curve" smooth="yes"/>
      <point x="261" y="87"/>
      <point x="303" y="139"/>
      <point x="333" y="186" type="curve"/>
      <point x="332" y="128" type="line"/>
      <point x="294" y="47"/>
      <point x="225" y="-9"/>
      <point x="132" y="-9" type="curve" smooth="yes"/>
      <point x="50" y="-9"/>
      <point x="-16" y="43"/>
      <point x="9" y="129" type="curve" smooth="yes"/>
      <point x="37" y="227"/>
      <point x="146" y="278"/>
      <point x="241" y="278" type="curve" smooth="yes"/>
      <point x="295" y="279"/>
      <point x="341" y="263"/>
      <point x="381" y="229" type="curve"/>
      <point x="360" y="159" type="line"/>
      <point x="331" y="182"/>
      <point x="303" y="197"/>
      <point x="264" y="195" type="curve" smooth="yes"/>
      <point x="228" y="193"/>
      <point x="173" y="175"/>
    </contour>
    <contour>
      <point x="169" y="316" type="curve"/>
      <point x="148" y="422" type="line"/>
      <point x="215" y="449"/>
      <point x="286" y="473"/>
      <point x="359" y="473" type="curve" smooth="yes"/>
      <point x="449" y="473"/>
      <point x="547" y="430"/>
      <point x="521" y="324" type="curve"/>
      <point x="412" y="0" type="line"/>
      <point x="266" y="0" type="line"/>
      <point x="372" y="293" type="line"/>
      <point x="378" y="331"/>
      <point x="362" y="350"/>
      <point x="323" y="354" type="curve" smooth="yes"/>
      <point x="271" y="359"/>
      <point x="216" y="335"/>
    </contour>
    <contour>
      <point x="425" y="616" type="line"/>
      <point x="311" y="534" type="line"/>
      <point x="226" y="611" type="line"/>
      <point x="454" y="746" type="line"/>
      <point x="601" y="600" type="line"/>
      <point x="480" y="532" type="line"/>
    </contour>
  </outline>
</glyph>
<glyph name="atilde" format="1">
  <advance width="513"/>
  <unicode hex="00E3"/>
  <outline>
    <contour>
      <point x="161" y="136" type="curve" smooth="yes"/>
      <point x="153" y="108"/>
      <point x="174" y="93"/>
      <point x="199" y="91" type="curve" smooth="yes"/>
      <point x="261" y="87"/>
      <point x="303" y="139"/>
      <point x="333" y="186" type="curve"/>
      <point x="332" y="128" type="line"/>
      <point x="294" y="47"/>
      <point x="225" y="-9"/>
      <point x="132" y="-9" type="curve" smooth="yes"/>
      <point x="50" y="-9"/>
      <point x="-16" y="43"/>
      <point x="9" y="129" type="curve" smooth="yes"/>
      <point x="37" y="227"/>
      <point x="146" y="278"/>
      <point x="241" y="278" type="curve" smooth="yes"/>
      <point x="295" y="279"/>
      <point x="340" y="263"/>
      <point x="381" y="229" type="curve"/>
      <point x="360" y="159" type="line"/>
      <point x="331" y="182"/>
      <point x="303" y="197"/>
      <point x="264" y="195" type="curve" smooth="yes"/>
      <point x="228" y="193"/>
      <point x="173" y="175"/>
    </contour>
    <contour>
      <point x="169" y="316" type="curve"/>
      <point x="148" y="423" type="line"/>
      <point x="215" y="450"/>
      <point x="286" y="473"/>
      <point x="359" y="473" type="curve" smooth="yes"/>
      <point x="449" y="473"/>
      <point x="548" y="429"/>
      <point x="522" y="323" type="curve"/>
      <point x="412" y="0" type="line"/>
      <point x="266" y="0" type="line"/>
      <point x="372" y="293" type="line"/>
      <point x="378" y="330"/>
      <point x="362" y="350"/>
      <point x="323" y="354" type="curve" smooth="yes"/>
      <point x="271" y="359"/>
      <point x="216" y="335"/>
    </contour>
    <contour>
      <point x="224" y="604" type="line"/>
      <point x="256" y="648"/>
      <point x="302" y="697"/>
      <point x="362" y="694" type="curve" smooth="yes"/>
      <point x="405" y="692"/>
      <point x="431" y="642"/>
      <point x="474" y="645" type="curve" smooth="yes"/>
      <point x="507" y="647"/>
      <point x="533" y="676"/>
      <point x="556" y="696" type="curve"/>
      <point x="606" y="617" type="line"/>
      <point x="570" y="578"/>
      <point x="515" y="531"/>
      <point x="457" y="536" type="curve" smooth="yes"/>
      <point x="414" y="540"/>
      <point x="387" y="593"/>
      <point x="343" y="587" type="curve" smooth="yes"/>
      <point x="314" y="583"/>
      <point x="296" y="559"/>
      <point x="279" y="538" type="curve"/>
    </contour>
  </outline>
</glyph>
<glyph name="ae" format="1">
  <advance width="845"/>
  <unicode hex="00E6"/>
  <outline>
    <contour>
      <point x="160" y="136" type="curve" smooth="yes"/>
      <point x="151" y="107"/>
      <point x="174" y="93"/>
      <point x="199" y="91" type="curve" smooth="yes"/>
      <point x="261" y="87"/>
      <point x="301" y="138"/>
      <point x="329" y="186" type="curve"/>
      <point x="385" y="127" type="line"/>
      <point x="341" y="35"/>
      <point x="258" y="-10"/>
      <point x="157" y="-9" type="curve" smooth="yes"/>
      <point x="75" y="-9"/>
      <point x="-19" y="31"/>
      <point x="9" y="129" type="curve" smooth="yes"/>
      <point x="37" y="227"/>
      <point x="146" y="278"/>
      <point x="241" y="278" type="curve" smooth="yes"/>
      <point x="295" y="279"/>
      <point x="341" y="263"/>
      <point x="381" y="229" type="curve"/>
      <point x="360" y="159" type="line"/>
      <point x="331" y="182"/>
      <point x="302" y="197"/>
      <point x="263" y="195" type="curve" smooth="yes"/>
      <point x="227" y="193"/>
      <point x="172" y="175"/>
    </contour>
    <contour>
      <point x="169" y="316" type="curve"/>
      <point x="148" y="422" type="line"/>
      <point x="214" y="449"/>
      <point x="286" y="474"/>
      <point x="359" y="473" type="curve" smooth="yes"/>
      <point x="455" y="471"/>
      <point x="497" y="417"/>
      <point x="472" y="324" type="curve"/>
      <point x="407" y="130" type="line"/>
      <point x="311" y="131" type="line"/>
      <point x="371" y="289" type="line"/>
      <point x="379" y="327"/>
      <point x="362" y="350"/>
      <point x="324" y="354" type="curve" smooth="yes"/>
      <point x="272" y="360"/>
      <point x="216" y="335"/>
    </contour>
    <contour>
      <point x="409" y="198" type="line"/>
      <point x="435" y="282" type="line"/>
      <point x="841" y="282" type="line"/>
      <point x="829" y="197" type="line"/>
    </contour>
    <contour>
      <point x="691" y="244" type="line" smooth="yes"/>
      <point x="705" y="288"/>
      <point x="722" y="361"/>
      <point x="656" y="366" type="curve" smooth="yes"/>
      <point x="590" y="371"/>
      <point x="543" y="306"/>
      <point x="517" y="254" type="curve" smooth="yes"/>
      <point x="505" y="229" type="line"/>
      <point x="485" y="178"/>
      <point x="481" y="108"/>
      <point x="550" y="102" type="curve" smooth="yes"/>
      <point x="598" y="98"/>
      <point x="642" y="130"/>
      <point x="677" y="158" type="curve"/>
      <point x="805" y="123" type="line"/>
      <point x="734" y="45"/>
      <point x="642" y="-11"/>
      <point x="534" y="-10" type="curve" smooth="yes"/>
      <point x="393" y="-8"/>
      <point x="347" y="106"/>
      <point x="389" y="230" type="curve" smooth="yes"/>
      <point x="395" y="247"/>
      <point x="403" y="263"/>
      <point x="411" y="279" type="curve" smooth="yes"/>
      <point x="467" y="386"/>
      <point x="572" y="471"/>
      <point x="697" y="470" type="curve" smooth="yes"/>
      <point x="832" y="469"/>
      <point x="876" y="354"/>
      <point x="844" y="237" type="curve" smooth="yes"/>
      <point x="841" y="224"/>
      <point x="835" y="211"/>
      <point x="831" y="198" type="curve"/>
      <point x="682" y="219" type="line"/>
    </contour>
  </outline>
</glyph>
<glyph name="ccedilla" format="1">
  <advance width="493"/>
  <unicode hex="00E7"/>
  <outline>
    <contour>
      <point x="227" y="230" type="curve" smooth="yes"/>
      <point x="214" y="156"/>
      <point x="259" y="110"/>
      <point x="327" y="110" type="curve" smooth="yes"/>
      <point x="382" y="110"/>
      <point x="440" y="135"/>
      <point x="476" y="179" type="curve"/>
      <point x="450" y="32" type="line"/>
      <point x="413" y="6"/>
      <point x="364" y="-10"/>
      <point x="294" y="-10" type="curve" smooth="yes"/>
      <point x="140" y="-10"/>
      <point x="45" y="84"/>
      <point x="71" y="230" type="curve" smooth="yes"/>
      <point x="97" y="376"/>
      <point x="225" y="470"/>
      <point x="379" y="470" type="curve" smooth="yes"/>
      <point x="449" y="470"/>
      <point x="492" y="452"/>
      <point x="520" y="430" type="curve"/>
      <point x="494" y="282" type="line"/>
      <point x="474" y="326"/>
      <point x="419" y="350"/>
      <point x="370" y="350" type="curve" smooth="yes"/>
      <point x="302" y="350"/>
      <point x="239" y="298"/>
    </contour>
    <contour>
      <point x="246" y="85" type="line"/>
      <point x="355" y="82" type="line"/>
      <point x="225" y="-65" type="line"/>
      <point x="124" y="-110" type="line"/>
    </contour>
    <contour>
      <point x="359" y="-134" type="curve"/>
      <point x="264" y="-126" type="line"/>
      <point x="269" y="-100"/>
      <point x="240" y="-94"/>
      <point x="209" y="-94" type="curve" smooth="yes"/>
      <point x="199" y="-94"/>
      <point x="163" y="-95"/>
      <point x="124" y="-110" type="curve"/>
      <point x="196" y="-66" type="line"/>
      <point x="227" y="-41"/>
      <point x="253" y="-37"/>
      <point x="285" y="-37" type="curve" smooth="yes"/>
      <point x="325" y="-37"/>
      <point x="371" y="-68"/>
    </contour>
    <contour>
      <point x="359" y="-134" type="line"/>
      <point x="346" y="-206"/>
      <point x="272" y="-244"/>
      <point x="209" y="-244" type="curve" smooth="yes"/>
      <point x="153" y="-244"/>
      <point x="114" y="-234"/>
      <point x="72" y="-204" type="curve"/>
      <point x="130" y="-136" type="line"/>
      <point x="153" y="-154"/>
      <point x="184" y="-161"/>
      <point x="204" y="-161" type="curve" smooth="yes"/>
      <point x="238" y="-161"/>
      <point x="260" y="-150"/>
      <point x="264" y="-126" type="curve"/>
    </contour>
  </outline>
</glyph>
<glyph name="eacute" format="1">
  <advance width="573"/>
  <unicode hex="00E9"/>
  <outline>
    <contour>
      <point x="131" y="198" type="line"/>
      <point x="146" y="282" type="line"/>
      <point x="572" y="282" type="line"/>
      <point x="573" y="198" type="line"/>
    </contour>
    <contour>
      <point x="423" y="244" type="line" smooth="yes"/>
      <point x="437" y="324"/>
      <point x="418" y="369"/>
      <point x="353" y="369" type="curve" smooth="yes"/>
      <point x="292" y="369"/>
      <point x="245" y="328"/>
      <point x="232" y="254" type="curve"/>
      <point x="226" y="230" type="line"/>
      <point x="209" y="136"/>
      <point x="250" y="100"/>
      <point x="309" y="100" type="curve" smooth="yes"/>
      <point x="363" y="100"/>
      <point x="404" y="120"/>
      <point x="433" y="158" type="curve"/>
      <point x="563" y="126" type="line"/>
      <point x="503" y="44"/>
      <point x="424" y="-10"/>
      <point x="292" y="-10" type="curve" smooth="yes"/>
      <point x="124" y="-10"/>
      <point x="48" y="91"/>
      <point x="73" y="230" type="curve" smooth="yes"/>
      <point x="76" y="247"/>
      <point x="79" y="263"/>
      <point x="85" y="279" type="curve" smooth="yes"/>
      <point x="124" y="392"/>
      <point x="224" y="470"/>
      <point x="374" y="470" type="curve" smooth="yes"/>
      <point x="535" y="470"/>
      <point x="608" y="382"/>
      <point x="582" y="237" type="curve" smooth="yes"/>
      <point x="581" y="229"/>
      <point x="578" y="214"/>
      <point x="573" y="198" type="curve"/>
      <point x="418" y="218" type="line"/>
    </contour>
    <contour>
      <point x="572" y="688" type="line"/>
      <point x="366" y="538" type="line"/>
      <point x="288" y="580" type="line"/>
      <point x="466" y="740" type="line"/>
    </contour>
  </outline>
</glyph>
<glyph name="edieresis" format="1">
  <advance width="541"/>
  <unicode hex="00EB"/>
  <outline>
    <contour>
      <point x="126" y="198" type="line"/>
      <point x="153" y="281" type="line"/>
      <point x="393" y="283" type="line"/>
      <point x="398" y="322"/>
      <point x="399" y="363"/>
      <point x="350" y="366" type="curve" smooth="yes"/>
      <point x="284" y="371"/>
      <point x="239" y="304"/>
      <point x="213" y="253" type="curve" smooth="yes"/>
      <point x="201" y="229" type="line"/>
      <point x="182" y="178"/>
      <point x="178" y="108"/>
      <point x="246" y="102" type="curve" smooth="yes"/>
      <point x="294" y="98"/>
      <point x="338" y="130"/>
      <point x="373" y="158" type="curve"/>
      <point x="502" y="123" type="line"/>
      <point x="431" y="44"/>
      <point x="339" y="-11"/>
      <point x="230" y="-10" type="curve" smooth="yes"/>
      <point x="90" y="-9"/>
      <point x="13" y="96"/>
      <point x="52" y="230" type="curve" smooth="yes"/>
      <point x="57" y="247"/>
      <point x="63" y="263"/>
      <point x="70" y="279" type="curve" smooth="yes"/>
      <point x="125" y="394"/>
      <point x="244" y="470"/>
      <point x="371" y="470" type="curve" smooth="yes"/>
      <point x="511" y="470"/>
      <point x="575" y="368"/>
      <point x="540" y="237" type="curve" smooth="yes"/>
      <point x="537" y="224"/>
      <point x="531" y="211"/>
      <point x="527" y="198" type="curve"/>
    </contour>
    <contour>
      <point x="459" y="616" type="curve" smooth="yes"/>
      <point x="471" y="659"/>
      <point x="523" y="697"/>
      <point x="567" y="696" type="curve" smooth="yes"/>
      <point x="612" y="695"/>
      <point x="644" y="656"/>
      <point x="632" y="611" type="curve" smooth="yes"/>
      <point x="620" y="568"/>
      <point x="568" y="531"/>
      <point x="524" y="532" type="curve" smooth="yes"/>
      <point x="479" y="533"/>
      <point x="447" y="571"/>
    </contour>
    <contour>
      <point x="228" y="616" type="curve" smooth="yes"/>
      <point x="240" y="659"/>
      <point x="292" y="697"/>
      <point x="336" y="696" type="curve" smooth="yes"/>
      <point x="381" y="695"/>
      <point x="413" y="656"/>
      <point x="401" y="611" type="curve" smooth="yes"/>
      <point x="389" y="568"/>
      <point x="336" y="531"/>
      <point x="292" y="532" type="curve" smooth="yes"/>
      <point x="247" y="533"/>
      <point x="216" y="571"/>
    </contour>
  </outline>
</glyph>
<glyph name="igrave" format="1">
  <advance width="260"/>
  <unicode hex="00EC"/>
  <outline>
    <contour>
      <point x="159" y="460" type="line"/>
      <point x="307" y="460" type="line"/>
      <point x="148" y="0" type="line"/>
      <point x="3" y="0" type="line"/>
    </contour>
    <contour>
      <point x="141" y="692" type="line"/>
      <point x="263" y="741" type="line"/>
      <point x="354" y="575" type="line"/>
      <point x="265" y="538" type="line"/>
    </contour>
  </outline>
</glyph>
<glyph name="iacute" format="1">
  <advance width="260"/>
  <unicode hex="00ED"/>
  <outline>
    <contour>
      <point x="159" y="460" type="line"/>
      <point x="307" y="460" type="line"/>
      <point x="148" y="0" type="line"/>
      <point x="3" y="0" type="line"/>
    </contour>
    <contour>
      <point x="475" y="681" type="line"/>
      <point x="260" y="539" type="line"/>
      <point x="182" y="586" type="line"/>
      <point x="373" y="739" type="line"/>
    </contour>
  </outline>
</glyph>
<glyph name="icircumflex" format="1">
  <advance width="260"/>
  <unicode hex="00EE"/>
  <outline>
    <contour>
      <point x="159" y="460" type="line"/>
      <point x="307" y="460" type="line"/>
      <point x="148" y="0" type="line"/>
      <point x="3" y="0" type="line"/>
    </contour>
    <contour>
      <point x="294" y="617" type="line"/>
      <point x="180" y="534" type="line"/>
      <point x="95" y="612" type="line"/>
      <point x="322" y="747" type="line"/>
      <point x="470" y="601" type="line"/>
      <point x="350" y="533" type="line"/>
    </contour>
  </outline>
</glyph>
<glyph name="idieresis" format="1">
  <advance width="260"/>
  <unicode hex="00EF"/>
  <outline>
    <contour>
      <point x="159" y="460" type="line"/>
      <point x="307" y="460" type="line"/>
      <point x="148" y="0" type="line"/>
      <point x="3" y="0" type="line"/>
    </contour>
    <contour>
      <point x="318" y="627" type="curve" smooth="yes"/>
      <point x="330" y="670"/>
      <point x="382" y="707"/>
      <point x="426" y="706" type="curve" smooth="yes"/>
      <point x="471" y="705"/>
      <point x="503" y="666"/>
      <point x="491" y="621" type="curve" smooth="yes"/>
      <point x="479" y="578"/>
      <point x="427" y="541"/>
      <point x="383" y="542" type="curve" smooth="yes"/>
      <point x="338" y="543"/>
      <point x="306" y="582"/>
    </contour>
    <contour>
      <point x="87" y="627" type="curve" smooth="yes"/>
      <point x="99" y="670"/>
      <point x="151" y="707"/>
      <point x="195" y="706" type="curve" smooth="yes"/>
      <point x="240" y="705"/>
      <point x="272" y="666"/>
      <point x="260" y="621" type="curve" smooth="yes"/>
      <point x="248" y="578"/>
      <point x="196" y="541"/>
      <point x="152" y="542" type="curve" smooth="yes"/>
      <point x="107" y="543"/>
      <point x="75" y="582"/>
    </contour>
  </outline>
</glyph>
<glyph name="eth" format="1">
  <advance width="633"/>
  <unicode hex="00F0"/>
  <outline>
    <contour>
      <point x="455" y="247" type="curve" smooth="yes"/>
      <point x="475" y="299"/>
      <point x="459" y="361"/>
      <point x="395" y="363" type="curve" smooth="yes"/>
      <point x="328" y="365"/>
      <point x="260" y="306"/>
      <point x="238" y="246" type="curve" smooth="yes"/>
      <point x="218" y="193"/>
      <point x="236" y="134"/>
      <point x="299" y="132" type="curve" smooth="yes"/>
      <point x="365" y="130"/>
      <point x="433" y="187"/>
    </contour>
    <contour>
      <point x="499" y="697" type="line"/>
      <point x="602" y="443" type="line" smooth="yes"/>
      <point x="628" y="379"/>
      <point x="639" y="313"/>
      <point x="619" y="246" type="curve" smooth="yes"/>
      <point x="573" y="95"/>
      <point x="425" y="-16"/>
      <point x="267" y="-16" type="curve" smooth="yes"/>
      <point x="116" y="-16"/>
      <point x="29" y="103"/>
      <point x="74" y="247" type="curve" smooth="yes"/>
      <point x="111" y="363"/>
      <point x="223" y="471"/>
      <point x="349" y="474" type="curve" smooth="yes"/>
      <point x="395" y="475"/>
      <point x="425" y="456"/>
      <point x="457" y="426" type="curve"/>
      <point x="431" y="444" type="line"/>
      <point x="303" y="697" type="line"/>
    </contour>
    <contour>
      <point x="252" y="521" type="line"/>
      <point x="276" y="598" type="line"/>
      <point x="698" y="598" type="line"/>
      <point x="673" y="521" type="line"/>
    </contour>
  </outline>
</glyph>
<glyph name="ntilde" format="1">
  <advance width="542"/>
  <unicode hex="00F1"/>
  <outline>
    <contour>
      <point x="307" y="460" type="line"/>
      <point x="149" y="0" type="line"/>
      <point x="-3" y="0" type="line"/>
      <point x="156" y="460" type="line"/>
    </contour>
    <contour>
      <point x="378" y="280" type="line"/>
      <point x="387" y="311"/>
      <point x="395" y="356"/>
      <point x="351" y="362" type="curve" smooth="yes"/>
      <point x="303" y="368"/>
      <point x="267" y="315"/>
      <point x="245" y="281" type="curve"/>
      <point x="212" y="276" type="line"/>
      <point x="249" y="371"/>
      <point x="317" y="469"/>
      <point x="430" y="470" type="curve" smooth="yes"/>
      <point x="537" y="471"/>
      <point x="561" y="386"/>
      <point x="536" y="296" type="curve"/>
      <point x="435" y="0" type="line"/>
      <point x="279" y="0" type="line"/>
    </contour>
    <contour>
      <point x="234" y="601" type="line"/>
      <point x="266" y="645"/>
      <point x="312" y="695"/>
      <point x="372" y="692" type="curve" smooth="yes"/>
      <point x="416" y="690"/>
      <point x="439" y="639"/>
      <point x="483" y="642" type="curve" smooth="yes"/>
      <point x="516" y="644"/>
      <point x="543" y="673"/>
      <point x="566" y="693" type="curve"/>
      <point x="616" y="614" type="line"/>
      <point x="580" y="575"/>
      <point x="525" y="528"/>
      <point x="467" y="533" type="curve" smooth="yes"/>
      <point x="424" y="537"/>
      <point x="397" y="590"/>
      <point x="353" y="584" type="curve" smooth="yes"/>
      <point x="324" y="580"/>
      <point x="305" y="556"/>
      <point x="288" y="535" type="curve"/>
    </contour>
  </outline>
</glyph>
<glyph name="otilde" format="1">
  <advance width="589"/>
  <unicode hex="00F5"/>
  <outline>
    <contour>
      <point x="73" y="230" type="curve" smooth="yes"/>
      <point x="99" y="376"/>
      <point x="228" y="470"/>
      <point x="378" y="470" type="curve" smooth="yes"/>
      <point x="528" y="470"/>
      <point x="625" y="376"/>
      <point x="599" y="230" type="curve" smooth="yes"/>
      <point x="573" y="84"/>
      <point x="443" y="-10"/>
      <point x="293" y="-10" type="curve" smooth="yes"/>
      <point x="143" y="-10"/>
      <point x="47" y="84"/>
    </contour>
    <contour>
      <point x="229" y="230" type="curve" smooth="yes"/>
      <point x="216" y="159"/>
      <point x="256" y="115"/>
      <point x="315" y="115" type="curve" smooth="yes"/>
      <point x="374" y="115"/>
      <point x="430" y="159"/>
      <point x="443" y="230" type="curve" smooth="yes"/>
      <point x="456" y="301"/>
      <point x="415" y="346"/>
      <point x="356" y="346" type="curve" smooth="yes"/>
      <point x="297" y="346"/>
      <point x="242" y="301"/>
    </contour>
    <contour>
      <point x="203" y="596" type="line"/>
      <point x="222" y="645"/>
      <point x="276" y="691"/>
      <point x="340" y="691" type="curve" smooth="yes"/>
      <point x="406" y="691"/>
      <point x="412" y="639"/>
      <point x="468" y="639" type="curve" smooth="yes"/>
      <point x="494" y="639"/>
      <point x="516" y="660"/>
      <point x="542" y="692" type="curve"/>
      <point x="600" y="618" type="line"/>
      <point x="577" y="581"/>
      <point x="513" y="532"/>
      <point x="451" y="532" type="curve" smooth="yes"/>
      <point x="396" y="532"/>
      <point x="371" y="586"/>
      <point x="321" y="586" type="curve" smooth="yes"/>
      <point x="283" y="586"/>
      <point x="267" y="549"/>
      <point x="264" y="534" type="curve"/>
    </contour>
  </outline>
</glyph>
<glyph name="odieresis" format="1">
  <advance width="555"/>
  <unicode hex="00F6"/>
  <outline>
    <contour>
      <point x="51" y="231" type="curve" smooth="yes"/>
      <point x="92" y="368"/>
      <point x="232" y="470"/>
      <point x="375" y="470" type="curve" smooth="yes"/>
      <point x="511" y="470"/>
      <point x="594" y="360"/>
      <point x="554" y="229" type="curve" smooth="yes"/>
      <point x="513" y="92"/>
      <point x="373" y="-10"/>
      <point x="230" y="-10" type="curve" smooth="yes"/>
      <point x="94" y="-10"/>
      <point x="11" y="100"/>
    </contour>
    <contour>
      <point x="204" y="229" type="curve" smooth="yes"/>
      <point x="186" y="182"/>
      <point x="196" y="120"/>
      <point x="256" y="118" type="curve" smooth="yes"/>
      <point x="319" y="116"/>
      <point x="380" y="176"/>
      <point x="401" y="231" type="curve" smooth="yes"/>
      <point x="419" y="278"/>
      <point x="409" y="341"/>
      <point x="349" y="343" type="curve" smooth="yes"/>
      <point x="286" y="345"/>
      <point x="225" y="284"/>
    </contour>
    <contour>
      <point x="466" y="627" type="curve" smooth="yes"/>
      <point x="478" y="670"/>
      <point x="530" y="707"/>
      <point x="574" y="706" type="curve" smooth="yes"/>
      <point x="619" y="705"/>
      <point x="650" y="666"/>
      <point x="638" y="621" type="curve" smooth="yes"/>
      <point x="626" y="578"/>
      <point x="574" y="541"/>
      <point x="530" y="542" type="curve" smooth="yes"/>
      <point x="485" y="543"/>
      <point x="454" y="582"/>
    </contour>
    <contour>
      <point x="235" y="627" type="curve" smooth="yes"/>
      <point x="247" y="670"/>
      <point x="299" y="707"/>
      <point x="343" y="706" type="curve" smooth="yes"/>
      <point x="388" y="705"/>
      <point x="419" y="666"/>
      <point x="407" y="621" type="curve" smooth="yes"/>
      <point x="395" y="578"/>
      <point x="343" y="541"/>
      <point x="299" y="542" type="curve" smooth="yes"/>
      <point x="254" y="543"/>
      <point x="223" y="582"/>
    </contour>
  </outline>
</glyph>
<glyph name="divide" format="1">
  <advance width="602"/>
  <unicode hex="00F7"/>
  <outline>
    <contour>
      <point x="345" y="559" type="curve" smooth="yes"/>
      <point x="358" y="606"/>
      <point x="412" y="652"/>
      <point x="462" y="651" type="curve" smooth="yes"/>
      <point x="513" y="650"/>
      <point x="542" y="602"/>
      <point x="529" y="555" type="curve" smooth="yes"/>
      <point x="516" y="508"/>
      <point x="462" y="463"/>
      <point x="412" y="464" type="curve" smooth="yes"/>
      <point x="361" y="465"/>
      <point x="332" y="512"/>
    </contour>
    <contour>
      <point x="188" y="101" type="curve" smooth="yes"/>
      <point x="201" y="148"/>
      <point x="256" y="193"/>
      <point x="306" y="192" type="curve" smooth="yes"/>
      <point x="357" y="191"/>
      <point x="386" y="144"/>
      <point x="373" y="97" type="curve" smooth="yes"/>
      <point x="360" y="50"/>
      <point x="305" y="5"/>
      <point x="255" y="6" type="curve" smooth="yes"/>
      <point x="204" y="7"/>
      <point x="175" y="54"/>
    </contour>
    <contour>
      <point x="55" y="261" type="line"/>
      <point x="103" y="399" type="line"/>
      <point x="665" y="399" type="line"/>
      <point x="617" y="261" type="line"/>
    </contour>
  </outline>
</glyph>
<glyph name="oslash" format="1">
  <advance width="513"/>
  <unicode hex="00F8"/>
  <outline>
    <contour>
      <point x="51" y="231" type="curve" smooth="yes"/>
      <point x="93" y="368"/>
      <point x="231" y="470"/>
      <point x="375" y="470" type="curve" smooth="yes"/>
      <point x="513" y="470"/>
      <point x="594" y="361"/>
      <point x="554" y="229" type="curve" smooth="yes"/>
      <point x="512" y="92"/>
      <point x="374" y="-10"/>
      <point x="230" y="-10" type="curve" smooth="yes"/>
      <point x="92" y="-10"/>
      <point x="11" y="99"/>
    </contour>
    <contour>
      <point x="192" y="229" type="curve" smooth="yes"/>
      <point x="172" y="175"/>
      <point x="187" y="114"/>
      <point x="253" y="112" type="curve" smooth="yes"/>
      <point x="321" y="110"/>
      <point x="391" y="169"/>
      <point x="413" y="231" type="curve" smooth="yes"/>
      <point x="432" y="283"/>
      <point x="415" y="346"/>
      <point x="351" y="348" type="curve" smooth="yes"/>
      <point x="284" y="350"/>
      <point x="215" y="289"/>
    </contour>
    <contour>
      <point x="539" y="505" type="line"/>
      <point x="593" y="467" type="line"/>
      <point x="52" y="-49" type="line"/>
      <point x="1" y="-14" type="line"/>
    </contour>
  </outline>
</glyph>
<glyph name="ugrave" format="1">
  <advance width="542"/>
  <unicode hex="00F9"/>
  <outline>
    <contour>
      <point x="284" y="0" type="line"/>
      <point x="443" y="460" type="line"/>
      <point x="594" y="460" type="line"/>
      <point x="436" y="0" type="line"/>
    </contour>
    <contour>
      <point x="214" y="180" type="line"/>
      <point x="205" y="149"/>
      <point x="196" y="105"/>
      <point x="240" y="99" type="curve" smooth="yes"/>
      <point x="288" y="93"/>
      <point x="325" y="145"/>
      <point x="347" y="179" type="curve"/>
      <point x="380" y="185" type="line"/>
      <point x="343" y="90"/>
      <point x="274" y="-9"/>
      <point x="161" y="-10" type="curve" smooth="yes"/>
      <point x="54" y="-11"/>
      <point x="30" y="73"/>
      <point x="55" y="163" type="curve"/>
      <point x="156" y="460" type="line"/>
      <point x="312" y="460" type="line"/>
    </contour>
    <contour>
      <point x="315" y="692" type="line"/>
      <point x="437" y="741" type="line"/>
      <point x="528" y="575" type="line"/>
      <point x="440" y="538" type="line"/>
    </contour>
  </outline>
</glyph>
<glyph name="uacute" format="1">
  <advance width="542"/>
  <unicode hex="00FA"/>
  <outline>
    <contour>
      <point x="284" y="0" type="line"/>
      <point x="443" y="460" type="line"/>
      <point x="594" y="460" type="line"/>
      <point x="436" y="0" type="line"/>
    </contour>
    <contour>
      <point x="214" y="180" type="line"/>
      <point x="205" y="149"/>
      <point x="196" y="105"/>
      <point x="240" y="99" type="curve" smooth="yes"/>
      <point x="288" y="93"/>
      <point x="325" y="145"/>
      <point x="347" y="179" type="curve"/>
      <point x="380" y="185" type="line"/>
      <point x="343" y="90"/>
      <point x="274" y="-9"/>
      <point x="161" y="-10" type="curve" smooth="yes"/>
      <point x="54" y="-11"/>
      <point x="30" y="73"/>
      <point x="55" y="163" type="curve"/>
      <point x="156" y="460" type="line"/>
      <point x="312" y="460" type="line"/>
    </contour>
    <contour>
      <point x="591" y="681" type="line"/>
      <point x="377" y="539" type="line"/>
      <point x="299" y="586" type="line"/>
      <point x="489" y="739" type="line"/>
    </contour>
  </outline>
</glyph>
<glyph name="ucircumflex" format="1">
  <advance width="542"/>
  <unicode hex="00FB"/>
  <outline>
    <contour>
      <point x="284" y="0" type="line"/>
      <point x="443" y="460" type="line"/>
      <point x="594" y="460" type="line"/>
      <point x="436" y="0" type="line"/>
    </contour>
    <contour>
      <point x="213" y="180" type="line"/>
      <point x="204" y="149"/>
      <point x="196" y="104"/>
      <point x="240" y="98" type="curve" smooth="yes"/>
      <point x="288" y="92"/>
      <point x="325" y="145"/>
      <point x="347" y="179" type="curve"/>
      <point x="380" y="184" type="line"/>
      <point x="343" y="89"/>
      <point x="274" y="-9"/>
      <point x="161" y="-10" type="curve" smooth="yes"/>
      <point x="54" y="-11"/>
      <point x="30" y="74"/>
      <point x="55" y="164" type="curve"/>
      <point x="156" y="460" type="line"/>
      <point x="312" y="460" type="line"/>
    </contour>
    <contour>
      <point x="437" y="621" type="line"/>
      <point x="322" y="538" type="line"/>
      <point x="237" y="616" type="line"/>
      <point x="465" y="750" type="line"/>
      <point x="613" y="605" type="line"/>
      <point x="492" y="537" type="line"/>
    </contour>
  </outline>
</glyph>
<glyph name="udieresis" format="1">
  <advance width="575"/>
  <unicode hex="00FC"/>
  <outline>
    <contour>
      <point x="364" y="0" type="line"/>
      <point x="445" y="460" type="line"/>
      <point x="597" y="460" type="line"/>
      <point x="516" y="0" type="line"/>
    </contour>
    <contour>
      <point x="250" y="180" type="line" smooth="yes"/>
      <point x="240" y="126"/>
      <point x="251" y="96"/>
      <point x="301" y="96" type="curve" smooth="yes"/>
      <point x="349" y="96"/>
      <point x="386" y="126"/>
      <point x="396" y="180" type="curve"/>
      <point x="427" y="186" type="line"/>
      <point x="408" y="77"/>
      <point x="336" y="-10"/>
      <point x="222" y="-10" type="curve" smooth="yes"/>
      <point x="108" y="-10"/>
      <point x="69" y="52"/>
      <point x="89" y="164" type="curve" smooth="yes"/>
      <point x="141" y="460" type="line"/>
      <point x="299" y="460" type="line"/>
    </contour>
    <contour>
      <point x="427" y="630" type="curve" smooth="yes"/>
      <point x="436" y="680"/>
      <point x="482" y="723"/>
      <point x="537" y="723" type="curve" smooth="yes"/>
      <point x="592" y="723"/>
      <point x="624" y="680"/>
      <point x="615" y="630" type="curve" smooth="yes"/>
      <point x="606" y="580"/>
      <point x="560" y="538"/>
      <point x="505" y="538" type="curve" smooth="yes"/>
      <point x="450" y="538"/>
      <point x="418" y="580"/>
    </contour>
    <contour>
      <point x="183" y="630" type="curve" smooth="yes"/>
      <point x="192" y="680"/>
      <point x="238" y="723"/>
      <point x="293" y="723" type="curve" smooth="yes"/>
      <point x="348" y="723"/>
      <point x="380" y="680"/>
      <point x="371" y="630" type="curve" smooth="yes"/>
      <point x="362" y="580"/>
      <point x="316" y="538"/>
      <point x="261" y="538" type="curve" smooth="yes"/>
      <point x="206" y="538"/>
      <point x="174" y="580"/>
    </contour>
  </outline>
</glyph>
<glyph name="yacute" format="1">
  <advance width="492"/>
  <unicode hex="00FD"/>
  <outline>
    <contour>
      <point x="613" y="459" type="line"/>
      <point x="97" y="-219" type="line"/>
      <point x="-62" y="-219" type="line"/>
      <point x="139" y="45" type="line"/>
      <point x="96" y="460" type="line"/>
      <point x="253" y="460" type="line"/>
      <point x="266" y="90" type="line"/>
      <point x="186" y="93" type="line"/>
      <point x="451" y="459" type="line"/>
    </contour>
    <contour>
      <point x="582" y="681" type="line"/>
      <point x="367" y="539" type="line"/>
      <point x="290" y="586" type="line"/>
      <point x="480" y="739" type="line"/>
    </contour>
  </outline>
</glyph>
<glyph name="thorn" format="1">
  <advance width="581"/>
  <unicode hex="00FE"/>
  <outline>
    <contour>
      <point x="73" y="-220" type="line"/>
      <point x="-79" y="-220" type="line"/>
      <point x="264" y="780" type="line"/>
      <point x="414" y="780" type="line"/>
    </contour>
    <contour>
      <point x="579" y="229" type="curve" smooth="yes"/>
      <point x="543" y="110"/>
      <point x="431" y="-11"/>
      <point x="299" y="-10" type="curve" smooth="yes"/>
      <point x="167" y="-9"/>
      <point x="150" y="130"/>
      <point x="181" y="231" type="curve" smooth="yes"/>
      <point x="216" y="345"/>
      <point x="314" y="469"/>
      <point x="444" y="469" type="curve" smooth="yes"/>
      <point x="577" y="469"/>
      <point x="612" y="337"/>
    </contour>
    <contour>
      <point x="424" y="231" type="curve" smooth="yes"/>
      <point x="442" y="279"/>
      <point x="430" y="343"/>
      <point x="369" y="345" type="curve" smooth="yes"/>
      <point x="306" y="347"/>
      <point x="245" y="283"/>
      <point x="224" y="229" type="curve" smooth="yes"/>
      <point x="207" y="183"/>
      <point x="215" y="118"/>
      <point x="275" y="115" type="curve" smooth="yes"/>
      <point x="339" y="112"/>
      <point x="403" y="176"/>
    </contour>
  </outline>
</glyph>
<glyph name="ydieresis" format="1">
  <advance width="492"/>
  <unicode hex="00FF"/>
  <outline>
    <contour>
      <point x="613" y="459" type="line"/>
      <point x="97" y="-219" type="line"/>
      <point x="-62" y="-219" type="line"/>
      <point x="139" y="45" type="line"/>
      <point x="96" y="460" type="line"/>
      <point x="253" y="460" type="line"/>
      <point x="266" y="90" type="line"/>
      <point x="186" y="93" type="line"/>
      <point x="451" y="459" type="line"/>
    </contour>
    <contour>
      <point x="432" y="616" type="curve" smooth="yes"/>
      <point x="444" y="659"/>
      <point x="496" y="697"/>
      <point x="540" y="696" type="curve" smooth="yes"/>
      <point x="585" y="695"/>
      <point x="616" y="656"/>
      <point x="604" y="611" type="curve" smooth="yes"/>
      <point x="592" y="568"/>
      <point x="540" y="531"/>
      <point x="496" y="532" type="curve" smooth="yes"/>
      <point x="451" y="533"/>
      <point x="420" y="571"/>
    </contour>
    <contour>
      <point x="201" y="616" type="curve" smooth="yes"/>
      <point x="213" y="659"/>
      <point x="264" y="697"/>
      <point x="308" y="696" type="curve" smooth="yes"/>
      <point x="353" y="695"/>
      <point x="385" y="656"/>
      <point x="373" y="611" type="curve" smooth="yes"/>
      <point x="361" y="568"/>
      <point x="309" y="531"/>
      <point x="265" y="532" type="curve" smooth="yes"/>
      <point x="220" y="533"/>
      <point x="189" y="571"/>
    </contour>
  </outline>
</glyph>
<glyph name="Amacron" format="1">
  <advance width="693"/>
  <unicode hex="0100"/>
  <outline>
    <contour>
      <point x="163" y="133" type="line"/>
      <point x="218" y="262" type="line"/>
      <point x="552" y="263" type="line"/>
      <point x="516" y="132" type="line"/>
    </contour>
    <contour>
      <point x="449" y="438" type="line"/>
      <point x="279" y="215" type="line"/>
      <point x="275" y="175" type="line"/>
      <point x="134" y="0" type="line"/>
      <point x="-63" y="0" type="line"/>
      <point x="545" y="749" type="line"/>
      <point x="640" y="0" type="line"/>
      <point x="459" y="0" type="line"/>
      <point x="436" y="170" type="line"/>
      <point x="459" y="214" type="line"/>
    </contour>
    <contour>
      <point x="390" y="805" type="line"/>
      <point x="436" y="938" type="line"/>
      <point x="792" y="938" type="line"/>
      <point x="745" y="805" type="line"/>
    </contour>
  </outline>
</glyph>
<glyph name="amacron" format="1">
  <advance width="513"/>
  <unicode hex="0101"/>
  <outline>
    <contour>
      <point x="161" y="136" type="curve" smooth="yes"/>
      <point x="153" y="108"/>
      <point x="174" y="93"/>
      <point x="199" y="91" type="curve" smooth="yes"/>
      <point x="261" y="87"/>
      <point x="303" y="139"/>
      <point x="333" y="186" type="curve"/>
      <point x="332" y="128" type="line"/>
      <point x="294" y="47"/>
      <point x="225" y="-9"/>
      <point x="132" y="-9" type="curve" smooth="yes"/>
      <point x="50" y="-9"/>
      <point x="-16" y="43"/>
      <point x="9" y="129" type="curve" smooth="yes"/>
      <point x="37" y="227"/>
      <point x="146" y="278"/>
      <point x="241" y="278" type="curve" smooth="yes"/>
      <point x="295" y="279"/>
      <point x="340" y="263"/>
      <point x="381" y="229" type="curve"/>
      <point x="360" y="159" type="line"/>
      <point x="331" y="182"/>
      <point x="303" y="197"/>
      <point x="264" y="195" type="curve" smooth="yes"/>
      <point x="228" y="193"/>
      <point x="173" y="175"/>
    </contour>
    <contour>
      <point x="169" y="316" type="curve"/>
      <point x="148" y="423" type="line"/>
      <point x="215" y="450"/>
      <point x="286" y="473"/>
      <point x="359" y="473" type="curve" smooth="yes"/>
      <point x="449" y="473"/>
      <point x="548" y="429"/>
      <point x="522" y="323" type="curve"/>
      <point x="412" y="0" type="line"/>
      <point x="266" y="0" type="line"/>
      <point x="372" y="293" type="line"/>
      <point x="378" y="330"/>
      <point x="362" y="350"/>
      <point x="323" y="354" type="curve" smooth="yes"/>
      <point x="271" y="359"/>
      <point x="216" y="335"/>
    </contour>
    <contour>
      <point x="213" y="541" type="line"/>
      <point x="259" y="674" type="line"/>
      <point x="616" y="674" type="line"/>
      <point x="570" y="540" type="line"/>
    </contour>
  </outline>
</glyph>
<glyph name="Abreve" format="1">
  <advance width="693"/>
  <unicode hex="0102"/>
  <outline>
    <contour>
      <point x="163" y="133" type="line"/>
      <point x="218" y="262" type="line"/>
      <point x="552" y="263" type="line"/>
      <point x="516" y="132" type="line"/>
    </contour>
    <contour>
      <point x="449" y="438" type="line"/>
      <point x="279" y="215" type="line"/>
      <point x="275" y="175" type="line"/>
      <point x="134" y="0" type="line"/>
      <point x="-63" y="0" type="line"/>
      <point x="545" y="749" type="line"/>
      <point x="640" y="0" type="line"/>
      <point x="459" y="0" type="line"/>
      <point x="436" y="170" type="line"/>
      <point x="459" y="214" type="line"/>
    </contour>
    <contour>
      <point x="460" y="951" type="curve"/>
      <point x="553" y="951" type="line"/>
      <point x="553" y="923"/>
      <point x="554" y="897"/>
      <point x="588" y="894" type="curve" smooth="yes"/>
      <point x="625" y="891"/>
      <point x="651" y="924"/>
      <point x="671" y="950" type="curve"/>
      <point x="773" y="949" type="line"/>
      <point x="737" y="868"/>
      <point x="670" y="807"/>
      <point x="577" y="806" type="curve" smooth="yes"/>
      <point x="485" y="805"/>
      <point x="449" y="867"/>
    </contour>
  </outline>
</glyph>
